{
	"asset":{
		"generator":"Khronos glTF Blender I/O v4.2.57",
		"version":"2.0"
	},
	"scene":0,
	"scenes":[
		{
			"name":"Scene",
			"nodes":[
				0,
				1,
				2,
				3
			]
		}
	],
	"nodes":[
		{
			"mesh":0,
			"name":"Left Seat Bottom"
		},
		{
			"mesh":1,
			"name":"Left Seat Back"
		},
		{
			"mesh":2,
			"name":"Right Seat Back"
		},
		{
			"mesh":3,
			"name":"Right Seat Bottom"
		}
	],
	"materials":[
		{
			"doubleSided":true,
			"name":"Seat Fabric",
			"pbrMetallicRoughness":{
				"baseColorFactor":[
					0.049366604536771774,
					0.049366604536771774,
					0.049366604536771774,
					1
				],
				"metallicFactor":0.30909091234207153
			}
		}
	],
	"meshes":[
		{
			"name":"Cube.036",
			"primitives":[
				{
					"attributes":{
						"POSITION":0,
						"NORMAL":1,
						"TEXCOORD_0":2
					},
					"indices":3,
					"material":0
				}
			]
		},
		{
			"name":"Cube.037",
			"primitives":[
				{
					"attributes":{
						"POSITION":4,
						"NORMAL":5,
						"TEXCOORD_0":6
					},
					"indices":7,
					"material":0
				}
			]
		},
		{
			"name":"Cube.038",
			"primitives":[
				{
					"attributes":{
						"POSITION":8,
						"NORMAL":9,
						"TEXCOORD_0":10
					},
					"indices":11,
					"material":0
				}
			]
		},
		{
			"name":"Cube.039",
			"primitives":[
				{
					"attributes":{
						"POSITION":12,
						"NORMAL":13,
						"TEXCOORD_0":14
					},
					"indices":15,
					"material":0
				}
			]
		}
	],
	"accessors":[
		{
			"bufferView":0,
			"componentType":5126,
			"count":44,
			"max":[
				0.48755940794944763,
				0.4855014979839325,
				0.26250961422920227
			],
			"min":[
				0.07760652154684067,
				0.37665262818336487,
				-0.23535573482513428
			],
			"type":"VEC3"
		},
		{
			"bufferView":1,
			"componentType":5126,
			"count":44,
			"type":"VEC3"
		},
		{
			"bufferView":2,
			"componentType":5126,
			"count":44,
			"type":"VEC2"
		},
		{
			"bufferView":3,
			"componentType":5123,
			"count":96,
			"type":"SCALAR"
		},
		{
			"bufferView":4,
			"componentType":5126,
			"count":64,
			"max":[
				0.47139936685562134,
				1.1283546686172485,
				-0.12392272055149078
			],
			"min":[
				0.09551095962524414,
				0.4913342297077179,
				-0.2990998327732086
			],
			"type":"VEC3"
		},
		{
			"bufferView":5,
			"componentType":5126,
			"count":64,
			"type":"VEC3"
		},
		{
			"bufferView":6,
			"componentType":5126,
			"count":64,
			"type":"VEC2"
		},
		{
			"bufferView":7,
			"componentType":5123,
			"count":96,
			"type":"SCALAR"
		},
		{
			"bufferView":8,
			"componentType":5126,
			"count":64,
			"max":[
				-0.09551095962524414,
				1.1283546686172485,
				-0.12392272055149078
			],
			"min":[
				-0.47139936685562134,
				0.4913342297077179,
				-0.2990998327732086
			],
			"type":"VEC3"
		},
		{
			"bufferView":9,
			"componentType":5126,
			"count":64,
			"type":"VEC3"
		},
		{
			"bufferView":10,
			"componentType":5126,
			"count":64,
			"type":"VEC2"
		},
		{
			"bufferView":11,
			"componentType":5123,
			"count":96,
			"type":"SCALAR"
		},
		{
			"bufferView":12,
			"componentType":5126,
			"count":44,
			"max":[
				-0.07760652154684067,
				0.4855014979839325,
				0.26250961422920227
			],
			"min":[
				-0.48755940794944763,
				0.37665262818336487,
				-0.23535573482513428
			],
			"type":"VEC3"
		},
		{
			"bufferView":13,
			"componentType":5126,
			"count":44,
			"type":"VEC3"
		},
		{
			"bufferView":14,
			"componentType":5126,
			"count":44,
			"type":"VEC2"
		},
		{
			"bufferView":15,
			"componentType":5123,
			"count":96,
			"type":"SCALAR"
		}
	],
	"bufferViews":[
		{
			"buffer":0,
			"byteLength":528,
			"byteOffset":0,
			"target":34962
		},
		{
			"buffer":0,
			"byteLength":528,
			"byteOffset":528,
			"target":34962
		},
		{
			"buffer":0,
			"byteLength":352,
			"byteOffset":1056,
			"target":34962
		},
		{
			"buffer":0,
			"byteLength":192,
			"byteOffset":1408,
			"target":34963
		},
		{
			"buffer":0,
			"byteLength":768,
			"byteOffset":1600,
			"target":34962
		},
		{
			"buffer":0,
			"byteLength":768,
			"byteOffset":2368,
			"target":34962
		},
		{
			"buffer":0,
			"byteLength":512,
			"byteOffset":3136,
			"target":34962
		},
		{
			"buffer":0,
			"byteLength":192,
			"byteOffset":3648,
			"target":34963
		},
		{
			"buffer":0,
			"byteLength":768,
			"byteOffset":3840,
			"target":34962
		},
		{
			"buffer":0,
			"byteLength":768,
			"byteOffset":4608,
			"target":34962
		},
		{
			"buffer":0,
			"byteLength":512,
			"byteOffset":5376,
			"target":34962
		},
		{
			"buffer":0,
			"byteLength":192,
			"byteOffset":5888,
			"target":34963
		},
		{
			"buffer":0,
			"byteLength":528,
			"byteOffset":6080,
			"target":34962
		},
		{
			"buffer":0,
			"byteLength":528,
			"byteOffset":6608,
			"target":34962
		},
		{
			"buffer":0,
			"byteLength":352,
			"byteOffset":7136,
			"target":34962
		},
		{
			"buffer":0,
			"byteLength":192,
			"byteOffset":7488,
			"target":34963
		}
	],
	"buffers":[
		{
			"byteLength":7680,
			"uri":"cricket_mk2_interior.bin"
		}
	]
}
