# Blender 4.2.0
# www.blender.org
mtllib cricket_doors.mtl
o Doors
v 0.703768 0.937433 0.750467
v 0.519626 1.331934 0.335070
v 0.761331 0.766692 0.772076
v 0.761513 0.767808 0.406492
v 0.765477 0.487963 0.776058
v 0.767008 0.488507 0.406492
v 0.520582 1.360946 -0.413228
v 0.761513 0.767808 -0.385246
v 0.768088 0.496056 -0.387138
v 0.716628 0.896979 0.757344
v 0.709105 0.937972 0.416942
v 0.708259 0.937623 -0.362107
v 0.708285 0.923226 0.752882
v 0.543913 1.280136 0.355284
v 0.532919 1.333120 -0.409868
v 0.665325 1.019793 0.663745
v 0.761376 0.766965 0.682526
v 0.765852 0.488096 0.685533
v 0.703705 0.937561 0.638795
v 0.681181 0.982608 0.646572
v 0.534302 1.301325 0.330386
v 0.707458 0.937248 0.394984
v 0.705096 0.928853 0.649336
v 0.680804 0.982972 0.657679
v 0.520527 1.359275 -0.370132
v 0.761513 0.767808 -0.339648
v 0.768026 0.495621 -0.341432
v 0.704792 0.944475 -0.307876
v 0.536463 1.323193 -0.354779
v 0.708410 0.937142 -0.317842
v 0.710878 0.929271 0.406492
v 0.530878 1.308243 0.339272
v 0.532801 1.331687 -0.366724
v 0.519940 1.341452 0.089570
v 0.761513 0.767808 0.146740
v 0.767362 0.490984 0.146119
v 0.710019 0.932011 0.154331
v 0.531547 1.316405 0.093495
v 0.706530 0.939764 0.150299
v 0.535054 1.308938 0.091862
v 0.743085 0.324082 0.763294
v 0.743504 0.324231 0.406492
v 0.744596 0.331861 -0.350699
v 0.743188 0.324119 0.675895
v 0.744533 0.331422 -0.307091
v 0.743862 0.326735 0.158074
v -0.703768 0.937433 0.750467
v -0.519626 1.331934 0.335070
v -0.761331 0.766692 0.772076
v -0.761513 0.767808 0.406492
v -0.765477 0.487963 0.776058
v -0.767008 0.488507 0.406492
v -0.520582 1.360946 -0.413228
v -0.761513 0.767808 -0.385246
v -0.768088 0.496056 -0.387138
v -0.716628 0.896979 0.757344
v -0.709105 0.937972 0.416942
v -0.708259 0.937623 -0.362107
v -0.708285 0.923226 0.752882
v -0.543913 1.280136 0.355284
v -0.532919 1.333120 -0.409868
v -0.665325 1.019793 0.663745
v -0.761376 0.766965 0.682526
v -0.765852 0.488096 0.685533
v -0.703705 0.937561 0.638795
v -0.681181 0.982608 0.646572
v -0.534302 1.301325 0.330386
v -0.707458 0.937248 0.394984
v -0.705096 0.928853 0.649336
v -0.680804 0.982972 0.657679
v -0.520527 1.359275 -0.370132
v -0.761513 0.767808 -0.339648
v -0.768026 0.495621 -0.341432
v -0.704792 0.944475 -0.307876
v -0.536463 1.323193 -0.354779
v -0.708410 0.937142 -0.317842
v -0.710878 0.929271 0.406492
v -0.530878 1.308243 0.339272
v -0.532801 1.331687 -0.366724
v -0.519940 1.341452 0.089570
v -0.761513 0.767808 0.146740
v -0.767362 0.490984 0.146119
v -0.710019 0.932011 0.154331
v -0.531547 1.316405 0.093495
v -0.706530 0.939764 0.150299
v -0.535054 1.308938 0.091862
v -0.743085 0.324082 0.763294
v -0.743504 0.324231 0.406492
v -0.744596 0.331861 -0.350699
v -0.743188 0.324119 0.675895
v -0.744533 0.331422 -0.307091
v -0.743862 0.326735 0.158074
vn 0.9287 0.3675 -0.0495
vn 0.9998 0.0204 0.0008
vn 0.9999 0.0155 0.0024
vn 0.9907 -0.1363 0.0025
vn 0.9899 -0.1416 -0.0000
vn 0.9041 0.4269 0.0172
vn 0.9542 0.2992 -0.0000
vn 0.9452 0.3264 -0.0019
vn 0.9044 0.4265 0.0086
vn 0.9264 0.3766 -0.0081
vn 0.8983 0.4388 0.0239
vn 0.9490 0.3150 0.0116
vn 0.9902 -0.1393 0.0025
vn 0.9998 0.0179 0.0024
vn 0.9143 0.4045 -0.0193
vn 0.9046 0.4191 -0.0776
vn 0.9836 0.1789 0.0240
vn 0.9039 0.4277 0.0111
vn 0.9054 0.4087 0.1151
vn 0.9135 0.4068 0.0086
vn 0.9130 0.4075 0.0165
vn 0.9997 0.0240 0.0008
vn 0.9152 0.4030 0.0010
vn 0.9014 0.4324 0.0226
vn 0.9081 0.4184 0.0163
vn 0.9126 0.4084 0.0198
vn 0.9054 0.4242 0.0165
vn 0.9048 0.4258 0.0012
vn 0.9100 0.4146 0.0084
vn 0.9096 0.4151 0.0168
vn 0.9997 0.0225 0.0008
vn -0.9287 0.3675 -0.0495
vn -0.9998 0.0204 0.0008
vn -0.9999 0.0155 0.0024
vn -0.9907 -0.1363 0.0025
vn -0.9899 -0.1416 -0.0000
vn -0.9041 0.4269 0.0172
vn -0.9542 0.2992 -0.0000
vn -0.9452 0.3264 -0.0019
vn -0.9044 0.4265 0.0086
vn -0.9264 0.3766 -0.0081
vn -0.8983 0.4388 0.0239
vn -0.9490 0.3150 0.0116
vn -0.9902 -0.1393 0.0025
vn -0.9998 0.0179 0.0024
vn -0.9143 0.4045 -0.0193
vn -0.9046 0.4191 -0.0776
vn -0.9836 0.1789 0.0240
vn -0.9039 0.4277 0.0111
vn -0.9054 0.4087 0.1151
vn -0.9135 0.4068 0.0086
vn -0.9130 0.4075 0.0165
vn -0.9997 0.0240 0.0008
vn -0.9152 0.4030 0.0010
vn -0.9014 0.4324 0.0226
vn -0.9081 0.4184 0.0163
vn -0.9126 0.4084 0.0198
vn -0.9054 0.4242 0.0165
vn -0.9048 0.4258 0.0012
vn -0.9100 0.4146 0.0084
vn -0.9096 0.4151 0.0168
vn -0.9997 0.0225 0.0008
vt 0.605984 0.664391
vt 0.625000 0.665271
vt 0.625000 0.670352
vt 0.614573 0.670352
vt 0.431183 0.627422
vt 0.491071 0.628057
vt 0.491071 0.646016
vt 0.431183 0.646016
vt 0.431183 0.665196
vt 0.491071 0.664816
vt 0.491071 0.670916
vt 0.431184 0.671418
vt 0.390390 0.664611
vt 0.390390 0.670644
vt 0.390390 0.627422
vt 0.390390 0.646016
vt 0.619052 0.627498
vt 0.625000 0.627422
vt 0.625000 0.646016
vt 0.619273 0.646016
vt 0.527654 0.628581
vt 0.527654 0.646016
vt 0.583016 0.663132
vt 0.595308 0.670352
vt 0.529469 0.628025
vt 0.617223 0.626949
vt 0.617413 0.644132
vt 0.529483 0.644250
vt 0.531034 0.646793
vt 0.615250 0.646794
vt 0.602867 0.663603
vt 0.581817 0.662431
vt 0.527654 0.592875
vt 0.618601 0.589573
vt 0.618640 0.592824
vt 0.527654 0.595936
vt 0.491071 0.591276
vt 0.491071 0.594428
vt 0.625000 0.589341
vt 0.625000 0.592605
vt 0.390390 0.589341
vt 0.431183 0.589341
vt 0.431183 0.592605
vt 0.390390 0.592605
vt 0.616866 0.594773
vt 0.529443 0.597642
s 0
usemtl Body
f 24/1/1 16/2/1 1/3/1 13/4/1
f 36/5/2 35/6/2 4/7/2 6/8/2
f 18/9/3 17/10/3 3/11/3 5/12/3
f 44/13/4 18/9/4 5/12/4 41/14/4
f 46/15/5 36/5/5 6/8/5 42/16/5
f 38/17/6 34/18/6 2/19/6 32/20/6
f 35/6/7 37/21/7 31/22/7 4/7/7
f 17/10/8 23/23/8 10/24/8 3/11/8
f 23/23/10 24/1/10 13/4/10 10/24/10
f 4/7/12 31/22/12 23/23/12 17/10/12
f 42/16/13 6/8/13 18/9/13 44/13/13
f 6/8/14 4/7/14 17/10/14 18/9/14
f 32/20/15 2/19/15 16/2/15 24/1/15
f 12/33/20 15/34/20 33/35/20 30/36/20
f 8/37/7 12/33/7 30/36/7 26/38/7
f 15/34/21 7/39/21 25/40/21 33/35/21
f 43/41/5 9/42/5 27/43/5 45/44/5
f 9/42/22 8/37/22 26/38/22 27/43/22
f 26/38/7 30/36/7 37/21/7 35/6/7
f 33/35/30 25/40/30 34/18/30 38/17/30
f 45/44/5 27/43/5 36/5/5 46/15/5
f 27/43/31 26/38/31 35/6/31 36/5/31
f 70/1/32 59/4/32 47/3/32 62/2/32
f 82/5/33 52/8/33 50/7/33 81/6/33
f 64/9/34 51/12/34 49/11/34 63/10/34
f 90/13/35 87/14/35 51/12/35 64/9/35
f 92/15/36 88/16/36 52/8/36 82/5/36
f 84/17/37 78/20/37 48/19/37 80/18/37
f 81/6/38 50/7/38 77/22/38 83/21/38
f 63/10/39 49/11/39 56/24/39 69/23/39
f 69/23/41 56/24/41 59/4/41 70/1/41
f 50/7/43 63/10/43 69/23/43 77/22/43
f 88/16/44 90/13/44 64/9/44 52/8/44
f 52/8/45 64/9/45 63/10/45 50/7/45
f 78/20/46 70/1/46 62/2/46 48/19/46
f 58/33/51 76/36/51 79/35/51 61/34/51
f 54/37/38 72/38/38 76/36/38 58/33/38
f 61/34/52 79/35/52 71/40/52 53/39/52
f 89/41/36 91/44/36 73/43/36 55/42/36
f 55/42/53 73/43/53 72/38/53 54/37/53
f 72/38/38 81/6/38 83/21/38 76/36/38
f 79/35/61 84/17/61 80/18/61 71/40/61
f 91/44/36 92/15/36 82/5/36 73/43/36
f 73/43/62 82/5/62 81/6/62 72/38/62
usemtl Rubber
f 14/30/16 11/29/16 31/22/16 32/20/16
f 11/29/17 19/32/17 23/23/17 31/22/17
f 20/31/18 14/30/18 32/20/18 24/1/18
f 19/32/19 20/31/19 24/1/19 23/23/19
f 39/25/23 22/28/23 31/22/23 37/21/23
f 22/28/24 21/27/24 32/20/24 31/22/24
f 40/26/25 29/45/25 33/35/25 38/17/25
f 29/45/26 28/46/26 30/36/26 33/35/26
f 21/27/27 40/26/27 38/17/27 32/20/27
f 28/46/28 39/25/28 37/21/28 30/36/28
f 60/30/47 78/20/47 77/22/47 57/29/47
f 57/29/48 77/22/48 69/23/48 65/32/48
f 66/31/49 70/1/49 78/20/49 60/30/49
f 65/32/50 69/23/50 70/1/50 66/31/50
f 85/25/54 83/21/54 77/22/54 68/28/54
f 68/28/55 77/22/55 78/20/55 67/27/55
f 86/26/56 84/17/56 79/35/56 75/45/56
f 75/45/57 79/35/57 76/36/57 74/46/57
f 67/27/58 78/20/58 84/17/58 86/26/58
f 74/46/59 76/36/59 83/21/59 85/25/59
usemtl Glass
f 39/25/9 40/26/9 21/27/9 22/28/9
f 11/29/11 14/30/11 20/31/11 19/32/11
f 28/46/29 29/45/29 40/26/29 39/25/29
f 85/25/40 68/28/40 67/27/40 86/26/40
f 57/29/42 65/32/42 66/31/42 60/30/42
f 74/46/60 85/25/60 86/26/60 75/45/60
