{
	"asset":{
		"generator":"Khronos glTF Blender I/O v4.2.57",
		"version":"2.0"
	},
	"scene":0,
	"scenes":[
		{
			"name":"Scene",
			"nodes":[
				0
			]
		}
	],
	"nodes":[
		{
			"mesh":0,
			"name":"Wheel_FL.001"
		}
	],
	"materials":[
		{
			"doubleSided":true,
			"name":"Wheel",
			"pbrMetallicRoughness":{
				"baseColorFactor":[
					0,
					0,
					0,
					1
				],
				"metallicFactor":0,
				"roughnessFactor":0.8318182229995728
			}
		},
		{
			"doubleSided":true,
			"name":"Hubcap",
			"pbrMetallicRoughness":{
				"baseColorFactor":[
					0.2655525803565979,
					0.2126481533050537,
					0.21978890895843506,
					1
				],
				"metallicFactor":0.48181816935539246,
				"roughnessFactor":0.3590909242630005
			}
		}
	],
	"meshes":[
		{
			"name":"Cylinder.009",
			"primitives":[
				{
					"attributes":{
						"POSITION":0,
						"NORMAL":1,
						"TEXCOORD_0":2
					},
					"indices":3,
					"material":0
				},
				{
					"attributes":{
						"POSITION":4,
						"NORMAL":5,
						"TEXCOORD_0":6
					},
					"indices":7,
					"material":1
				}
			]
		}
	],
	"accessors":[
		{
			"bufferView":0,
			"componentType":5126,
			"count":384,
			"max":[
				0.08911336213350296,
				0.2895300090312958,
				0.2895301878452301
			],
			"min":[
				-0.08911319077014923,
				-0.2895304560661316,
				-0.2895302474498749
			],
			"type":"VEC3"
		},
		{
			"bufferView":1,
			"componentType":5126,
			"count":384,
			"type":"VEC3"
		},
		{
			"bufferView":2,
			"componentType":5126,
			"count":384,
			"type":"VEC2"
		},
		{
			"bufferView":3,
			"componentType":5123,
			"count":864,
			"type":"SCALAR"
		},
		{
			"bufferView":4,
			"componentType":5126,
			"count":940,
			"max":[
				0.08911335468292236,
				0.21453280746936798,
				0.2145329713821411
			],
			"min":[
				-0.08911318331956863,
				-0.214533269405365,
				-0.21453304588794708
			],
			"type":"VEC3"
		},
		{
			"bufferView":5,
			"componentType":5126,
			"count":940,
			"type":"VEC3"
		},
		{
			"bufferView":6,
			"componentType":5126,
			"count":940,
			"type":"VEC2"
		},
		{
			"bufferView":7,
			"componentType":5123,
			"count":1764,
			"type":"SCALAR"
		}
	],
	"bufferViews":[
		{
			"buffer":0,
			"byteLength":4608,
			"byteOffset":0,
			"target":34962
		},
		{
			"buffer":0,
			"byteLength":4608,
			"byteOffset":4608,
			"target":34962
		},
		{
			"buffer":0,
			"byteLength":3072,
			"byteOffset":9216,
			"target":34962
		},
		{
			"buffer":0,
			"byteLength":1728,
			"byteOffset":12288,
			"target":34963
		},
		{
			"buffer":0,
			"byteLength":11280,
			"byteOffset":14016,
			"target":34962
		},
		{
			"buffer":0,
			"byteLength":11280,
			"byteOffset":25296,
			"target":34962
		},
		{
			"buffer":0,
			"byteLength":7520,
			"byteOffset":36576,
			"target":34962
		},
		{
			"buffer":0,
			"byteLength":3528,
			"byteOffset":44096,
			"target":34963
		}
	],
	"buffers":[
		{
			"byteLength":47624,
			"uri":"cricket_mk2_wheel_left.bin"
		}
	]
}
