{
	"asset":{
		"generator":"Khronos glTF Blender I/O v4.2.57",
		"version":"2.0"
	},
	"scene":0,
	"scenes":[
		{
			"name":"Scene",
			"nodes":[
				0,
				1,
				2,
				3,
				4,
				5,
				6,
				7,
				8,
				9
			]
		}
	],
	"nodes":[
		{
			"mesh":0,
			"name":"Roof"
		},
		{
			"mesh":1,
			"name":"Windscreen"
		},
		{
			"mesh":2,
			"name":"Front Block"
		},
		{
			"mesh":3,
			"name":"Floor"
		},
		{
			"mesh":4,
			"name":"Rear Window"
		},
		{
			"mesh":5,
			"name":"Boot.001"
		},
		{
			"mesh":6,
			"name":"Rear Left Side"
		},
		{
			"mesh":7,
			"name":"Front Left Door"
		},
		{
			"mesh":8,
			"name":"Rear Right Side"
		},
		{
			"mesh":9,
			"name":"Front Left Door.001"
		}
	],
	"meshes":[
		{
			"name":"Cube.009",
			"primitives":[
				{
					"attributes":{
						"POSITION":0,
						"NORMAL":1,
						"TEXCOORD_0":2
					},
					"indices":3
				}
			]
		},
		{
			"name":"Cube.011",
			"primitives":[
				{
					"attributes":{
						"POSITION":4,
						"NORMAL":5,
						"TEXCOORD_0":6
					},
					"indices":7
				}
			]
		},
		{
			"name":"Cube.012",
			"primitives":[
				{
					"attributes":{
						"POSITION":8,
						"NORMAL":9,
						"TEXCOORD_0":10
					},
					"indices":11
				}
			]
		},
		{
			"name":"Cube.014",
			"primitives":[
				{
					"attributes":{
						"POSITION":12,
						"NORMAL":13,
						"TEXCOORD_0":14
					},
					"indices":15
				}
			]
		},
		{
			"name":"Cube.015",
			"primitives":[
				{
					"attributes":{
						"POSITION":16,
						"NORMAL":17,
						"TEXCOORD_0":18
					},
					"indices":19
				}
			]
		},
		{
			"name":"Cube.016",
			"primitives":[
				{
					"attributes":{
						"POSITION":20,
						"NORMAL":21,
						"TEXCOORD_0":22
					},
					"indices":23
				}
			]
		},
		{
			"name":"Cube.017",
			"primitives":[
				{
					"attributes":{
						"POSITION":24,
						"NORMAL":25,
						"TEXCOORD_0":26
					},
					"indices":27
				}
			]
		},
		{
			"name":"Cube.018",
			"primitives":[
				{
					"attributes":{
						"POSITION":28,
						"NORMAL":29,
						"TEXCOORD_0":30
					},
					"indices":31
				}
			]
		},
		{
			"name":"Cube.019",
			"primitives":[
				{
					"attributes":{
						"POSITION":32,
						"NORMAL":33,
						"TEXCOORD_0":34
					},
					"indices":35
				}
			]
		},
		{
			"name":"Cube.021",
			"primitives":[
				{
					"attributes":{
						"POSITION":36,
						"NORMAL":37,
						"TEXCOORD_0":38
					},
					"indices":39
				}
			]
		}
	],
	"accessors":[
		{
			"bufferView":0,
			"componentType":5126,
			"count":56,
			"max":[
				0.5404167771339417,
				1.4211636781692505,
				0.4026193916797638
			],
			"min":[
				-0.5404167771339417,
				1.2843059301376343,
				-1.1875231266021729
			],
			"type":"VEC3"
		},
		{
			"bufferView":1,
			"componentType":5126,
			"count":56,
			"type":"VEC3"
		},
		{
			"bufferView":2,
			"componentType":5126,
			"count":56,
			"type":"VEC2"
		},
		{
			"bufferView":3,
			"componentType":5123,
			"count":84,
			"type":"SCALAR"
		},
		{
			"bufferView":4,
			"componentType":5126,
			"count":44,
			"max":[
				0.7087618112564087,
				1.3856362104415894,
				0.9221839904785156
			],
			"min":[
				-0.7087618112564087,
				0.8940489888191223,
				0.3349376320838928
			],
			"type":"VEC3"
		},
		{
			"bufferView":5,
			"componentType":5126,
			"count":44,
			"type":"VEC3"
		},
		{
			"bufferView":6,
			"componentType":5126,
			"count":44,
			"type":"VEC2"
		},
		{
			"bufferView":7,
			"componentType":5123,
			"count":72,
			"type":"SCALAR"
		},
		{
			"bufferView":8,
			"componentType":5126,
			"count":124,
			"max":[
				0.7605443000793457,
				0.9580398797988892,
				1.9150291681289673
			],
			"min":[
				-0.7605443000793457,
				0.268850177526474,
				0.6699425578117371
			],
			"type":"VEC3"
		},
		{
			"bufferView":9,
			"componentType":5126,
			"count":124,
			"type":"VEC3"
		},
		{
			"bufferView":10,
			"componentType":5126,
			"count":124,
			"type":"VEC2"
		},
		{
			"bufferView":11,
			"componentType":5123,
			"count":186,
			"type":"SCALAR"
		},
		{
			"bufferView":12,
			"componentType":5126,
			"count":116,
			"max":[
				0.7462548017501831,
				0.3322247564792633,
				0.6745259761810303
			],
			"min":[
				-0.7462548017501831,
				0.268850177526474,
				-1.53965163230896
			],
			"type":"VEC3"
		},
		{
			"bufferView":13,
			"componentType":5126,
			"count":116,
			"type":"VEC3"
		},
		{
			"bufferView":14,
			"componentType":5126,
			"count":116,
			"type":"VEC2"
		},
		{
			"bufferView":15,
			"componentType":5123,
			"count":186,
			"type":"SCALAR"
		},
		{
			"bufferView":16,
			"componentType":5126,
			"count":40,
			"max":[
				0.6445210576057434,
				1.3626705408096313,
				-1.1752477884292603
			],
			"min":[
				-0.6445210576057434,
				0.8848914504051208,
				-1.688746452331543
			],
			"type":"VEC3"
		},
		{
			"bufferView":17,
			"componentType":5126,
			"count":40,
			"type":"VEC3"
		},
		{
			"bufferView":18,
			"componentType":5126,
			"count":40,
			"type":"VEC2"
		},
		{
			"bufferView":19,
			"componentType":5123,
			"count":66,
			"type":"SCALAR"
		},
		{
			"bufferView":20,
			"componentType":5126,
			"count":86,
			"max":[
				0.6873335838317871,
				0.8936248421669006,
				-1.4525631666183472
			],
			"min":[
				-0.6873335838317871,
				0.284419983625412,
				-1.7158344984054565
			],
			"type":"VEC3"
		},
		{
			"bufferView":21,
			"componentType":5126,
			"count":86,
			"type":"VEC3"
		},
		{
			"bufferView":22,
			"componentType":5126,
			"count":86,
			"type":"VEC2"
		},
		{
			"bufferView":23,
			"componentType":5123,
			"count":120,
			"type":"SCALAR"
		},
		{
			"bufferView":24,
			"componentType":5126,
			"count":56,
			"max":[
				0.7611009478569031,
				1.3318068981170654,
				-0.39153918623924255
			],
			"min":[
				0.490400493144989,
				0.32596108317375183,
				-1.6651655435562134
			],
			"type":"VEC3"
		},
		{
			"bufferView":25,
			"componentType":5126,
			"count":56,
			"type":"VEC3"
		},
		{
			"bufferView":26,
			"componentType":5126,
			"count":56,
			"type":"VEC2"
		},
		{
			"bufferView":27,
			"componentType":5123,
			"count":84,
			"type":"SCALAR"
		},
		{
			"bufferView":28,
			"componentType":5126,
			"count":60,
			"max":[
				0.7650977373123169,
				1.331995964050293,
				0.7660158276557922
			],
			"min":[
				0.4871397614479065,
				0.32596108317375183,
				-0.40257060527801514
			],
			"type":"VEC3"
		},
		{
			"bufferView":29,
			"componentType":5126,
			"count":60,
			"type":"VEC3"
		},
		{
			"bufferView":30,
			"componentType":5126,
			"count":60,
			"type":"VEC2"
		},
		{
			"bufferView":31,
			"componentType":5123,
			"count":78,
			"type":"SCALAR"
		},
		{
			"bufferView":32,
			"componentType":5126,
			"count":56,
			"max":[
				-0.490400493144989,
				1.3318068981170654,
				-0.39153918623924255
			],
			"min":[
				-0.7611009478569031,
				0.32596108317375183,
				-1.6651655435562134
			],
			"type":"VEC3"
		},
		{
			"bufferView":33,
			"componentType":5126,
			"count":56,
			"type":"VEC3"
		},
		{
			"bufferView":34,
			"componentType":5126,
			"count":56,
			"type":"VEC2"
		},
		{
			"bufferView":35,
			"componentType":5123,
			"count":84,
			"type":"SCALAR"
		},
		{
			"bufferView":36,
			"componentType":5126,
			"count":60,
			"max":[
				-0.4871397614479065,
				1.331995964050293,
				0.7660158276557922
			],
			"min":[
				-0.7650977373123169,
				0.32596108317375183,
				-0.40257060527801514
			],
			"type":"VEC3"
		},
		{
			"bufferView":37,
			"componentType":5126,
			"count":60,
			"type":"VEC3"
		},
		{
			"bufferView":38,
			"componentType":5126,
			"count":60,
			"type":"VEC2"
		},
		{
			"bufferView":39,
			"componentType":5123,
			"count":78,
			"type":"SCALAR"
		}
	],
	"bufferViews":[
		{
			"buffer":0,
			"byteLength":672,
			"byteOffset":0,
			"target":34962
		},
		{
			"buffer":0,
			"byteLength":672,
			"byteOffset":672,
			"target":34962
		},
		{
			"buffer":0,
			"byteLength":448,
			"byteOffset":1344,
			"target":34962
		},
		{
			"buffer":0,
			"byteLength":168,
			"byteOffset":1792,
			"target":34963
		},
		{
			"buffer":0,
			"byteLength":528,
			"byteOffset":1960,
			"target":34962
		},
		{
			"buffer":0,
			"byteLength":528,
			"byteOffset":2488,
			"target":34962
		},
		{
			"buffer":0,
			"byteLength":352,
			"byteOffset":3016,
			"target":34962
		},
		{
			"buffer":0,
			"byteLength":144,
			"byteOffset":3368,
			"target":34963
		},
		{
			"buffer":0,
			"byteLength":1488,
			"byteOffset":3512,
			"target":34962
		},
		{
			"buffer":0,
			"byteLength":1488,
			"byteOffset":5000,
			"target":34962
		},
		{
			"buffer":0,
			"byteLength":992,
			"byteOffset":6488,
			"target":34962
		},
		{
			"buffer":0,
			"byteLength":372,
			"byteOffset":7480,
			"target":34963
		},
		{
			"buffer":0,
			"byteLength":1392,
			"byteOffset":7852,
			"target":34962
		},
		{
			"buffer":0,
			"byteLength":1392,
			"byteOffset":9244,
			"target":34962
		},
		{
			"buffer":0,
			"byteLength":928,
			"byteOffset":10636,
			"target":34962
		},
		{
			"buffer":0,
			"byteLength":372,
			"byteOffset":11564,
			"target":34963
		},
		{
			"buffer":0,
			"byteLength":480,
			"byteOffset":11936,
			"target":34962
		},
		{
			"buffer":0,
			"byteLength":480,
			"byteOffset":12416,
			"target":34962
		},
		{
			"buffer":0,
			"byteLength":320,
			"byteOffset":12896,
			"target":34962
		},
		{
			"buffer":0,
			"byteLength":132,
			"byteOffset":13216,
			"target":34963
		},
		{
			"buffer":0,
			"byteLength":1032,
			"byteOffset":13348,
			"target":34962
		},
		{
			"buffer":0,
			"byteLength":1032,
			"byteOffset":14380,
			"target":34962
		},
		{
			"buffer":0,
			"byteLength":688,
			"byteOffset":15412,
			"target":34962
		},
		{
			"buffer":0,
			"byteLength":240,
			"byteOffset":16100,
			"target":34963
		},
		{
			"buffer":0,
			"byteLength":672,
			"byteOffset":16340,
			"target":34962
		},
		{
			"buffer":0,
			"byteLength":672,
			"byteOffset":17012,
			"target":34962
		},
		{
			"buffer":0,
			"byteLength":448,
			"byteOffset":17684,
			"target":34962
		},
		{
			"buffer":0,
			"byteLength":168,
			"byteOffset":18132,
			"target":34963
		},
		{
			"buffer":0,
			"byteLength":720,
			"byteOffset":18300,
			"target":34962
		},
		{
			"buffer":0,
			"byteLength":720,
			"byteOffset":19020,
			"target":34962
		},
		{
			"buffer":0,
			"byteLength":480,
			"byteOffset":19740,
			"target":34962
		},
		{
			"buffer":0,
			"byteLength":156,
			"byteOffset":20220,
			"target":34963
		},
		{
			"buffer":0,
			"byteLength":672,
			"byteOffset":20376,
			"target":34962
		},
		{
			"buffer":0,
			"byteLength":672,
			"byteOffset":21048,
			"target":34962
		},
		{
			"buffer":0,
			"byteLength":448,
			"byteOffset":21720,
			"target":34962
		},
		{
			"buffer":0,
			"byteLength":168,
			"byteOffset":22168,
			"target":34963
		},
		{
			"buffer":0,
			"byteLength":720,
			"byteOffset":22336,
			"target":34962
		},
		{
			"buffer":0,
			"byteLength":720,
			"byteOffset":23056,
			"target":34962
		},
		{
			"buffer":0,
			"byteLength":480,
			"byteOffset":23776,
			"target":34962
		},
		{
			"buffer":0,
			"byteLength":156,
			"byteOffset":24256,
			"target":34963
		}
	],
	"buffers":[
		{
			"byteLength":24412,
			"uri":"cricket_colliders.bin"
		}
	]
}
