{
	"asset":{
		"generator":"Khronos glTF Blender I/O v4.2.57",
		"version":"2.0"
	},
	"extensionsUsed":[
		"KHR_materials_clearcoat"
	],
	"scene":0,
	"scenes":[
		{
			"name":"Scene",
			"nodes":[
				0,
				1,
				2,
				3,
				4,
				5,
				6,
				7,
				8,
				9
			]
		}
	],
	"nodes":[
		{
			"mesh":0,
			"name":"Windscreen.001"
		},
		{
			"mesh":1,
			"name":"Roof.001"
		},
		{
			"mesh":2,
			"name":"Rear Window.001"
		},
		{
			"mesh":3,
			"name":"Rear Left Side.001"
		},
		{
			"mesh":4,
			"name":"Front Left Door.001"
		},
		{
			"mesh":5,
			"name":"Front Block.001"
		},
		{
			"mesh":6,
			"name":"Floor.001"
		},
		{
			"mesh":7,
			"name":"Boot.002"
		},
		{
			"mesh":8,
			"name":"Front Right Door.001"
		},
		{
			"mesh":9,
			"name":"Rear Right Side.001"
		}
	],
	"materials":[
		{
			"alphaMode":"BLEND",
			"doubleSided":true,
			"extensions":{
				"KHR_materials_clearcoat":{
					"clearcoatRoughnessFactor":0
				}
			},
			"name":"Glass.001",
			"pbrMetallicRoughness":{
				"baseColorFactor":[
					0,
					0,
					0,
					0.20000000298023224
				],
				"metallicFactor":0,
				"roughnessFactor":0
			}
		}
	],
	"meshes":[
		{
			"name":"Cube.027",
			"primitives":[
				{
					"attributes":{
						"POSITION":0,
						"NORMAL":1,
						"TEXCOORD_0":2
					},
					"indices":3,
					"material":0
				}
			]
		},
		{
			"name":"Cube.028",
			"primitives":[
				{
					"attributes":{
						"POSITION":4,
						"NORMAL":5,
						"TEXCOORD_0":6
					},
					"indices":7,
					"material":0
				}
			]
		},
		{
			"name":"Cube.024",
			"primitives":[
				{
					"attributes":{
						"POSITION":8,
						"NORMAL":9,
						"TEXCOORD_0":10
					},
					"indices":11,
					"material":0
				}
			]
		},
		{
			"name":"Cube.022",
			"primitives":[
				{
					"attributes":{
						"POSITION":12,
						"NORMAL":13,
						"TEXCOORD_0":14
					},
					"indices":15,
					"material":0
				}
			]
		},
		{
			"name":"Cube.020",
			"primitives":[
				{
					"attributes":{
						"POSITION":16,
						"NORMAL":17,
						"TEXCOORD_0":18
					},
					"indices":19,
					"material":0
				}
			]
		},
		{
			"name":"Cube.026",
			"primitives":[
				{
					"attributes":{
						"POSITION":20,
						"NORMAL":21,
						"TEXCOORD_0":22
					},
					"indices":23,
					"material":0
				}
			]
		},
		{
			"name":"Cube.025",
			"primitives":[
				{
					"attributes":{
						"POSITION":24,
						"NORMAL":25,
						"TEXCOORD_0":26
					},
					"indices":27,
					"material":0
				}
			]
		},
		{
			"name":"Cube.023",
			"primitives":[
				{
					"attributes":{
						"POSITION":28,
						"NORMAL":29,
						"TEXCOORD_0":30
					},
					"indices":31,
					"material":0
				}
			]
		},
		{
			"name":"Cube.003",
			"primitives":[
				{
					"attributes":{
						"POSITION":32,
						"NORMAL":33,
						"TEXCOORD_0":34
					},
					"indices":35,
					"material":0
				}
			]
		},
		{
			"name":"Cube.008",
			"primitives":[
				{
					"attributes":{
						"POSITION":36,
						"NORMAL":37,
						"TEXCOORD_0":38
					},
					"indices":39,
					"material":0
				}
			]
		}
	],
	"accessors":[
		{
			"bufferView":0,
			"componentType":5126,
			"count":48,
			"max":[
				1.0622023344039917,
				1.7927660942077637,
				1.5447956323623657
			],
			"min":[
				-1.0622023344039917,
				0.8940489888191223,
				0.3408067524433136
			],
			"type":"VEC3"
		},
		{
			"bufferView":1,
			"componentType":5126,
			"count":48,
			"type":"VEC3"
		},
		{
			"bufferView":2,
			"componentType":5126,
			"count":48,
			"type":"VEC2"
		},
		{
			"bufferView":3,
			"componentType":5123,
			"count":72,
			"type":"SCALAR"
		},
		{
			"bufferView":4,
			"componentType":5126,
			"count":56,
			"max":[
				0.9826598763465881,
				1.792695164680481,
				0.699012041091919
			],
			"min":[
				-0.9826598763465881,
				1.1843059062957764,
				-1.6901018619537354
			],
			"type":"VEC3"
		},
		{
			"bufferView":5,
			"componentType":5126,
			"count":56,
			"type":"VEC3"
		},
		{
			"bufferView":6,
			"componentType":5126,
			"count":56,
			"type":"VEC2"
		},
		{
			"bufferView":7,
			"componentType":5123,
			"count":84,
			"type":"SCALAR"
		},
		{
			"bufferView":8,
			"componentType":5126,
			"count":38,
			"max":[
				0.9194192886352539,
				1.7537842988967896,
				-1.087523102760315
			],
			"min":[
				-0.9194192886352539,
				0.8848914504051208,
				-2.163027048110962
			],
			"type":"VEC3"
		},
		{
			"bufferView":9,
			"componentType":5126,
			"count":38,
			"type":"VEC3"
		},
		{
			"bufferView":10,
			"componentType":5126,
			"count":38,
			"type":"VEC2"
		},
		{
			"bufferView":11,
			"componentType":5123,
			"count":60,
			"type":"SCALAR"
		},
		{
			"bufferView":12,
			"componentType":5126,
			"count":56,
			"max":[
				1.1490485668182373,
				1.7709064483642578,
				-0.39153918623924255
			],
			"min":[
				0.3904004991054535,
				-0.22500154376029968,
				-2.1696910858154297
			],
			"type":"VEC3"
		},
		{
			"bufferView":13,
			"componentType":5126,
			"count":56,
			"type":"VEC3"
		},
		{
			"bufferView":14,
			"componentType":5126,
			"count":56,
			"type":"VEC2"
		},
		{
			"bufferView":15,
			"componentType":5123,
			"count":84,
			"type":"SCALAR"
		},
		{
			"bufferView":16,
			"componentType":5126,
			"count":60,
			"max":[
				1.1389570236206055,
				1.5258920192718506,
				0.7660158276557922
			],
			"min":[
				0.38713976740837097,
				0.04754626750946045,
				-0.40257060527801514
			],
			"type":"VEC3"
		},
		{
			"bufferView":17,
			"componentType":5126,
			"count":60,
			"type":"VEC3"
		},
		{
			"bufferView":18,
			"componentType":5126,
			"count":60,
			"type":"VEC2"
		},
		{
			"bufferView":19,
			"componentType":5123,
			"count":78,
			"type":"SCALAR"
		},
		{
			"bufferView":20,
			"componentType":5126,
			"count":128,
			"max":[
				0.9768129587173462,
				1.231482982635498,
				1.9150291681289673
			],
			"min":[
				-0.9768129587173462,
				0.017779678106307983,
				0.6699425578117371
			],
			"type":"VEC3"
		},
		{
			"bufferView":21,
			"componentType":5126,
			"count":128,
			"type":"VEC3"
		},
		{
			"bufferView":22,
			"componentType":5126,
			"count":128,
			"type":"VEC2"
		},
		{
			"bufferView":23,
			"componentType":5123,
			"count":186,
			"type":"SCALAR"
		},
		{
			"bufferView":24,
			"componentType":5126,
			"count":126,
			"max":[
				1.1335121393203735,
				0.35761263966560364,
				2.0822789669036865
			],
			"min":[
				-1.1335121393203735,
				-0.219053253531456,
				-2.0121254920959473
			],
			"type":"VEC3"
		},
		{
			"bufferView":25,
			"componentType":5126,
			"count":126,
			"type":"VEC3"
		},
		{
			"bufferView":26,
			"componentType":5126,
			"count":126,
			"type":"VEC2"
		},
		{
			"bufferView":27,
			"componentType":5123,
			"count":186,
			"type":"SCALAR"
		},
		{
			"bufferView":28,
			"componentType":5126,
			"count":90,
			"max":[
				1.1373157501220703,
				1.0452616214752197,
				-1.2525631189346313
			],
			"min":[
				-1.1373157501220703,
				-0.20502445101737976,
				-2.143043041229248
			],
			"type":"VEC3"
		},
		{
			"bufferView":29,
			"componentType":5126,
			"count":90,
			"type":"VEC3"
		},
		{
			"bufferView":30,
			"componentType":5126,
			"count":90,
			"type":"VEC2"
		},
		{
			"bufferView":31,
			"componentType":5123,
			"count":120,
			"type":"SCALAR"
		},
		{
			"bufferView":32,
			"componentType":5126,
			"count":60,
			"max":[
				-0.38713976740837097,
				1.5258920192718506,
				0.7660158276557922
			],
			"min":[
				-1.1389570236206055,
				0.04754626750946045,
				-0.40257060527801514
			],
			"type":"VEC3"
		},
		{
			"bufferView":33,
			"componentType":5126,
			"count":60,
			"type":"VEC3"
		},
		{
			"bufferView":34,
			"componentType":5126,
			"count":60,
			"type":"VEC2"
		},
		{
			"bufferView":35,
			"componentType":5123,
			"count":78,
			"type":"SCALAR"
		},
		{
			"bufferView":36,
			"componentType":5126,
			"count":56,
			"max":[
				-0.3904004991054535,
				1.7709064483642578,
				-0.39153918623924255
			],
			"min":[
				-1.1490485668182373,
				-0.22500154376029968,
				-2.1696910858154297
			],
			"type":"VEC3"
		},
		{
			"bufferView":37,
			"componentType":5126,
			"count":56,
			"type":"VEC3"
		},
		{
			"bufferView":38,
			"componentType":5126,
			"count":56,
			"type":"VEC2"
		},
		{
			"bufferView":39,
			"componentType":5123,
			"count":84,
			"type":"SCALAR"
		}
	],
	"bufferViews":[
		{
			"buffer":0,
			"byteLength":576,
			"byteOffset":0,
			"target":34962
		},
		{
			"buffer":0,
			"byteLength":576,
			"byteOffset":576,
			"target":34962
		},
		{
			"buffer":0,
			"byteLength":384,
			"byteOffset":1152,
			"target":34962
		},
		{
			"buffer":0,
			"byteLength":144,
			"byteOffset":1536,
			"target":34963
		},
		{
			"buffer":0,
			"byteLength":672,
			"byteOffset":1680,
			"target":34962
		},
		{
			"buffer":0,
			"byteLength":672,
			"byteOffset":2352,
			"target":34962
		},
		{
			"buffer":0,
			"byteLength":448,
			"byteOffset":3024,
			"target":34962
		},
		{
			"buffer":0,
			"byteLength":168,
			"byteOffset":3472,
			"target":34963
		},
		{
			"buffer":0,
			"byteLength":456,
			"byteOffset":3640,
			"target":34962
		},
		{
			"buffer":0,
			"byteLength":456,
			"byteOffset":4096,
			"target":34962
		},
		{
			"buffer":0,
			"byteLength":304,
			"byteOffset":4552,
			"target":34962
		},
		{
			"buffer":0,
			"byteLength":120,
			"byteOffset":4856,
			"target":34963
		},
		{
			"buffer":0,
			"byteLength":672,
			"byteOffset":4976,
			"target":34962
		},
		{
			"buffer":0,
			"byteLength":672,
			"byteOffset":5648,
			"target":34962
		},
		{
			"buffer":0,
			"byteLength":448,
			"byteOffset":6320,
			"target":34962
		},
		{
			"buffer":0,
			"byteLength":168,
			"byteOffset":6768,
			"target":34963
		},
		{
			"buffer":0,
			"byteLength":720,
			"byteOffset":6936,
			"target":34962
		},
		{
			"buffer":0,
			"byteLength":720,
			"byteOffset":7656,
			"target":34962
		},
		{
			"buffer":0,
			"byteLength":480,
			"byteOffset":8376,
			"target":34962
		},
		{
			"buffer":0,
			"byteLength":156,
			"byteOffset":8856,
			"target":34963
		},
		{
			"buffer":0,
			"byteLength":1536,
			"byteOffset":9012,
			"target":34962
		},
		{
			"buffer":0,
			"byteLength":1536,
			"byteOffset":10548,
			"target":34962
		},
		{
			"buffer":0,
			"byteLength":1024,
			"byteOffset":12084,
			"target":34962
		},
		{
			"buffer":0,
			"byteLength":372,
			"byteOffset":13108,
			"target":34963
		},
		{
			"buffer":0,
			"byteLength":1512,
			"byteOffset":13480,
			"target":34962
		},
		{
			"buffer":0,
			"byteLength":1512,
			"byteOffset":14992,
			"target":34962
		},
		{
			"buffer":0,
			"byteLength":1008,
			"byteOffset":16504,
			"target":34962
		},
		{
			"buffer":0,
			"byteLength":372,
			"byteOffset":17512,
			"target":34963
		},
		{
			"buffer":0,
			"byteLength":1080,
			"byteOffset":17884,
			"target":34962
		},
		{
			"buffer":0,
			"byteLength":1080,
			"byteOffset":18964,
			"target":34962
		},
		{
			"buffer":0,
			"byteLength":720,
			"byteOffset":20044,
			"target":34962
		},
		{
			"buffer":0,
			"byteLength":240,
			"byteOffset":20764,
			"target":34963
		},
		{
			"buffer":0,
			"byteLength":720,
			"byteOffset":21004,
			"target":34962
		},
		{
			"buffer":0,
			"byteLength":720,
			"byteOffset":21724,
			"target":34962
		},
		{
			"buffer":0,
			"byteLength":480,
			"byteOffset":22444,
			"target":34962
		},
		{
			"buffer":0,
			"byteLength":156,
			"byteOffset":22924,
			"target":34963
		},
		{
			"buffer":0,
			"byteLength":672,
			"byteOffset":23080,
			"target":34962
		},
		{
			"buffer":0,
			"byteLength":672,
			"byteOffset":23752,
			"target":34962
		},
		{
			"buffer":0,
			"byteLength":448,
			"byteOffset":24424,
			"target":34962
		},
		{
			"buffer":0,
			"byteLength":168,
			"byteOffset":24872,
			"target":34963
		}
	],
	"buffers":[
		{
			"byteLength":25040,
			"uri":"cricket_mk2_item_colliders.bin"
		}
	]
}
