{
	"asset":{
		"generator":"Khronos glTF Blender I/O v4.2.57",
		"version":"2.0"
	},
	"extensionsUsed":[
		"KHR_materials_clearcoat"
	],
	"scene":0,
	"scenes":[
		{
			"name":"Scene",
			"nodes":[
				0,
				1,
				2,
				3,
				4,
				5,
				6,
				7,
				8,
				9
			]
		}
	],
	"nodes":[
		{
			"mesh":0,
			"name":"Windscreen.001"
		},
		{
			"mesh":1,
			"name":"Roof.001"
		},
		{
			"mesh":2,
			"name":"Rear Window.001"
		},
		{
			"mesh":3,
			"name":"Rear Left Side.001"
		},
		{
			"mesh":4,
			"name":"Front Left Door.001"
		},
		{
			"mesh":5,
			"name":"Front Block.001"
		},
		{
			"mesh":6,
			"name":"Floor.001"
		},
		{
			"mesh":7,
			"name":"Boot.002"
		},
		{
			"mesh":8,
			"name":"Front Right Door.001"
		},
		{
			"mesh":9,
			"name":"Rear Right Side.001"
		}
	],
	"materials":[
		{
			"alphaMode":"BLEND",
			"doubleSided":true,
			"extensions":{
				"KHR_materials_clearcoat":{
					"clearcoatRoughnessFactor":0
				}
			},
			"name":"Glass.001",
			"pbrMetallicRoughness":{
				"baseColorFactor":[
					0,
					0,
					0,
					0.20000000298023224
				],
				"metallicFactor":0,
				"roughnessFactor":0
			}
		}
	],
	"meshes":[
		{
			"name":"Cube.027",
			"primitives":[
				{
					"attributes":{
						"POSITION":0,
						"NORMAL":1,
						"TEXCOORD_0":2
					},
					"indices":3,
					"material":0
				}
			]
		},
		{
			"name":"Cube.028",
			"primitives":[
				{
					"attributes":{
						"POSITION":4,
						"NORMAL":5,
						"TEXCOORD_0":6
					},
					"indices":7,
					"material":0
				}
			]
		},
		{
			"name":"Cube.024",
			"primitives":[
				{
					"attributes":{
						"POSITION":8,
						"NORMAL":9,
						"TEXCOORD_0":10
					},
					"indices":11,
					"material":0
				}
			]
		},
		{
			"name":"Cube.022",
			"primitives":[
				{
					"attributes":{
						"POSITION":12,
						"NORMAL":13,
						"TEXCOORD_0":14
					},
					"indices":15,
					"material":0
				}
			]
		},
		{
			"name":"Cube.020",
			"primitives":[
				{
					"attributes":{
						"POSITION":16,
						"NORMAL":17,
						"TEXCOORD_0":18
					},
					"indices":19,
					"material":0
				}
			]
		},
		{
			"name":"Cube.026",
			"primitives":[
				{
					"attributes":{
						"POSITION":20,
						"NORMAL":21,
						"TEXCOORD_0":22
					},
					"indices":23,
					"material":0
				}
			]
		},
		{
			"name":"Cube.025",
			"primitives":[
				{
					"attributes":{
						"POSITION":24,
						"NORMAL":25,
						"TEXCOORD_0":26
					},
					"indices":27,
					"material":0
				}
			]
		},
		{
			"name":"Cube.023",
			"primitives":[
				{
					"attributes":{
						"POSITION":28,
						"NORMAL":29,
						"TEXCOORD_0":30
					},
					"indices":31,
					"material":0
				}
			]
		},
		{
			"name":"Cube.029",
			"primitives":[
				{
					"attributes":{
						"POSITION":32,
						"NORMAL":33,
						"TEXCOORD_0":34
					},
					"indices":35,
					"material":0
				}
			]
		},
		{
			"name":"Cube.030",
			"primitives":[
				{
					"attributes":{
						"POSITION":36,
						"NORMAL":37,
						"TEXCOORD_0":38
					},
					"indices":39,
					"material":0
				}
			]
		}
	],
	"accessors":[
		{
			"bufferView":0,
			"componentType":5126,
			"count":44,
			"max":[
				0.7087618112564087,
				1.3856362104415894,
				0.9221839904785156
			],
			"min":[
				-0.7087618112564087,
				0.8940489888191223,
				0.3349376320838928
			],
			"type":"VEC3"
		},
		{
			"bufferView":1,
			"componentType":5126,
			"count":44,
			"type":"VEC3"
		},
		{
			"bufferView":2,
			"componentType":5126,
			"count":44,
			"type":"VEC2"
		},
		{
			"bufferView":3,
			"componentType":5123,
			"count":72,
			"type":"SCALAR"
		},
		{
			"bufferView":4,
			"componentType":5126,
			"count":56,
			"max":[
				0.6519028544425964,
				1.5565396547317505,
				0.4026193916797638
			],
			"min":[
				-0.6519028544425964,
				1.1843059062957764,
				-1.1875231266021729
			],
			"type":"VEC3"
		},
		{
			"bufferView":5,
			"componentType":5126,
			"count":56,
			"type":"VEC3"
		},
		{
			"bufferView":6,
			"componentType":5126,
			"count":56,
			"type":"VEC2"
		},
		{
			"bufferView":7,
			"componentType":5123,
			"count":84,
			"type":"SCALAR"
		},
		{
			"bufferView":8,
			"componentType":5126,
			"count":40,
			"max":[
				0.6445210576057434,
				1.3626705408096313,
				-1.087523102760315
			],
			"min":[
				-0.6445210576057434,
				0.8848914504051208,
				-1.861948013305664
			],
			"type":"VEC3"
		},
		{
			"bufferView":9,
			"componentType":5126,
			"count":40,
			"type":"VEC3"
		},
		{
			"bufferView":10,
			"componentType":5126,
			"count":40,
			"type":"VEC2"
		},
		{
			"bufferView":11,
			"componentType":5123,
			"count":66,
			"type":"SCALAR"
		},
		{
			"bufferView":12,
			"componentType":5126,
			"count":56,
			"max":[
				0.9054356217384338,
				1.3318068981170654,
				-0.39153918623924255
			],
			"min":[
				0.3904004991054535,
				0.32596108317375183,
				-1.6651655435562134
			],
			"type":"VEC3"
		},
		{
			"bufferView":13,
			"componentType":5126,
			"count":56,
			"type":"VEC3"
		},
		{
			"bufferView":14,
			"componentType":5126,
			"count":56,
			"type":"VEC2"
		},
		{
			"bufferView":15,
			"componentType":5123,
			"count":84,
			"type":"SCALAR"
		},
		{
			"bufferView":16,
			"componentType":5126,
			"count":60,
			"max":[
				0.9077733755111694,
				1.331995964050293,
				0.7660158276557922
			],
			"min":[
				0.38713976740837097,
				0.32596108317375183,
				-0.40257060527801514
			],
			"type":"VEC3"
		},
		{
			"bufferView":17,
			"componentType":5126,
			"count":60,
			"type":"VEC3"
		},
		{
			"bufferView":18,
			"componentType":5126,
			"count":60,
			"type":"VEC2"
		},
		{
			"bufferView":19,
			"componentType":5123,
			"count":78,
			"type":"SCALAR"
		},
		{
			"bufferView":20,
			"componentType":5126,
			"count":124,
			"max":[
				0.7605443000793457,
				0.9580398797988892,
				1.9150291681289673
			],
			"min":[
				-0.7605443000793457,
				0.268850177526474,
				0.6699425578117371
			],
			"type":"VEC3"
		},
		{
			"bufferView":21,
			"componentType":5126,
			"count":124,
			"type":"VEC3"
		},
		{
			"bufferView":22,
			"componentType":5126,
			"count":124,
			"type":"VEC2"
		},
		{
			"bufferView":23,
			"componentType":5123,
			"count":186,
			"type":"SCALAR"
		},
		{
			"bufferView":24,
			"componentType":5126,
			"count":122,
			"max":[
				0.7462548017501831,
				0.35761263966560364,
				0.7060151100158691
			],
			"min":[
				-0.7462548017501831,
				0.10162104666233063,
				-1.5945030450820923
			],
			"type":"VEC3"
		},
		{
			"bufferView":25,
			"componentType":5126,
			"count":122,
			"type":"VEC3"
		},
		{
			"bufferView":26,
			"componentType":5126,
			"count":122,
			"type":"VEC2"
		},
		{
			"bufferView":27,
			"componentType":5123,
			"count":186,
			"type":"SCALAR"
		},
		{
			"bufferView":28,
			"componentType":5126,
			"count":90,
			"max":[
				0.6873335838317871,
				0.8936248421669006,
				-1.2525631189346313
			],
			"min":[
				-0.6873335838317871,
				0.284419983625412,
				-1.8969440460205078
			],
			"type":"VEC3"
		},
		{
			"bufferView":29,
			"componentType":5126,
			"count":90,
			"type":"VEC3"
		},
		{
			"bufferView":30,
			"componentType":5126,
			"count":90,
			"type":"VEC2"
		},
		{
			"bufferView":31,
			"componentType":5123,
			"count":120,
			"type":"SCALAR"
		},
		{
			"bufferView":32,
			"componentType":5126,
			"count":60,
			"max":[
				-0.38713976740837097,
				1.331995964050293,
				0.7660158276557922
			],
			"min":[
				-0.9077733755111694,
				0.32596108317375183,
				-0.40257060527801514
			],
			"type":"VEC3"
		},
		{
			"bufferView":33,
			"componentType":5126,
			"count":60,
			"type":"VEC3"
		},
		{
			"bufferView":34,
			"componentType":5126,
			"count":60,
			"type":"VEC2"
		},
		{
			"bufferView":35,
			"componentType":5123,
			"count":78,
			"type":"SCALAR"
		},
		{
			"bufferView":36,
			"componentType":5126,
			"count":56,
			"max":[
				-0.3904004991054535,
				1.3318068981170654,
				-0.39153918623924255
			],
			"min":[
				-0.9054356217384338,
				0.32596108317375183,
				-1.6651655435562134
			],
			"type":"VEC3"
		},
		{
			"bufferView":37,
			"componentType":5126,
			"count":56,
			"type":"VEC3"
		},
		{
			"bufferView":38,
			"componentType":5126,
			"count":56,
			"type":"VEC2"
		},
		{
			"bufferView":39,
			"componentType":5123,
			"count":84,
			"type":"SCALAR"
		}
	],
	"bufferViews":[
		{
			"buffer":0,
			"byteLength":528,
			"byteOffset":0,
			"target":34962
		},
		{
			"buffer":0,
			"byteLength":528,
			"byteOffset":528,
			"target":34962
		},
		{
			"buffer":0,
			"byteLength":352,
			"byteOffset":1056,
			"target":34962
		},
		{
			"buffer":0,
			"byteLength":144,
			"byteOffset":1408,
			"target":34963
		},
		{
			"buffer":0,
			"byteLength":672,
			"byteOffset":1552,
			"target":34962
		},
		{
			"buffer":0,
			"byteLength":672,
			"byteOffset":2224,
			"target":34962
		},
		{
			"buffer":0,
			"byteLength":448,
			"byteOffset":2896,
			"target":34962
		},
		{
			"buffer":0,
			"byteLength":168,
			"byteOffset":3344,
			"target":34963
		},
		{
			"buffer":0,
			"byteLength":480,
			"byteOffset":3512,
			"target":34962
		},
		{
			"buffer":0,
			"byteLength":480,
			"byteOffset":3992,
			"target":34962
		},
		{
			"buffer":0,
			"byteLength":320,
			"byteOffset":4472,
			"target":34962
		},
		{
			"buffer":0,
			"byteLength":132,
			"byteOffset":4792,
			"target":34963
		},
		{
			"buffer":0,
			"byteLength":672,
			"byteOffset":4924,
			"target":34962
		},
		{
			"buffer":0,
			"byteLength":672,
			"byteOffset":5596,
			"target":34962
		},
		{
			"buffer":0,
			"byteLength":448,
			"byteOffset":6268,
			"target":34962
		},
		{
			"buffer":0,
			"byteLength":168,
			"byteOffset":6716,
			"target":34963
		},
		{
			"buffer":0,
			"byteLength":720,
			"byteOffset":6884,
			"target":34962
		},
		{
			"buffer":0,
			"byteLength":720,
			"byteOffset":7604,
			"target":34962
		},
		{
			"buffer":0,
			"byteLength":480,
			"byteOffset":8324,
			"target":34962
		},
		{
			"buffer":0,
			"byteLength":156,
			"byteOffset":8804,
			"target":34963
		},
		{
			"buffer":0,
			"byteLength":1488,
			"byteOffset":8960,
			"target":34962
		},
		{
			"buffer":0,
			"byteLength":1488,
			"byteOffset":10448,
			"target":34962
		},
		{
			"buffer":0,
			"byteLength":992,
			"byteOffset":11936,
			"target":34962
		},
		{
			"buffer":0,
			"byteLength":372,
			"byteOffset":12928,
			"target":34963
		},
		{
			"buffer":0,
			"byteLength":1464,
			"byteOffset":13300,
			"target":34962
		},
		{
			"buffer":0,
			"byteLength":1464,
			"byteOffset":14764,
			"target":34962
		},
		{
			"buffer":0,
			"byteLength":976,
			"byteOffset":16228,
			"target":34962
		},
		{
			"buffer":0,
			"byteLength":372,
			"byteOffset":17204,
			"target":34963
		},
		{
			"buffer":0,
			"byteLength":1080,
			"byteOffset":17576,
			"target":34962
		},
		{
			"buffer":0,
			"byteLength":1080,
			"byteOffset":18656,
			"target":34962
		},
		{
			"buffer":0,
			"byteLength":720,
			"byteOffset":19736,
			"target":34962
		},
		{
			"buffer":0,
			"byteLength":240,
			"byteOffset":20456,
			"target":34963
		},
		{
			"buffer":0,
			"byteLength":720,
			"byteOffset":20696,
			"target":34962
		},
		{
			"buffer":0,
			"byteLength":720,
			"byteOffset":21416,
			"target":34962
		},
		{
			"buffer":0,
			"byteLength":480,
			"byteOffset":22136,
			"target":34962
		},
		{
			"buffer":0,
			"byteLength":156,
			"byteOffset":22616,
			"target":34963
		},
		{
			"buffer":0,
			"byteLength":672,
			"byteOffset":22772,
			"target":34962
		},
		{
			"buffer":0,
			"byteLength":672,
			"byteOffset":23444,
			"target":34962
		},
		{
			"buffer":0,
			"byteLength":448,
			"byteOffset":24116,
			"target":34962
		},
		{
			"buffer":0,
			"byteLength":168,
			"byteOffset":24564,
			"target":34963
		}
	],
	"buffers":[
		{
			"byteLength":24732,
			"uri":"cricket_mk2_item_colliders.bin"
		}
	]
}
