# Blender 4.2.0
# www.blender.org
mtllib cricket_bonnet.mtl
o Bonnet
v 0.671694 0.815512 1.808786
v 0.000000 0.816655 1.844861
v 0.703768 0.937433 0.750467
v 0.000000 0.953682 0.927030
v 0.247479 0.816248 1.837787
v 0.564692 0.815728 1.821782
v 0.690282 0.886168 1.195464
v 0.000000 0.896066 1.312955
v 0.253226 0.895526 1.276863
v 0.577808 0.894834 1.227683
v 0.694024 0.900393 1.071985
v 0.000000 0.912053 1.205868
v 0.254384 0.911487 1.163934
v 0.580448 0.910761 1.108075
v 0.697485 0.913549 0.957788
v 0.000000 0.926839 1.106830
v 0.255454 0.926248 1.059492
v 0.582890 0.925490 0.997457
v 0.686649 0.872361 1.315319
v 0.000000 0.880547 1.416900
v 0.252103 0.880034 1.386478
v 0.575245 0.879375 1.343782
v 0.682938 0.858253 1.437781
v 0.000000 0.864691 1.523106
v 0.250956 0.864204 1.498478
v 0.572626 0.863580 1.462406
v 0.677292 0.836791 1.624079
v 0.000000 0.840570 1.684673
v 0.249210 0.840124 1.668860
v 0.568642 0.839551 1.642864
v 0.699945 0.922900 0.876617
v 0.000000 0.937349 1.036434
v 0.256214 0.936740 0.985256
v 0.584626 0.935959 0.918831
v 0.587323 0.952230 0.796634
v 0.257397 0.953046 0.869884
v 0.673194 0.833325 1.619307
v 0.668082 0.812142 1.801818
v 0.247389 0.812377 1.828810
v 0.000000 0.812816 1.835748
v 0.000000 0.836182 1.678441
v 0.586278 0.948914 0.785958
v 0.700169 0.934387 0.742142
v 0.564504 0.811790 1.813098
v 0.000000 0.950335 0.916238
v 0.256922 0.949727 0.859007
v 0.249110 0.835715 1.662770
v 0.568393 0.835095 1.637146
v 0.689608 0.897116 1.067390
v 0.685925 0.882855 1.190833
v 0.000000 0.907667 1.199635
v 0.000000 0.891679 1.306722
v 0.254168 0.907081 1.157841
v 0.253036 0.891119 1.270770
v 0.579794 0.906329 1.102334
v 0.577239 0.890396 1.221945
v 0.693019 0.910304 0.953224
v 0.000000 0.922454 1.100597
v 0.255216 0.921842 1.053399
v 0.582161 0.921065 0.991714
v 0.695434 0.919684 0.872082
v 0.000000 0.932964 1.030202
v 0.255956 0.932335 0.979163
v 0.583830 0.931541 0.913086
v 0.682356 0.869008 1.310651
v 0.000000 0.876160 1.410667
v 0.251938 0.875626 1.380387
v 0.574763 0.874931 1.338048
v 0.678722 0.854854 1.433070
v 0.000000 0.860303 1.516873
v 0.250819 0.859796 1.492387
v 0.572247 0.859130 1.456678
v -0.671694 0.815512 1.808786
v -0.703768 0.937433 0.750467
v -0.247479 0.816248 1.837787
v -0.564692 0.815728 1.821782
v -0.690282 0.886168 1.195464
v -0.253226 0.895526 1.276863
v -0.577808 0.894834 1.227683
v -0.694024 0.900393 1.071985
v -0.254384 0.911487 1.163934
v -0.580448 0.910761 1.108075
v -0.697485 0.913549 0.957788
v -0.255454 0.926248 1.059492
v -0.582890 0.925490 0.997457
v -0.686649 0.872361 1.315319
v -0.252103 0.880034 1.386478
v -0.575245 0.879375 1.343782
v -0.682938 0.858253 1.437781
v -0.250956 0.864204 1.498478
v -0.572626 0.863580 1.462406
v -0.677292 0.836791 1.624079
v -0.249210 0.840124 1.668860
v -0.568642 0.839551 1.642864
v -0.699945 0.922900 0.876617
v -0.256214 0.936740 0.985256
v -0.584626 0.935959 0.918831
v -0.587323 0.952230 0.796634
v -0.257397 0.953046 0.869884
v -0.673194 0.833325 1.619307
v -0.668082 0.812142 1.801818
v -0.247389 0.812377 1.828810
v -0.586278 0.948914 0.785958
v -0.700169 0.934387 0.742142
v -0.564504 0.811790 1.813098
v -0.256922 0.949727 0.859007
v -0.249110 0.835715 1.662770
v -0.568393 0.835095 1.637146
v -0.689608 0.897116 1.067390
v -0.685925 0.882855 1.190833
v -0.254168 0.907081 1.157841
v -0.253036 0.891119 1.270770
v -0.579794 0.906329 1.102334
v -0.577239 0.890396 1.221945
v -0.693019 0.910304 0.953224
v -0.255216 0.921842 1.053399
v -0.582161 0.921065 0.991714
v -0.695434 0.919684 0.872082
v -0.255956 0.932335 0.979163
v -0.583830 0.931541 0.913086
v -0.682356 0.869008 1.310651
v -0.251938 0.875626 1.380387
v -0.574763 0.874931 1.338048
v -0.678722 0.854854 1.433070
v -0.250819 0.859796 1.492387
v -0.572247 0.859130 1.456678
vn 0.0083 0.9896 0.1437
vn 0.0107 0.9906 0.1360
vn 0.0319 0.9918 0.1239
vn 0.1208 0.9847 0.1253
vn 0.0241 0.9904 0.1362
vn 0.0243 0.9893 0.1438
vn 0.0274 0.9892 0.1438
vn 0.0268 0.9903 0.1362
vn 0.1377 0.9825 0.1255
vn 0.1513 0.9805 0.1256
vn 0.0290 0.9902 0.1363
vn 0.0300 0.9892 0.1438
vn 0.1030 0.9868 0.1251
vn 0.0214 0.9905 0.1362
vn 0.0210 0.9894 0.1438
vn 0.0849 0.9885 0.1248
vn 0.0186 0.9905 0.1361
vn 0.0177 0.9895 0.1438
vn 0.0613 0.9903 0.1244
vn 0.0150 0.9906 0.1361
vn 0.0135 0.9895 0.1438
vn 0.0327 0.9891 0.1438
vn 0.0313 0.9902 0.1363
vn 0.1655 0.9782 0.1257
vn -0.0083 -0.9897 -0.1430
vn -0.0107 -0.9907 -0.1353
vn -0.0240 -0.9920 -0.1237
vn -0.1135 -0.9856 -0.1254
vn -0.0241 -0.9904 -0.1362
vn -0.0243 -0.9893 -0.1438
vn -0.0274 -0.9892 -0.1438
vn -0.0268 -0.9903 -0.1363
vn -0.1308 -0.9834 -0.1255
vn -0.1447 -0.9815 -0.1257
vn -0.0290 -0.9902 -0.1363
vn -0.0300 -0.9892 -0.1438
vn -0.0953 -0.9875 -0.1251
vn -0.0214 -0.9905 -0.1362
vn -0.0210 -0.9894 -0.1438
vn -0.0769 -0.9892 -0.1249
vn -0.0186 -0.9905 -0.1361
vn -0.0177 -0.9895 -0.1438
vn -0.0528 -0.9908 -0.1245
vn -0.0150 -0.9906 -0.1361
vn -0.0135 -0.9895 -0.1438
vn -0.0334 -0.9886 -0.1469
vn -0.0320 -0.9897 -0.1396
vn -0.1621 -0.9786 -0.1266
vn -0.0030 0.9485 -0.3169
vn -0.0619 0.9551 -0.2897
vn -0.0627 0.9543 -0.2922
vn 0.6698 -0.7399 -0.0621
vn 0.6288 -0.7744 -0.0705
vn 0.6361 -0.7685 -0.0695
vn 0.6443 -0.7617 -0.0685
vn 0.6534 -0.7540 -0.0674
vn 0.6638 -0.7449 -0.0661
vn 0.6779 -0.7323 -0.0642
vn 0.7119 -0.6997 -0.0601
vn 0.0482 -0.9095 0.4129
vn 0.0186 -0.9145 0.4041
vn 0.0095 -0.9199 0.3920
vn -0.0083 0.9896 0.1437
vn -0.0107 0.9906 0.1360
vn -0.0319 0.9918 0.1239
vn -0.1208 0.9847 0.1253
vn -0.0241 0.9904 0.1362
vn -0.0243 0.9893 0.1438
vn -0.0274 0.9892 0.1438
vn -0.0268 0.9903 0.1362
vn -0.1377 0.9825 0.1255
vn -0.1513 0.9805 0.1256
vn -0.0290 0.9902 0.1363
vn -0.0300 0.9892 0.1438
vn -0.1030 0.9868 0.1251
vn -0.0214 0.9905 0.1362
vn -0.0210 0.9894 0.1438
vn -0.0849 0.9885 0.1248
vn -0.0186 0.9905 0.1361
vn -0.0177 0.9895 0.1438
vn -0.0613 0.9903 0.1244
vn -0.0150 0.9906 0.1361
vn -0.0135 0.9895 0.1438
vn -0.0327 0.9891 0.1438
vn -0.0313 0.9902 0.1363
vn -0.1655 0.9782 0.1257
vn 0.0083 -0.9897 -0.1430
vn 0.0107 -0.9907 -0.1353
vn 0.0240 -0.9920 -0.1237
vn 0.1135 -0.9856 -0.1254
vn 0.0241 -0.9904 -0.1362
vn 0.0243 -0.9893 -0.1438
vn 0.0274 -0.9892 -0.1438
vn 0.0268 -0.9903 -0.1363
vn 0.1308 -0.9834 -0.1255
vn 0.1447 -0.9815 -0.1257
vn 0.0290 -0.9902 -0.1363
vn 0.0300 -0.9892 -0.1438
vn 0.0953 -0.9875 -0.1251
vn 0.0214 -0.9905 -0.1362
vn 0.0210 -0.9894 -0.1438
vn 0.0769 -0.9892 -0.1249
vn 0.0186 -0.9905 -0.1361
vn 0.0177 -0.9895 -0.1438
vn 0.0528 -0.9908 -0.1245
vn 0.0150 -0.9906 -0.1361
vn 0.0135 -0.9895 -0.1438
vn 0.0334 -0.9886 -0.1469
vn 0.0320 -0.9897 -0.1396
vn 0.1621 -0.9786 -0.1266
vn 0.0030 0.9485 -0.3169
vn 0.0619 0.9551 -0.2897
vn 0.0627 0.9543 -0.2922
vn -0.6698 -0.7399 -0.0621
vn -0.6288 -0.7744 -0.0705
vn -0.6361 -0.7685 -0.0695
vn -0.6443 -0.7617 -0.0685
vn -0.6534 -0.7540 -0.0674
vn -0.6638 -0.7449 -0.0661
vn -0.6779 -0.7323 -0.0642
vn -0.7119 -0.6997 -0.0601
vn -0.0482 -0.9095 0.4129
vn -0.0186 -0.9145 0.4041
vn -0.0095 -0.9199 0.3920
vt 0.704282 0.735953
vt 0.750000 0.735953
vt 0.750000 0.749823
vt 0.704282 0.749823
vt 0.645683 0.735953
vt 0.645682 0.749823
vt 0.625001 0.735953
vt 0.625000 0.749823
vt 0.625000 0.694495
vt 0.645682 0.694495
vt 0.645682 0.703767
vt 0.625000 0.703767
vt 0.704282 0.694495
vt 0.704282 0.703767
vt 0.750000 0.694495
vt 0.750000 0.703767
vt 0.704282 0.685920
vt 0.750000 0.685920
vt 0.645682 0.685920
vt 0.625000 0.685920
vt 0.625000 0.679824
vt 0.645682 0.679824
vt 0.704282 0.679825
vt 0.750000 0.679824
vt 0.645682 0.712767
vt 0.625000 0.712767
vt 0.704282 0.712767
vt 0.750000 0.712767
vt 0.645682 0.721963
vt 0.625000 0.721963
vt 0.704282 0.721963
vt 0.750000 0.721963
vt 0.704282 0.670352
vt 0.750000 0.670352
vt 0.645682 0.670352
vt 0.625000 0.670352
s 0
usemtl Body
f 29/1/1 28/2/1 2/3/1 5/4/1
f 30/5/2 29/1/2 5/4/2 6/6/2
f 27/7/3 30/5/3 6/6/3 1/8/3
f 11/9/4 14/10/4 10/11/4 7/12/4
f 14/10/5 13/13/5 9/14/5 10/11/5
f 13/13/6 12/15/6 8/16/6 9/14/6
f 17/17/7 16/18/7 12/15/7 13/13/7
f 18/19/8 17/17/8 13/13/8 14/10/8
f 15/20/9 18/19/9 14/10/9 11/9/9
f 31/21/10 34/22/10 18/19/10 15/20/10
f 34/22/11 33/23/11 17/17/11 18/19/11
f 33/23/12 32/24/12 16/18/12 17/17/12
f 7/12/13 10/11/13 22/25/13 19/26/13
f 10/11/14 9/14/14 21/27/14 22/25/14
f 9/14/15 8/16/15 20/28/15 21/27/15
f 19/26/16 22/25/16 26/29/16 23/30/16
f 22/25/17 21/27/17 25/31/17 26/29/17
f 21/27/18 20/28/18 24/32/18 25/31/18
f 23/30/19 26/29/19 30/5/19 27/7/19
f 26/29/20 25/31/20 29/1/20 30/5/20
f 25/31/21 24/32/21 28/2/21 29/1/21
f 36/33/22 4/34/22 32/24/22 33/23/22
f 35/35/23 36/33/23 33/23/23 34/22/23
f 3/36/24 35/35/24 34/22/24 31/21/24
f 47/1/25 39/4/25 40/3/25 41/2/25
f 48/5/26 44/6/26 39/4/26 47/1/26
f 37/7/27 38/8/27 44/6/27 48/5/27
f 49/9/28 50/12/28 56/11/28 55/10/28
f 55/10/29 56/11/29 54/14/29 53/13/29
f 53/13/30 54/14/30 52/16/30 51/15/30
f 59/17/31 53/13/31 51/15/31 58/18/31
f 60/19/32 55/10/32 53/13/32 59/17/32
f 57/20/33 49/9/33 55/10/33 60/19/33
f 61/21/34 57/20/34 60/19/34 64/22/34
f 64/22/35 60/19/35 59/17/35 63/23/35
f 63/23/36 59/17/36 58/18/36 62/24/36
f 50/12/37 65/26/37 68/25/37 56/11/37
f 56/11/38 68/25/38 67/27/38 54/14/38
f 54/14/39 67/27/39 66/28/39 52/16/39
f 65/26/40 69/30/40 72/29/40 68/25/40
f 68/25/41 72/29/41 71/31/41 67/27/41
f 67/27/42 71/31/42 70/32/42 66/28/42
f 69/30/43 37/7/43 48/5/43 72/29/43
f 72/29/44 48/5/44 47/1/44 71/31/44
f 71/31/45 47/1/45 41/2/45 70/32/45
f 46/33/46 63/23/46 62/24/46 45/34/46
f 42/35/47 64/22/47 63/23/47 46/33/47
f 43/36/48 61/21/48 64/22/48 42/35/48
f 3/36/49 43/36/49 42/35/49 35/35/49
f 35/35/50 42/35/50 46/33/50 36/33/50
f 36/33/51 46/33/51 45/34/51 4/34/51
f 31/21/52 61/21/52 43/36/52 3/36/52
f 15/20/53 57/20/53 61/21/53 31/21/53
f 11/9/54 49/9/54 57/20/54 15/20/54
f 7/12/55 50/12/55 49/9/55 11/9/55
f 19/26/56 65/26/56 50/12/56 7/12/56
f 23/30/57 69/30/57 65/26/57 19/26/57
f 27/7/58 37/7/58 69/30/58 23/30/58
f 1/8/59 38/8/59 37/7/59 27/7/59
f 6/6/60 44/6/60 38/8/60 1/8/60
f 5/4/61 39/4/61 44/6/61 6/6/61
f 2/3/62 40/3/62 39/4/62 5/4/62
f 93/1/63 75/4/63 2/3/63 28/2/63
f 94/5/64 76/6/64 75/4/64 93/1/64
f 92/7/65 73/8/65 76/6/65 94/5/65
f 80/9/66 77/12/66 79/11/66 82/10/66
f 82/10/67 79/11/67 78/14/67 81/13/67
f 81/13/68 78/14/68 8/16/68 12/15/68
f 84/17/69 81/13/69 12/15/69 16/18/69
f 85/19/70 82/10/70 81/13/70 84/17/70
f 83/20/71 80/9/71 82/10/71 85/19/71
f 95/21/72 83/20/72 85/19/72 97/22/72
f 97/22/73 85/19/73 84/17/73 96/23/73
f 96/23/74 84/17/74 16/18/74 32/24/74
f 77/12/75 86/26/75 88/25/75 79/11/75
f 79/11/76 88/25/76 87/27/76 78/14/76
f 78/14/77 87/27/77 20/28/77 8/16/77
f 86/26/78 89/30/78 91/29/78 88/25/78
f 88/25/79 91/29/79 90/31/79 87/27/79
f 87/27/80 90/31/80 24/32/80 20/28/80
f 89/30/81 92/7/81 94/5/81 91/29/81
f 91/29/82 94/5/82 93/1/82 90/31/82
f 90/31/83 93/1/83 28/2/83 24/32/83
f 99/33/84 96/23/84 32/24/84 4/34/84
f 98/35/85 97/22/85 96/23/85 99/33/85
f 74/36/86 95/21/86 97/22/86 98/35/86
f 107/1/87 41/2/87 40/3/87 102/4/87
f 108/5/88 107/1/88 102/4/88 105/6/88
f 100/7/89 108/5/89 105/6/89 101/8/89
f 109/9/90 113/10/90 114/11/90 110/12/90
f 113/10/91 111/13/91 112/14/91 114/11/91
f 111/13/92 51/15/92 52/16/92 112/14/92
f 116/17/93 58/18/93 51/15/93 111/13/93
f 117/19/94 116/17/94 111/13/94 113/10/94
f 115/20/95 117/19/95 113/10/95 109/9/95
f 118/21/96 120/22/96 117/19/96 115/20/96
f 120/22/97 119/23/97 116/17/97 117/19/97
f 119/23/98 62/24/98 58/18/98 116/17/98
f 110/12/99 114/11/99 123/25/99 121/26/99
f 114/11/100 112/14/100 122/27/100 123/25/100
f 112/14/101 52/16/101 66/28/101 122/27/101
f 121/26/102 123/25/102 126/29/102 124/30/102
f 123/25/103 122/27/103 125/31/103 126/29/103
f 122/27/104 66/28/104 70/32/104 125/31/104
f 124/30/105 126/29/105 108/5/105 100/7/105
f 126/29/106 125/31/106 107/1/106 108/5/106
f 125/31/107 70/32/107 41/2/107 107/1/107
f 106/33/108 45/34/108 62/24/108 119/23/108
f 103/35/109 106/33/109 119/23/109 120/22/109
f 104/36/110 103/35/110 120/22/110 118/21/110
f 74/36/111 98/35/111 103/35/111 104/36/111
f 98/35/112 99/33/112 106/33/112 103/35/112
f 99/33/113 4/34/113 45/34/113 106/33/113
f 95/21/114 74/36/114 104/36/114 118/21/114
f 83/20/115 95/21/115 118/21/115 115/20/115
f 80/9/116 83/20/116 115/20/116 109/9/116
f 77/12/117 80/9/117 109/9/117 110/12/117
f 86/26/118 77/12/118 110/12/118 121/26/118
f 89/30/119 86/26/119 121/26/119 124/30/119
f 92/7/120 89/30/120 124/30/120 100/7/120
f 73/8/121 92/7/121 100/7/121 101/8/121
f 76/6/122 73/8/122 101/8/122 105/6/122
f 75/4/123 76/6/123 105/6/123 102/4/123
f 2/3/124 75/4/124 102/4/124 40/3/124
