# Blender 4.2.0
# www.blender.org
mtllib cricket_brakelight_R.mtl
o Brakelight_R
v -0.473846 0.564121 -1.595323
v -0.475529 0.682796 -1.622648
v -0.478437 0.552753 -1.644413
v -0.480120 0.671428 -1.671738
v -0.534494 0.553145 -1.639261
v -0.536177 0.671819 -1.666586
v -0.529903 0.564512 -1.590171
v -0.531586 0.683187 -1.617496
v -0.585960 0.564904 -1.585020
v -0.587643 0.683578 -1.612344
v -0.590551 0.553536 -1.634110
v -0.592234 0.672210 -1.661435
vn -0.0907 -0.2247 -0.9702
vn 0.9958 -0.0069 -0.0915
vn 0.0138 -0.9744 0.2244
vn 0.0907 0.2247 0.9702
vn -0.0138 0.9744 -0.2244
vn -0.9958 0.0069 0.0915
vt 0.375000 0.375000
vt 0.625000 0.375000
vt 0.625000 0.500000
vt 0.375000 0.500000
vt 0.625000 0.750000
vt 0.375000 0.750000
vt 0.250000 0.500000
vt 0.250000 0.750000
vt 0.625000 0.875000
vt 0.375000 0.875000
vt 0.750000 0.500000
vt 0.750000 0.750000
s 0
usemtl Brakelight
f 5/1/1 6/2/1 4/3/1 3/4/1
f 3/4/2 4/3/2 2/5/2 1/6/2
f 5/7/3 3/4/3 1/6/3 7/8/3
f 1/6/4 2/5/4 8/9/4 7/10/4
f 4/3/5 6/11/5 8/12/5 2/5/5
f 5/1/1 11/4/1 12/3/1 6/2/1
f 11/4/6 9/6/6 10/5/6 12/3/6
f 5/7/3 7/8/3 9/6/3 11/4/3
f 9/6/4 7/10/4 8/9/4 10/5/4
f 12/3/5 10/5/5 8/12/5 6/11/5
