# Blender 4.2.0
# www.blender.org
mtllib cricket_boot.mtl
o Boot
v 0.520582 1.330092 -1.175922
v 0.000000 1.361776 -1.175922
v 0.685009 0.767808 -1.673285
v 0.000000 0.766640 -1.705425
v 0.650747 0.489317 -1.600372
v 0.000000 0.490439 -1.663840
v 0.646152 0.891716 -1.652347
v 0.000000 0.896497 -1.684487
v 0.192821 1.358126 -1.175922
v 0.250536 0.767067 -1.693670
v 0.238005 0.490029 -1.640627
v 0.236367 0.906856 -1.659552
v 0.439975 1.342244 -1.175922
v 0.571668 0.767615 -1.678603
v 0.543075 0.489503 -1.610873
v 0.518748 0.904761 -1.645463
v 0.534663 1.280934 -1.229346
v 0.000000 1.309602 -1.232950
v 0.197699 1.301805 -1.231632
v 0.435863 1.280295 -1.243273
v 0.236324 0.894748 -1.672732
v 0.539240 0.892507 -1.657665
v 0.451106 1.291812 -1.229942
v 0.196817 1.289718 -1.244837
v 0.000000 1.297370 -1.246320
v 0.000000 0.908643 -1.671210
v 0.439286 1.338827 -1.165407
v 0.516708 1.327271 -1.167461
v 0.642122 0.890453 -1.641057
v 0.680522 0.767644 -1.662215
v 0.000000 0.895565 -1.669703
v 0.000000 0.766646 -1.690358
v 0.571493 0.767664 -1.663537
v 0.647581 0.489882 -1.587253
v 0.000000 0.491099 -1.648917
v 0.542836 0.490144 -1.595945
v 0.539059 0.891564 -1.642889
v 0.000000 1.358457 -1.164996
v 0.192540 1.354776 -1.165103
v 0.250361 0.767089 -1.678603
v 0.237797 0.490678 -1.625700
v 0.236173 0.893815 -1.657949
v 0.530394 1.279164 -1.219241
v 0.196674 1.288132 -1.230607
v 0.236213 0.905270 -1.645322
v 0.450846 1.290228 -1.215719
v 0.000000 1.308048 -1.218685
v 0.197567 1.300252 -1.217367
v 0.518596 0.903180 -1.631230
v 0.000000 0.907056 -1.656983
v 0.435719 1.278713 -1.229039
v 0.000000 1.295782 -1.232092
v -0.520582 1.330092 -1.175922
v -0.685009 0.767808 -1.673285
v -0.650747 0.489317 -1.600372
v -0.646152 0.891716 -1.652347
v -0.192821 1.358126 -1.175922
v -0.250536 0.767067 -1.693670
v -0.238005 0.490029 -1.640627
v -0.236367 0.906856 -1.659552
v -0.439975 1.342244 -1.175922
v -0.571668 0.767615 -1.678603
v -0.543075 0.489503 -1.610873
v -0.518748 0.904761 -1.645463
v -0.534663 1.280934 -1.229346
v -0.197699 1.301805 -1.231632
v -0.435863 1.280295 -1.243273
v -0.236324 0.894748 -1.672732
v -0.539240 0.892507 -1.657665
v -0.451106 1.291812 -1.229942
v -0.196817 1.289718 -1.244837
v -0.439286 1.338827 -1.165407
v -0.516708 1.327271 -1.167461
v -0.642122 0.890453 -1.641057
v -0.680522 0.767644 -1.662215
v -0.571493 0.767664 -1.663537
v -0.647581 0.489882 -1.587253
v -0.542836 0.490144 -1.595945
v -0.539059 0.891564 -1.642889
v -0.192540 1.354776 -1.165103
v -0.250361 0.767089 -1.678603
v -0.237797 0.490678 -1.625700
v -0.236173 0.893815 -1.657949
v -0.530394 1.279164 -1.219241
v -0.196674 1.288132 -1.230607
v -0.236213 0.905270 -1.645322
v -0.450846 1.290228 -1.215719
v -0.197567 1.300252 -1.217367
v -0.518596 0.903180 -1.631230
v -0.435719 1.278713 -1.229039
vn 0.1064 0.7416 -0.6624
vn 0.0691 -0.2517 -0.9653
vn 0.0479 0.1791 -0.9827
vn 0.0480 0.1629 -0.9855
vn 0.0704 -0.1697 -0.9830
vn 0.0235 0.7208 -0.6927
vn 0.0480 0.1720 -0.9839
vn 0.0697 -0.2170 -0.9737
vn 0.0395 0.7191 -0.6938
vn 0.0366 0.7351 -0.6770
vn 0.0390 0.7365 -0.6753
vn 0.0661 0.7395 -0.6699
vn 0.0336 0.7367 -0.6753
vn 0.0391 0.7364 -0.6754
vn 0.0366 0.7342 -0.6779
vn 0.0335 0.7365 -0.6756
vn 0.0365 0.7367 -0.6753
vn -0.0817 -0.7336 0.6747
vn -0.0449 0.2531 0.9664
vn -0.0156 -0.1714 0.9851
vn -0.0481 -0.1619 0.9856
vn -0.0704 0.1696 0.9830
vn -0.0231 -0.7109 0.7029
vn -0.0480 -0.1711 0.9841
vn -0.0697 0.2170 0.9737
vn -0.0387 -0.7078 0.7053
vn -0.0366 -0.7351 0.6770
vn -0.0388 -0.7407 0.6707
vn -0.0429 -0.7376 0.6739
vn -0.0337 -0.7367 0.6753
vn -0.0389 -0.7406 0.6708
vn -0.0337 -0.7340 0.6783
vn -0.0335 -0.7365 0.6756
vn -0.0366 -0.7367 0.6753
vn 0.0378 0.9931 0.1109
vn -0.0384 -0.9931 -0.1109
vn -0.9825 -0.1840 -0.0307
vn 0.0018 0.9939 0.1106
vn -0.0020 -0.9938 -0.1108
vn 0.0183 0.9558 0.2934
vn 0.0614 0.9506 0.3043
vn 0.1438 0.9293 0.3401
vn 0.9192 -0.1370 0.3693
vn 0.9319 -0.1084 0.3461
vn 0.9063 0.2225 0.3594
vn 0.9527 -0.0348 0.3020
vn -0.0059 -0.9991 0.0423
vn -0.0059 -0.9991 0.0431
vn -0.0060 -0.9990 0.0438
vn -0.1064 0.7416 -0.6624
vn -0.0691 -0.2517 -0.9653
vn -0.0479 0.1791 -0.9827
vn -0.0480 0.1629 -0.9855
vn -0.0704 -0.1697 -0.9830
vn -0.0235 0.7208 -0.6927
vn -0.0480 0.1720 -0.9839
vn -0.0697 -0.2170 -0.9737
vn -0.0395 0.7191 -0.6938
vn -0.0366 0.7351 -0.6770
vn -0.0390 0.7365 -0.6753
vn -0.0661 0.7395 -0.6699
vn -0.0336 0.7367 -0.6753
vn -0.0391 0.7364 -0.6754
vn -0.0366 0.7342 -0.6779
vn -0.0335 0.7365 -0.6756
vn -0.0365 0.7367 -0.6753
vn 0.0817 -0.7336 0.6747
vn 0.0449 0.2531 0.9664
vn 0.0156 -0.1714 0.9851
vn 0.0481 -0.1619 0.9856
vn 0.0704 0.1696 0.9830
vn 0.0231 -0.7109 0.7029
vn 0.0480 -0.1711 0.9841
vn 0.0697 0.2170 0.9737
vn 0.0387 -0.7078 0.7053
vn 0.0366 -0.7351 0.6770
vn 0.0388 -0.7407 0.6707
vn 0.0429 -0.7376 0.6739
vn 0.0337 -0.7367 0.6753
vn 0.0389 -0.7406 0.6708
vn 0.0337 -0.7340 0.6783
vn 0.0335 -0.7365 0.6756
vn 0.0366 -0.7367 0.6753
vn -0.0378 0.9931 0.1109
vn 0.0384 -0.9931 -0.1109
vn 0.9825 -0.1840 -0.0307
vn -0.0018 0.9939 0.1106
vn 0.0020 -0.9938 -0.1108
vn -0.0183 0.9558 0.2934
vn -0.0615 0.9506 0.3043
vn -0.1438 0.9293 0.3401
vn -0.9192 -0.1370 0.3693
vn -0.9319 -0.1084 0.3461
vn -0.9063 0.2225 0.3594
vn -0.9527 -0.0348 0.3020
vn 0.0059 -0.9991 0.0423
vn 0.0059 -0.9991 0.0431
vn 0.0060 -0.9990 0.0438
vt 0.614084 0.479318
vt 0.625000 0.479318
vt 0.625000 0.500000
vt 0.614084 0.500000
vt 0.431184 0.479318
vt 0.491071 0.479318
vt 0.491071 0.500000
vt 0.431184 0.500000
vt 0.527654 0.479318
vt 0.527654 0.500000
vt 0.491071 0.375000
vt 0.527654 0.375000
vt 0.527654 0.420718
vt 0.491071 0.420718
vt 0.431184 0.375000
vt 0.431184 0.420718
vt 0.614084 0.375000
vt 0.625000 0.375000
vt 0.625000 0.420718
vt 0.614084 0.420718
vt 0.530228 0.420957
vt 0.611503 0.420261
vt 0.611456 0.475280
vt 0.530269 0.475810
vt 0.530195 0.375000
vt 0.611525 0.375000
vt 0.000000 0.000000
s 0
usemtl Body
f 23/1/1 13/2/1 1/3/1 17/4/1
f 15/5/2 14/6/2 3/7/2 5/8/2
f 14/6/3 22/9/3 7/10/3 3/7/3
f 4/11/4 8/12/4 21/13/4 10/14/4
f 6/15/5 4/11/5 10/14/5 11/16/5
f 18/17/6 2/18/6 9/19/6 19/20/6
f 10/14/7 21/13/7 22/9/7 14/6/7
f 11/16/8 10/14/8 14/6/8 15/5/8
f 19/20/9 9/19/9 13/2/9 23/1/9
f 22/9/12 23/1/12 17/4/12 7/10/12
f 46/1/18 43/4/18 28/3/18 27/2/18
f 36/5/19 34/8/19 30/7/19 33/6/19
f 33/6/20 30/7/20 29/10/20 37/9/20
f 32/11/21 40/14/21 42/13/21 31/12/21
f 35/15/22 41/16/22 40/14/22 32/11/22
f 47/17/23 48/20/23 39/19/23 38/18/23
f 40/14/24 33/6/24 37/9/24 42/13/24
f 41/16/25 36/5/25 33/6/25 40/14/25
f 48/20/26 46/1/26 27/2/26 39/19/26
f 37/9/29 29/10/29 43/4/29 46/1/29
f 9/19/40 2/18/40 38/18/40 39/19/40
f 13/2/41 9/19/41 39/19/41 27/2/41
f 1/3/42 13/2/42 27/2/42 28/3/42
f 17/4/43 1/3/43 28/3/43 43/4/43
f 7/10/44 17/4/44 43/4/44 29/10/44
f 3/7/45 7/10/45 29/10/45 30/7/45
f 5/8/46 3/7/46 30/7/46 34/8/46
f 5/8/47 34/8/47 36/5/47 15/5/47
f 15/5/48 36/5/48 41/16/48 11/16/48
f 11/16/49 41/16/49 35/15/49 6/15/49
f 70/1/50 65/4/50 53/3/50 61/2/50
f 63/5/51 55/8/51 54/7/51 62/6/51
f 62/6/52 54/7/52 56/10/52 69/9/52
f 4/11/53 58/14/53 68/13/53 8/12/53
f 6/15/54 59/16/54 58/14/54 4/11/54
f 18/17/55 66/20/55 57/19/55 2/18/55
f 58/14/56 62/6/56 69/9/56 68/13/56
f 59/16/57 63/5/57 62/6/57 58/14/57
f 66/20/58 70/1/58 61/2/58 57/19/58
f 69/9/61 56/10/61 65/4/61 70/1/61
f 87/1/67 72/2/67 73/3/67 84/4/67
f 78/5/68 76/6/68 75/7/68 77/8/68
f 76/6/69 79/9/69 74/10/69 75/7/69
f 32/11/70 31/12/70 83/13/70 81/14/70
f 35/15/71 32/11/71 81/14/71 82/16/71
f 47/17/72 38/18/72 80/19/72 88/20/72
f 81/14/73 83/13/73 79/9/73 76/6/73
f 82/16/74 81/14/74 76/6/74 78/5/74
f 88/20/75 80/19/75 72/2/75 87/1/75
f 79/9/78 87/1/78 84/4/78 74/10/78
f 57/19/89 80/19/89 38/18/89 2/18/89
f 61/2/90 72/2/90 80/19/90 57/19/90
f 53/3/91 73/3/91 72/2/91 61/2/91
f 65/4/92 84/4/92 73/3/92 53/3/92
f 56/10/93 74/10/93 84/4/93 65/4/93
f 54/7/94 75/7/94 74/10/94 56/10/94
f 55/8/95 77/8/95 75/7/95 54/7/95
f 55/8/96 63/5/96 78/5/96 77/8/96
f 63/5/97 59/16/97 82/16/97 78/5/97
f 59/16/98 6/15/98 35/15/98 82/16/98
usemtl Glass
f 12/21/10 24/22/10 20/23/10 16/24/10
f 25/26/17 24/22/17 12/21/17 26/25/17
f 45/21/27 49/24/27 51/23/27 44/22/27
f 52/26/34 50/25/34 45/21/34 44/22/34
f 60/21/59 64/24/59 67/23/59 71/22/59
f 25/26/66 26/25/66 60/21/66 71/22/66
f 86/21/76 85/22/76 90/23/76 89/24/76
f 52/26/83 85/22/83 86/21/83 50/25/83
usemtl Rubber
f 26/25/11 12/21/11 21/13/11 8/12/11
f 25/26/13 18/17/13 19/20/13 24/22/13
f 12/21/14 16/24/14 22/9/14 21/13/14
f 16/24/15 20/23/15 23/1/15 22/9/15
f 20/23/16 24/22/16 19/20/16 23/1/16
f 50/25/28 31/12/28 42/13/28 45/21/28
f 52/26/30 44/22/30 48/20/30 47/17/30
f 45/21/31 42/13/31 37/9/31 49/24/31
f 49/24/32 37/9/32 46/1/32 51/23/32
f 51/23/33 46/1/33 48/20/33 44/22/33
f 52/27/35 44/27/35 24/27/35 25/27/35
f 24/27/36 20/27/36 51/27/36 44/27/36
f 20/27/37 16/27/37 49/27/37 51/27/37
f 45/27/38 49/27/38 16/27/38 12/27/38
f 45/27/39 50/27/39 26/27/39 12/27/39
f 26/25/60 8/12/60 68/13/60 60/21/60
f 25/26/62 71/22/62 66/20/62 18/17/62
f 60/21/63 68/13/63 69/9/63 64/24/63
f 64/24/64 69/9/64 70/1/64 67/23/64
f 67/23/65 70/1/65 66/20/65 71/22/65
f 50/25/77 86/21/77 83/13/77 31/12/77
f 52/26/79 47/17/79 88/20/79 85/22/79
f 86/21/80 89/24/80 79/9/80 83/13/80
f 89/24/81 90/23/81 87/1/81 79/9/81
f 90/23/82 85/22/82 88/20/82 87/1/82
f 52/27/84 25/27/84 71/27/84 85/27/84
f 71/27/85 85/27/85 90/27/85 67/27/85
f 67/27/86 90/27/86 89/27/86 64/27/86
f 86/27/87 60/27/87 64/27/87 89/27/87
f 86/27/88 60/27/88 26/27/88 50/27/88
