{
	"asset":{
		"generator":"Khronos glTF Blender I/O v4.2.57",
		"version":"2.0"
	},
	"scene":0,
	"scenes":[
		{
			"name":"Scene",
			"nodes":[
				0
			]
		}
	],
	"nodes":[
		{
			"mesh":0,
			"name":"MeshInstance3D"
		}
	],
	"materials":[
		{
			"name":"Material_0.002",
			"pbrMetallicRoughness":{
				"baseColorFactor":[
					0.9999998807907104,
					0.9999998807907104,
					0.9999998807907104,
					1
				],
				"metallicFactor":0
			}
		}
	],
	"meshes":[
		{
			"name":"Mesh_0",
			"primitives":[
				{
					"attributes":{
						"POSITION":0,
						"NORMAL":1,
						"TEXCOORD_0":2
					},
					"indices":3,
					"material":0
				}
			]
		}
	],
	"accessors":[
		{
			"bufferView":0,
			"componentType":5126,
			"count":242053,
			"max":[
				508.0140380859375,
				68.9023208618164,
				508.0099792480469
			],
			"min":[
				-1024,
				-16.02828598022461,
				-1024
			],
			"type":"VEC3"
		},
		{
			"bufferView":1,
			"componentType":5126,
			"count":242053,
			"type":"VEC3"
		},
		{
			"bufferView":2,
			"componentType":5126,
			"count":242053,
			"type":"VEC2"
		},
		{
			"bufferView":3,
			"componentType":5125,
			"count":1376244,
			"type":"SCALAR"
		}
	],
	"bufferViews":[
		{
			"buffer":0,
			"byteLength":2904636,
			"byteOffset":0,
			"target":34962
		},
		{
			"buffer":0,
			"byteLength":2904636,
			"byteOffset":2904636,
			"target":34962
		},
		{
			"buffer":0,
			"byteLength":1936424,
			"byteOffset":5809272,
			"target":34962
		},
		{
			"buffer":0,
			"byteLength":5504976,
			"byteOffset":7745696,
			"target":34963
		}
	],
	"buffers":[
		{
			"byteLength":13250672,
			"uri":"terrain_mesh_solid.bin"
		}
	]
}
