{"accessors":[{"bufferView":0,"byteOffset":0,"componentType":5126,"count":114688,"max":[508,68.9023208618164,508],"min":[-1024,-0.00063334417064,-1024],"normalized":false,"type":"VEC3"},{"bufferView":1,"byteOffset":0,"componentType":5126,"count":114688,"max":[1,0.893954336643219,0.0319467075169086,1],"min":[0.448155909776688,-0.84627157449722,-0.04271534830332,1],"normalized":false,"type":"VEC4"},{"bufferView":2,"byteOffset":0,"componentType":5126,"count":114688,"max":[0.83980131149292,1,0.838546574115753],"min":[-0.89240777492523,0.409578323364258,-0.81457734107971],"normalized":false,"type":"VEC3"},{"bufferView":3,"byteOffset":0,"componentType":5126,"count":114688,"max":[508,508],"min":[-1024,-1024],"normalized":false,"type":"VEC2"},{"bufferView":4,"byteOffset":0,"componentType":5125,"count":683529,"max":[114687],"min":[0],"normalized":false,"type":"SCALAR"}],"asset":{"generator":"Godot Engine v4.3.stable.official@77dcf97d82cbfe4e4615475fa52ca03da645dbd8","version":"2.0"},"bufferViews":[{"buffer":0,"byteLength":1376256,"byteOffset":0,"byteStride":12,"target":34962},{"buffer":0,"byteLength":1835008,"byteOffset":1376256,"byteStride":16,"target":34962},{"buffer":0,"byteLength":1376256,"byteOffset":3211264,"byteStride":12,"target":34962},{"buffer":0,"byteLength":917504,"byteOffset":4587520,"byteStride":8,"target":34962},{"buffer":0,"byteLength":2734116,"byteOffset":5505024,"target":34963}],"buffers":[{"byteLength":8239140,"uri":"terrain_mesh0.bin"}],"extensionsUsed":["GODOT_single_root"],"materials":[{"extensions":{},"pbrMetallicRoughness":{"baseColorFactor":[0.99999988079071,0.99999988079071,0.99999988079071,1],"metallicFactor":0,"roughnessFactor":1}}],"meshes":[{"extras":{"targetNames":[]},"primitives":[{"attributes":{"NORMAL":2,"POSITION":0,"TANGENT":1,"TEXCOORD_0":3},"indices":4,"material":0,"mode":4}]}],"nodes":[{"mesh":0,"name":"MeshInstance3D"}],"scene":0,"scenes":[{"nodes":[0]}]}