{
	"asset":{
		"generator":"Khronos glTF Blender I/O v4.2.57",
		"version":"2.0"
	},
	"scene":0,
	"scenes":[
		{
			"name":"Scene",
			"nodes":[
				0
			]
		}
	],
	"nodes":[
		{
			"mesh":0,
			"name":"MeshInstance3D"
		}
	],
	"materials":[
		{
			"name":"Material_0"
		}
	],
	"meshes":[
		{
			"name":"Mesh_0.001",
			"primitives":[
				{
					"attributes":{
						"POSITION":0,
						"NORMAL":1,
						"TEXCOORD_0":2
					},
					"indices":3,
					"material":0
				}
			]
		}
	],
	"accessors":[
		{
			"bufferView":0,
			"componentType":5126,
			"count":243099,
			"max":[
				512.0367431640625,
				68.9023208618164,
				512.0218505859375
			],
			"min":[
				-1024,
				-42.035621643066406,
				-1024
			],
			"type":"VEC3"
		},
		{
			"bufferView":1,
			"componentType":5126,
			"count":243099,
			"type":"VEC3"
		},
		{
			"bufferView":2,
			"componentType":5126,
			"count":243099,
			"type":"VEC2"
		},
		{
			"bufferView":3,
			"componentType":5125,
			"count":1385472,
			"type":"SCALAR"
		}
	],
	"bufferViews":[
		{
			"buffer":0,
			"byteLength":2917188,
			"byteOffset":0,
			"target":34962
		},
		{
			"buffer":0,
			"byteLength":2917188,
			"byteOffset":2917188,
			"target":34962
		},
		{
			"buffer":0,
			"byteLength":1944792,
			"byteOffset":5834376,
			"target":34962
		},
		{
			"buffer":0,
			"byteLength":5541888,
			"byteOffset":7779168,
			"target":34963
		}
	],
	"buffers":[
		{
			"byteLength":13321056,
			"uri":"terrain_mesh_solid.bin"
		}
	]
}
