{"accessors":[{"bufferView":0,"byteOffset":0,"componentType":5126,"count":7168,"max":[496,64.8564453125,496],"min":[-1024,-0.00047626672313,-1024],"normalized":false,"type":"VEC3"},{"bufferView":1,"byteOffset":0,"componentType":5126,"count":7168,"max":[1,0.82082611322403,0.0354337282478809,1],"min":[0.571175873279572,-0.66818207502365,-0.02716966718435,1],"normalized":false,"type":"VEC4"},{"bufferView":2,"byteOffset":0,"componentType":5126,"count":7168,"max":[0.667535305023193,1,0.747262060642242],"min":[-0.80954676866531,0.55769020318985,-0.47011631727219],"normalized":false,"type":"VEC3"},{"bufferView":3,"byteOffset":0,"componentType":5126,"count":7168,"max":[496,496],"min":[-1024,-1024],"normalized":false,"type":"VEC2"},{"bufferView":4,"byteOffset":0,"componentType":5123,"count":41865,"max":[7167],"min":[0],"normalized":false,"type":"SCALAR"}],"asset":{"generator":"Godot Engine v4.3.stable.official@77dcf97d82cbfe4e4615475fa52ca03da645dbd8","version":"2.0"},"bufferViews":[{"buffer":0,"byteLength":86016,"byteOffset":0,"byteStride":12,"target":34962},{"buffer":0,"byteLength":114688,"byteOffset":86016,"byteStride":16,"target":34962},{"buffer":0,"byteLength":86016,"byteOffset":200704,"byteStride":12,"target":34962},{"buffer":0,"byteLength":57344,"byteOffset":286720,"byteStride":8,"target":34962},{"buffer":0,"byteLength":83730,"byteOffset":344064,"target":34963}],"buffers":[{"byteLength":427796,"uri":"terrain_mesh0.bin"}],"extensionsUsed":["GODOT_single_root"],"materials":[{"extensions":{},"pbrMetallicRoughness":{"baseColorFactor":[0.99999988079071,0.99999988079071,0.99999988079071,1],"metallicFactor":0,"roughnessFactor":1}}],"meshes":[{"extras":{"targetNames":[]},"primitives":[{"attributes":{"NORMAL":2,"POSITION":0,"TANGENT":1,"TEXCOORD_0":3},"indices":4,"material":0,"mode":4}]}],"nodes":[{"mesh":0,"name":"MeshInstance3D"}],"scene":0,"scenes":[{"nodes":[0]}]}