{"accessors":[{"bufferView":0,"byteOffset":0,"componentType":5126,"count":115457,"max":[512.0,68.9023208618164,512.0],"min":[-1024.0,-0.000633344170637429,-1024.0],"normalized":false,"type":"VEC3"},{"bufferView":1,"byteOffset":0,"componentType":5126,"count":115457,"max":[1.0,0.893954336643219,0.0540095195174217,1.0],"min":[0.448155909776688,-0.846271574497223,-0.042715348303318,1.0],"normalized":false,"type":"VEC4"},{"bufferView":2,"byteOffset":0,"componentType":5126,"count":115457,"max":[0.83980131149292,1.0,0.838546574115753],"min":[-0.892407774925232,0.409578323364258,-0.814577341079712],"normalized":false,"type":"VEC3"},{"bufferView":3,"byteOffset":0,"componentType":5126,"count":115457,"max":[512.0,512.0],"min":[-1024.0,-1024.0],"normalized":false,"type":"VEC2"},{"bufferView":4,"byteOffset":0,"componentType":5125,"count":688128,"max":[115456.0],"min":[0.0],"normalized":false,"type":"SCALAR"}],"asset":{"generator":"Godot Engine v4.4.stable.official@4c311cbee68c0b66ff8ebb8b0defdd9979dd2a41","version":"2.0"},"bufferViews":[{"buffer":0,"byteLength":1385484,"byteOffset":0,"byteStride":12,"target":34962},{"buffer":0,"byteLength":1847312,"byteOffset":1385484,"byteStride":16,"target":34962},{"buffer":0,"byteLength":1385484,"byteOffset":3232796,"byteStride":12,"target":34962},{"buffer":0,"byteLength":923656,"byteOffset":4618280,"byteStride":8,"target":34962},{"buffer":0,"byteLength":2752512,"byteOffset":5541936,"target":34963}],"buffers":[{"byteLength":8294448,"uri":"terrain_mesh0.bin"}],"extensionsUsed":["GODOT_single_root"],"materials":[{}],"meshes":[{"extras":{"targetNames":[]},"primitives":[{"attributes":{"NORMAL":2,"POSITION":0,"TANGENT":1,"TEXCOORD_0":3},"indices":4,"material":0,"mode":4}]}],"nodes":[{"mesh":0,"name":"MeshInstance3D"}],"scene":0,"scenes":[{"nodes":[0]}]}