{
	"asset":{
		"generator":"Khronos glTF Blender I/O v4.2.57",
		"version":"2.0"
	},
	"scene":0,
	"scenes":[
		{
			"name":"Scene",
			"nodes":[
				0
			]
		}
	],
	"nodes":[
		{
			"mesh":0,
			"name":"MeshInstance3D"
		}
	],
	"materials":[
		{
			"name":"Material_0",
			"pbrMetallicRoughness":{
				"baseColorFactor":[
					0.9999998807907104,
					0.9999998807907104,
					0.9999998807907104,
					1
				],
				"metallicFactor":0
			}
		}
	],
	"meshes":[
		{
			"name":"Mesh_0",
			"primitives":[
				{
					"attributes":{
						"POSITION":0,
						"NORMAL":1,
						"TEXCOORD_0":2
					},
					"indices":3,
					"material":0
				}
			]
		}
	],
	"accessors":[
		{
			"bufferView":0,
			"componentType":5126,
			"count":15166,
			"max":[
				496.0519104003906,
				64.8564453125,
				496.1109924316406
			],
			"min":[
				-1024,
				-214.62237548828125,
				-1024
			],
			"type":"VEC3"
		},
		{
			"bufferView":1,
			"componentType":5126,
			"count":15166,
			"type":"VEC3"
		},
		{
			"bufferView":2,
			"componentType":5126,
			"count":15166,
			"type":"VEC2"
		},
		{
			"bufferView":3,
			"componentType":5123,
			"count":86004,
			"type":"SCALAR"
		}
	],
	"bufferViews":[
		{
			"buffer":0,
			"byteLength":181992,
			"byteOffset":0,
			"target":34962
		},
		{
			"buffer":0,
			"byteLength":181992,
			"byteOffset":181992,
			"target":34962
		},
		{
			"buffer":0,
			"byteLength":121328,
			"byteOffset":363984,
			"target":34962
		},
		{
			"buffer":0,
			"byteLength":172008,
			"byteOffset":485312,
			"target":34963
		}
	],
	"buffers":[
		{
			"byteLength":657320,
			"uri":"terrain_mesh_solid.bin"
		}
	]
}
