{
	"asset":{
		"generator":"Khronos glTF Blender I/O v4.2.57",
		"version":"2.0"
	},
	"extensionsUsed":[
		"KHR_texture_transform"
	],
	"extensionsRequired":[
		"KHR_texture_transform"
	],
	"scene":0,
	"scenes":[
		{
			"name":"Scene",
			"nodes":[
				0
			]
		}
	],
	"nodes":[
		{
			"mesh":0,
			"name":"Cube",
			"translation":[
				0,
				4,
				0
			]
		}
	],
	"materials":[
		{
			"doubleSided":true,
			"name":"Brick",
			"pbrMetallicRoughness":{
				"baseColorTexture":{
					"extensions":{
						"KHR_texture_transform":{
							"offset":[
								0,
								-3.999999925494195
							],
							"scale":[
								4.999999925494195,
								4.999999925494195
							]
						}
					},
					"index":0
				},
				"metallicFactor":0
			}
		},
		{
			"doubleSided":true,
			"name":"PaintWhite",
			"pbrMetallicRoughness":{
				"baseColorFactor":[
					0.800000011920929,
					0.800000011920929,
					0.800000011920929,
					1
				],
				"metallicFactor":0,
				"roughnessFactor":0.30000001192092896
			}
		},
		{
			"doubleSided":true,
			"name":"Darkness",
			"pbrMetallicRoughness":{
				"baseColorFactor":[
					0.04714407026767731,
					0.04714407026767731,
					0.04714407026767731,
					1
				],
				"metallicFactor":0,
				"roughnessFactor":0.20000000298023224
			}
		},
		{
			"doubleSided":true,
			"name":"Roof",
			"pbrMetallicRoughness":{
				"baseColorTexture":{
					"index":1
				},
				"metallicFactor":0,
				"roughnessFactor":0.5
			}
		},
		{
			"doubleSided":true,
			"name":"Material",
			"pbrMetallicRoughness":{
				"baseColorFactor":[
					0.27472397685050964,
					0.0025423215702176094,
					0.800891637802124,
					1
				],
				"metallicFactor":0,
				"roughnessFactor":0.5
			}
		}
	],
	"meshes":[
		{
			"name":"Cube.001",
			"primitives":[
				{
					"attributes":{
						"POSITION":0,
						"NORMAL":1,
						"TEXCOORD_0":2
					},
					"indices":3,
					"material":0
				},
				{
					"attributes":{
						"POSITION":4,
						"NORMAL":5,
						"TEXCOORD_0":6
					},
					"indices":7
				},
				{
					"attributes":{
						"POSITION":8,
						"NORMAL":9,
						"TEXCOORD_0":10
					},
					"indices":11,
					"material":1
				},
				{
					"attributes":{
						"POSITION":12,
						"NORMAL":13,
						"TEXCOORD_0":14
					},
					"indices":15,
					"material":2
				},
				{
					"attributes":{
						"POSITION":16,
						"NORMAL":17,
						"TEXCOORD_0":18
					},
					"indices":19,
					"material":3
				},
				{
					"attributes":{
						"POSITION":20,
						"NORMAL":21,
						"TEXCOORD_0":22
					},
					"indices":23,
					"material":4
				}
			]
		}
	],
	"textures":[
		{
			"sampler":0,
			"source":0
		},
		{
			"sampler":0,
			"source":1
		}
	],
	"images":[
		{
			"mimeType":"image/png",
			"name":"Bricks_02-256x256",
			"uri":"Bricks_02-256x256.png"
		},
		{
			"mimeType":"image/png",
			"name":"Roofs_01-256x256",
			"uri":"Roofs_01-256x256.png"
		}
	],
	"accessors":[
		{
			"bufferView":0,
			"componentType":5126,
			"count":86,
			"max":[
				4,
				-0.3694424629211426,
				5
			],
			"min":[
				-4,
				-4,
				-5
			],
			"type":"VEC3"
		},
		{
			"bufferView":1,
			"componentType":5126,
			"count":86,
			"type":"VEC3"
		},
		{
			"bufferView":2,
			"componentType":5126,
			"count":86,
			"type":"VEC2"
		},
		{
			"bufferView":3,
			"componentType":5123,
			"count":264,
			"type":"SCALAR"
		},
		{
			"bufferView":4,
			"componentType":5126,
			"count":12,
			"max":[
				4,
				-4,
				5
			],
			"min":[
				-4,
				-4,
				-5
			],
			"type":"VEC3"
		},
		{
			"bufferView":5,
			"componentType":5126,
			"count":12,
			"type":"VEC3"
		},
		{
			"bufferView":6,
			"componentType":5126,
			"count":12,
			"type":"VEC2"
		},
		{
			"bufferView":7,
			"componentType":5123,
			"count":30,
			"type":"SCALAR"
		},
		{
			"bufferView":8,
			"componentType":5126,
			"count":28,
			"max":[
				2.963855266571045,
				-1.9108996391296387,
				5
			],
			"min":[
				-3.0036630630493164,
				-4,
				5
			],
			"type":"VEC3"
		},
		{
			"bufferView":9,
			"componentType":5126,
			"count":28,
			"type":"VEC3"
		},
		{
			"bufferView":10,
			"componentType":5126,
			"count":28,
			"type":"VEC2"
		},
		{
			"bufferView":11,
			"componentType":5123,
			"count":84,
			"type":"SCALAR"
		},
		{
			"bufferView":12,
			"componentType":5126,
			"count":6,
			"max":[
				2.909630060195923,
				-1.9651249647140503,
				5
			],
			"min":[
				-0.6532198786735535,
				-3.226386547088623,
				5
			],
			"type":"VEC3"
		},
		{
			"bufferView":13,
			"componentType":5126,
			"count":6,
			"type":"VEC3"
		},
		{
			"bufferView":14,
			"componentType":5126,
			"count":6,
			"type":"VEC2"
		},
		{
			"bufferView":15,
			"componentType":5123,
			"count":12,
			"type":"SCALAR"
		},
		{
			"bufferView":16,
			"componentType":5126,
			"count":24,
			"max":[
				4,
				-0.3694424629211426,
				5
			],
			"min":[
				-4,
				-1.3289101123809814,
				-5
			],
			"type":"VEC3"
		},
		{
			"bufferView":17,
			"componentType":5126,
			"count":24,
			"type":"VEC3"
		},
		{
			"bufferView":18,
			"componentType":5126,
			"count":24,
			"type":"VEC2"
		},
		{
			"bufferView":19,
			"componentType":5123,
			"count":60,
			"type":"SCALAR"
		},
		{
			"bufferView":20,
			"componentType":5126,
			"count":8,
			"max":[
				-1.800904631614685,
				-1.9682143926620483,
				5
			],
			"min":[
				-2.946348190307617,
				-3.942685127258301,
				5
			],
			"type":"VEC3"
		},
		{
			"bufferView":21,
			"componentType":5126,
			"count":8,
			"type":"VEC3"
		},
		{
			"bufferView":22,
			"componentType":5126,
			"count":8,
			"type":"VEC2"
		},
		{
			"bufferView":23,
			"componentType":5123,
			"count":18,
			"type":"SCALAR"
		}
	],
	"bufferViews":[
		{
			"buffer":0,
			"byteLength":1032,
			"byteOffset":0,
			"target":34962
		},
		{
			"buffer":0,
			"byteLength":1032,
			"byteOffset":1032,
			"target":34962
		},
		{
			"buffer":0,
			"byteLength":688,
			"byteOffset":2064,
			"target":34962
		},
		{
			"buffer":0,
			"byteLength":528,
			"byteOffset":2752,
			"target":34963
		},
		{
			"buffer":0,
			"byteLength":144,
			"byteOffset":3280,
			"target":34962
		},
		{
			"buffer":0,
			"byteLength":144,
			"byteOffset":3424,
			"target":34962
		},
		{
			"buffer":0,
			"byteLength":96,
			"byteOffset":3568,
			"target":34962
		},
		{
			"buffer":0,
			"byteLength":60,
			"byteOffset":3664,
			"target":34963
		},
		{
			"buffer":0,
			"byteLength":336,
			"byteOffset":3724,
			"target":34962
		},
		{
			"buffer":0,
			"byteLength":336,
			"byteOffset":4060,
			"target":34962
		},
		{
			"buffer":0,
			"byteLength":224,
			"byteOffset":4396,
			"target":34962
		},
		{
			"buffer":0,
			"byteLength":168,
			"byteOffset":4620,
			"target":34963
		},
		{
			"buffer":0,
			"byteLength":72,
			"byteOffset":4788,
			"target":34962
		},
		{
			"buffer":0,
			"byteLength":72,
			"byteOffset":4860,
			"target":34962
		},
		{
			"buffer":0,
			"byteLength":48,
			"byteOffset":4932,
			"target":34962
		},
		{
			"buffer":0,
			"byteLength":24,
			"byteOffset":4980,
			"target":34963
		},
		{
			"buffer":0,
			"byteLength":288,
			"byteOffset":5004,
			"target":34962
		},
		{
			"buffer":0,
			"byteLength":288,
			"byteOffset":5292,
			"target":34962
		},
		{
			"buffer":0,
			"byteLength":192,
			"byteOffset":5580,
			"target":34962
		},
		{
			"buffer":0,
			"byteLength":120,
			"byteOffset":5772,
			"target":34963
		},
		{
			"buffer":0,
			"byteLength":96,
			"byteOffset":5892,
			"target":34962
		},
		{
			"buffer":0,
			"byteLength":96,
			"byteOffset":5988,
			"target":34962
		},
		{
			"buffer":0,
			"byteLength":64,
			"byteOffset":6084,
			"target":34962
		},
		{
			"buffer":0,
			"byteLength":36,
			"byteOffset":6148,
			"target":34963
		}
	],
	"samplers":[
		{
			"magFilter":9729,
			"minFilter":9987
		}
	],
	"buffers":[
		{
			"byteLength":6184,
			"uri":"dump_office.bin"
		}
	]
}
