{
	"asset":{
		"generator":"Khronos glTF Blender I/O v4.2.57",
		"version":"2.0"
	},
	"extensionsUsed":[
		"KHR_texture_transform"
	],
	"extensionsRequired":[
		"KHR_texture_transform"
	],
	"scene":0,
	"scenes":[
		{
			"name":"Scene",
			"nodes":[
				0
			]
		}
	],
	"nodes":[
		{
			"mesh":0,
			"name":"Cube"
		}
	],
	"materials":[
		{
			"doubleSided":true,
			"name":"Brick",
			"pbrMetallicRoughness":{
				"baseColorTexture":{
					"extensions":{
						"KHR_texture_transform":{
							"offset":[
								0,
								-3.999999925494195
							],
							"scale":[
								4.999999925494195,
								4.999999925494195
							]
						}
					},
					"index":0
				},
				"metallicFactor":0
			}
		},
		{
			"doubleSided":true,
			"name":"PaintWhite",
			"pbrMetallicRoughness":{
				"baseColorFactor":[
					0.800000011920929,
					0.800000011920929,
					0.800000011920929,
					1
				],
				"metallicFactor":0,
				"roughnessFactor":0.30000001192092896
			}
		},
		{
			"doubleSided":true,
			"name":"BrightGreen",
			"pbrMetallicRoughness":{
				"baseColorFactor":[
					0.9646807312965393,
					0.686686098575592,
					0.1046166867017746,
					1
				],
				"metallicFactor":0,
				"roughnessFactor":0.5
			}
		}
	],
	"meshes":[
		{
			"name":"Cube",
			"primitives":[
				{
					"attributes":{
						"POSITION":0,
						"NORMAL":1,
						"TEXCOORD_0":2
					},
					"indices":3,
					"material":0
				},
				{
					"attributes":{
						"POSITION":4,
						"NORMAL":5,
						"TEXCOORD_0":6
					},
					"indices":7,
					"material":1
				},
				{
					"attributes":{
						"POSITION":8,
						"NORMAL":9,
						"TEXCOORD_0":10
					},
					"indices":11,
					"material":2
				}
			]
		}
	],
	"textures":[
		{
			"sampler":0,
			"source":0
		}
	],
	"images":[
		{
			"mimeType":"image/png",
			"name":"Bricks_02-256x256",
			"uri":"Bricks_02-256x256.png"
		}
	],
	"accessors":[
		{
			"bufferView":0,
			"componentType":5126,
			"count":64,
			"max":[
				6.000021457672119,
				5,
				3.999999523162842
			],
			"min":[
				-6.000021457672119,
				0,
				-4
			],
			"type":"VEC3"
		},
		{
			"bufferView":1,
			"componentType":5126,
			"count":64,
			"type":"VEC3"
		},
		{
			"bufferView":2,
			"componentType":5126,
			"count":64,
			"type":"VEC2"
		},
		{
			"bufferView":3,
			"componentType":5123,
			"count":96,
			"type":"SCALAR"
		},
		{
			"bufferView":4,
			"componentType":5126,
			"count":80,
			"max":[
				6.000021457672119,
				5,
				3.999999761581421
			],
			"min":[
				-6.000021457672119,
				-0.09999990463256836,
				-4
			],
			"type":"VEC3"
		},
		{
			"bufferView":5,
			"componentType":5126,
			"count":80,
			"type":"VEC3"
		},
		{
			"bufferView":6,
			"componentType":5126,
			"count":80,
			"type":"VEC2"
		},
		{
			"bufferView":7,
			"componentType":5123,
			"count":168,
			"type":"SCALAR"
		},
		{
			"bufferView":8,
			"componentType":5126,
			"count":82,
			"max":[
				6.707128047943115,
				5.5,
				4.707106590270996
			],
			"min":[
				-6.707128047943115,
				5,
				-4.707106590270996
			],
			"type":"VEC3"
		},
		{
			"bufferView":9,
			"componentType":5126,
			"count":82,
			"type":"VEC3"
		},
		{
			"bufferView":10,
			"componentType":5126,
			"count":82,
			"type":"VEC2"
		},
		{
			"bufferView":11,
			"componentType":5123,
			"count":168,
			"type":"SCALAR"
		}
	],
	"bufferViews":[
		{
			"buffer":0,
			"byteLength":768,
			"byteOffset":0,
			"target":34962
		},
		{
			"buffer":0,
			"byteLength":768,
			"byteOffset":768,
			"target":34962
		},
		{
			"buffer":0,
			"byteLength":512,
			"byteOffset":1536,
			"target":34962
		},
		{
			"buffer":0,
			"byteLength":192,
			"byteOffset":2048,
			"target":34963
		},
		{
			"buffer":0,
			"byteLength":960,
			"byteOffset":2240,
			"target":34962
		},
		{
			"buffer":0,
			"byteLength":960,
			"byteOffset":3200,
			"target":34962
		},
		{
			"buffer":0,
			"byteLength":640,
			"byteOffset":4160,
			"target":34962
		},
		{
			"buffer":0,
			"byteLength":336,
			"byteOffset":4800,
			"target":34963
		},
		{
			"buffer":0,
			"byteLength":984,
			"byteOffset":5136,
			"target":34962
		},
		{
			"buffer":0,
			"byteLength":984,
			"byteOffset":6120,
			"target":34962
		},
		{
			"buffer":0,
			"byteLength":656,
			"byteOffset":7104,
			"target":34962
		},
		{
			"buffer":0,
			"byteLength":336,
			"byteOffset":7760,
			"target":34963
		}
	],
	"samplers":[
		{
			"magFilter":9729,
			"minFilter":9987
		}
	],
	"buffers":[
		{
			"byteLength":8096,
			"uri":"garage.bin"
		}
	]
}
