{
	"asset":{
		"generator":"Khronos glTF Blender I/O v4.2.57",
		"version":"2.0"
	},
	"extensionsUsed":[
		"KHR_texture_transform"
	],
	"extensionsRequired":[
		"KHR_texture_transform"
	],
	"scene":0,
	"scenes":[
		{
			"name":"Scene",
			"nodes":[
				0
			]
		}
	],
	"nodes":[
		{
			"mesh":0,
			"name":"Cube",
			"translation":[
				0,
				4,
				0
			]
		}
	],
	"materials":[
		{
			"doubleSided":true,
			"name":"Brick",
			"pbrMetallicRoughness":{
				"baseColorTexture":{
					"extensions":{
						"KHR_texture_transform":{
							"offset":[
								0,
								-3.999999925494195
							],
							"scale":[
								4.999999925494195,
								4.999999925494195
							]
						}
					},
					"index":0
				},
				"metallicFactor":0
			}
		},
		{
			"doubleSided":true,
			"name":"DoorRed",
			"pbrMetallicRoughness":{
				"baseColorFactor":[
					0.8879185318946838,
					0.06124602630734444,
					0.0021247209515422583,
					1
				],
				"metallicFactor":0,
				"roughnessFactor":0.5
			}
		},
		{
			"doubleSided":true,
			"name":"PaintWhite",
			"pbrMetallicRoughness":{
				"baseColorFactor":[
					0.800000011920929,
					0.800000011920929,
					0.800000011920929,
					1
				],
				"metallicFactor":0,
				"roughnessFactor":0.30000001192092896
			}
		},
		{
			"doubleSided":true,
			"name":"Darkness",
			"pbrMetallicRoughness":{
				"baseColorFactor":[
					0.04714407026767731,
					0.04714407026767731,
					0.04714407026767731,
					1
				],
				"metallicFactor":0,
				"roughnessFactor":0.20000000298023224
			}
		},
		{
			"doubleSided":true,
			"name":"Roof",
			"pbrMetallicRoughness":{
				"baseColorTexture":{
					"index":1
				},
				"metallicFactor":0,
				"roughnessFactor":0.5
			}
		}
	],
	"meshes":[
		{
			"name":"Cube.001",
			"primitives":[
				{
					"attributes":{
						"POSITION":0,
						"NORMAL":1,
						"TEXCOORD_0":2
					},
					"indices":3,
					"material":0
				},
				{
					"attributes":{
						"POSITION":4,
						"NORMAL":5,
						"TEXCOORD_0":6
					},
					"indices":7
				},
				{
					"attributes":{
						"POSITION":8,
						"NORMAL":9,
						"TEXCOORD_0":10
					},
					"indices":11,
					"material":1
				},
				{
					"attributes":{
						"POSITION":12,
						"NORMAL":13,
						"TEXCOORD_0":14
					},
					"indices":15,
					"material":2
				},
				{
					"attributes":{
						"POSITION":16,
						"NORMAL":17,
						"TEXCOORD_0":18
					},
					"indices":19,
					"material":3
				},
				{
					"attributes":{
						"POSITION":20,
						"NORMAL":21,
						"TEXCOORD_0":22
					},
					"indices":23,
					"material":4
				}
			]
		}
	],
	"textures":[
		{
			"sampler":0,
			"source":0
		},
		{
			"sampler":0,
			"source":1
		}
	],
	"images":[
		{
			"mimeType":"image/png",
			"name":"Bricks_02-256x256",
			"uri":"Bricks_02-256x256.png"
		},
		{
			"mimeType":"image/png",
			"name":"Roofs_01-256x256",
			"uri":"Roofs_01-256x256.png"
		}
	],
	"accessors":[
		{
			"bufferView":0,
			"componentType":5126,
			"count":130,
			"max":[
				4,
				5.748081207275391,
				5
			],
			"min":[
				-4,
				-4,
				-5
			],
			"type":"VEC3"
		},
		{
			"bufferView":1,
			"componentType":5126,
			"count":130,
			"type":"VEC3"
		},
		{
			"bufferView":2,
			"componentType":5126,
			"count":130,
			"type":"VEC2"
		},
		{
			"bufferView":3,
			"componentType":5123,
			"count":468,
			"type":"SCALAR"
		},
		{
			"bufferView":4,
			"componentType":5126,
			"count":12,
			"max":[
				4,
				-4,
				5
			],
			"min":[
				-4,
				-4,
				-5
			],
			"type":"VEC3"
		},
		{
			"bufferView":5,
			"componentType":5126,
			"count":12,
			"type":"VEC3"
		},
		{
			"bufferView":6,
			"componentType":5126,
			"count":12,
			"type":"VEC2"
		},
		{
			"bufferView":7,
			"componentType":5123,
			"count":30,
			"type":"SCALAR"
		},
		{
			"bufferView":8,
			"componentType":5126,
			"count":8,
			"max":[
				-1.800904631614685,
				-1.9682143926620483,
				5
			],
			"min":[
				-2.946348190307617,
				-3.942685127258301,
				5
			],
			"type":"VEC3"
		},
		{
			"bufferView":9,
			"componentType":5126,
			"count":8,
			"type":"VEC3"
		},
		{
			"bufferView":10,
			"componentType":5126,
			"count":8,
			"type":"VEC2"
		},
		{
			"bufferView":11,
			"componentType":5123,
			"count":18,
			"type":"SCALAR"
		},
		{
			"bufferView":12,
			"componentType":5126,
			"count":44,
			"max":[
				2.963855266571045,
				1.3905491828918457,
				5
			],
			"min":[
				-3.0036630630493164,
				-4,
				5
			],
			"type":"VEC3"
		},
		{
			"bufferView":13,
			"componentType":5126,
			"count":44,
			"type":"VEC3"
		},
		{
			"bufferView":14,
			"componentType":5126,
			"count":44,
			"type":"VEC2"
		},
		{
			"bufferView":15,
			"componentType":5123,
			"count":132,
			"type":"SCALAR"
		},
		{
			"bufferView":16,
			"componentType":5126,
			"count":14,
			"max":[
				2.909630060195923,
				1.336323857307434,
				5
			],
			"min":[
				-2.9494378566741943,
				-3.226386547088623,
				5
			],
			"type":"VEC3"
		},
		{
			"bufferView":17,
			"componentType":5126,
			"count":14,
			"type":"VEC3"
		},
		{
			"bufferView":18,
			"componentType":5126,
			"count":14,
			"type":"VEC2"
		},
		{
			"bufferView":19,
			"componentType":5123,
			"count":24,
			"type":"SCALAR"
		},
		{
			"bufferView":20,
			"componentType":5126,
			"count":24,
			"max":[
				4,
				5.748081207275391,
				5
			],
			"min":[
				-4,
				2.000000238418579,
				-5
			],
			"type":"VEC3"
		},
		{
			"bufferView":21,
			"componentType":5126,
			"count":24,
			"type":"VEC3"
		},
		{
			"bufferView":22,
			"componentType":5126,
			"count":24,
			"type":"VEC2"
		},
		{
			"bufferView":23,
			"componentType":5123,
			"count":60,
			"type":"SCALAR"
		}
	],
	"bufferViews":[
		{
			"buffer":0,
			"byteLength":1560,
			"byteOffset":0,
			"target":34962
		},
		{
			"buffer":0,
			"byteLength":1560,
			"byteOffset":1560,
			"target":34962
		},
		{
			"buffer":0,
			"byteLength":1040,
			"byteOffset":3120,
			"target":34962
		},
		{
			"buffer":0,
			"byteLength":936,
			"byteOffset":4160,
			"target":34963
		},
		{
			"buffer":0,
			"byteLength":144,
			"byteOffset":5096,
			"target":34962
		},
		{
			"buffer":0,
			"byteLength":144,
			"byteOffset":5240,
			"target":34962
		},
		{
			"buffer":0,
			"byteLength":96,
			"byteOffset":5384,
			"target":34962
		},
		{
			"buffer":0,
			"byteLength":60,
			"byteOffset":5480,
			"target":34963
		},
		{
			"buffer":0,
			"byteLength":96,
			"byteOffset":5540,
			"target":34962
		},
		{
			"buffer":0,
			"byteLength":96,
			"byteOffset":5636,
			"target":34962
		},
		{
			"buffer":0,
			"byteLength":64,
			"byteOffset":5732,
			"target":34962
		},
		{
			"buffer":0,
			"byteLength":36,
			"byteOffset":5796,
			"target":34963
		},
		{
			"buffer":0,
			"byteLength":528,
			"byteOffset":5832,
			"target":34962
		},
		{
			"buffer":0,
			"byteLength":528,
			"byteOffset":6360,
			"target":34962
		},
		{
			"buffer":0,
			"byteLength":352,
			"byteOffset":6888,
			"target":34962
		},
		{
			"buffer":0,
			"byteLength":264,
			"byteOffset":7240,
			"target":34963
		},
		{
			"buffer":0,
			"byteLength":168,
			"byteOffset":7504,
			"target":34962
		},
		{
			"buffer":0,
			"byteLength":168,
			"byteOffset":7672,
			"target":34962
		},
		{
			"buffer":0,
			"byteLength":112,
			"byteOffset":7840,
			"target":34962
		},
		{
			"buffer":0,
			"byteLength":48,
			"byteOffset":7952,
			"target":34963
		},
		{
			"buffer":0,
			"byteLength":288,
			"byteOffset":8000,
			"target":34962
		},
		{
			"buffer":0,
			"byteLength":288,
			"byteOffset":8288,
			"target":34962
		},
		{
			"buffer":0,
			"byteLength":192,
			"byteOffset":8576,
			"target":34962
		},
		{
			"buffer":0,
			"byteLength":120,
			"byteOffset":8768,
			"target":34963
		}
	],
	"samplers":[
		{
			"magFilter":9729,
			"minFilter":9987
		}
	],
	"buffers":[
		{
			"byteLength":8888,
			"uri":"house_1.bin"
		}
	]
}
