{
	"asset":{
		"generator":"Khronos glTF Blender I/O v4.2.57",
		"version":"2.0"
	},
	"scene":0,
	"scenes":[
		{
			"name":"Scene",
			"nodes":[
				0,
				1,
				2,
				3,
				4,
				5,
				6,
				7
			]
		}
	],
	"nodes":[
		{
			"mesh":0,
			"name":"Bin.Back",
			"rotation":[
				0.7071068286895752,
				0,
				0,
				0.7071068286895752
			]
		},
		{
			"mesh":1,
			"name":"Bin.Floor",
			"rotation":[
				0.7071068286895752,
				0,
				0,
				0.7071068286895752
			]
		},
		{
			"mesh":2,
			"name":"Bin.Front",
			"rotation":[
				0.7071068286895752,
				0,
				0,
				0.7071068286895752
			]
		},
		{
			"mesh":3,
			"name":"Bin.Left",
			"rotation":[
				0.7071068286895752,
				0,
				0,
				0.7071068286895752
			]
		},
		{
			"mesh":4,
			"name":"Bin.Right",
			"rotation":[
				0.7071068286895752,
				0,
				0,
				0.7071068286895752
			]
		},
		{
			"mesh":5,
			"name":"Bin.Roof",
			"rotation":[
				0.7071068286895752,
				0,
				0,
				0.7071068286895752
			]
		},
		{
			"mesh":6,
			"name":"Bin.TopLeft",
			"rotation":[
				0.7071068286895752,
				0,
				0,
				0.7071068286895752
			]
		},
		{
			"mesh":7,
			"name":"Bin.TopRight",
			"rotation":[
				0.7071068286895752,
				0,
				0,
				0.7071068286895752
			]
		}
	],
	"materials":[
		{
			"doubleSided":true,
			"name":"Material.001",
			"pbrMetallicRoughness":{
				"baseColorTexture":{
					"index":0
				},
				"metallicFactor":0
			}
		}
	],
	"meshes":[
		{
			"name":"Cube.008",
			"primitives":[
				{
					"attributes":{
						"POSITION":0,
						"NORMAL":1,
						"TEXCOORD_0":2
					},
					"indices":3,
					"material":0
				}
			]
		},
		{
			"name":"Cube.001",
			"primitives":[
				{
					"attributes":{
						"POSITION":4,
						"NORMAL":5,
						"TEXCOORD_0":6
					},
					"indices":7,
					"material":0
				}
			]
		},
		{
			"name":"Cube.005",
			"primitives":[
				{
					"attributes":{
						"POSITION":8,
						"NORMAL":9,
						"TEXCOORD_0":10
					},
					"indices":11,
					"material":0
				}
			]
		},
		{
			"name":"Cube.009",
			"primitives":[
				{
					"attributes":{
						"POSITION":12,
						"NORMAL":13,
						"TEXCOORD_0":14
					},
					"indices":15,
					"material":0
				}
			]
		},
		{
			"name":"Cube.006",
			"primitives":[
				{
					"attributes":{
						"POSITION":16,
						"NORMAL":17,
						"TEXCOORD_0":18
					},
					"indices":19,
					"material":0
				}
			]
		},
		{
			"name":"Cube.002",
			"primitives":[
				{
					"attributes":{
						"POSITION":20,
						"NORMAL":21,
						"TEXCOORD_0":22
					},
					"indices":23,
					"material":0
				}
			]
		},
		{
			"name":"Cube.003",
			"primitives":[
				{
					"attributes":{
						"POSITION":24,
						"NORMAL":25,
						"TEXCOORD_0":26
					},
					"indices":27,
					"material":0
				}
			]
		},
		{
			"name":"Cube.004",
			"primitives":[
				{
					"attributes":{
						"POSITION":28,
						"NORMAL":29,
						"TEXCOORD_0":30
					},
					"indices":31,
					"material":0
				}
			]
		}
	],
	"textures":[
		{
			"sampler":0,
			"source":0
		}
	],
	"images":[
		{
			"mimeType":"image/png",
			"name":"trashBin1Tex64",
			"uri":"trashBin1Tex64.png"
		}
	],
	"accessors":[
		{
			"bufferView":0,
			"componentType":5126,
			"count":16,
			"max":[
				0.5026400089263916,
				-0.3008178472518921,
				0
			],
			"min":[
				-0.4973599910736084,
				-0.5045580267906189,
				-1.1416900157928467
			],
			"type":"VEC3"
		},
		{
			"bufferView":1,
			"componentType":5126,
			"count":16,
			"type":"VEC3"
		},
		{
			"bufferView":2,
			"componentType":5126,
			"count":16,
			"type":"VEC2"
		},
		{
			"bufferView":3,
			"componentType":5123,
			"count":48,
			"type":"SCALAR"
		},
		{
			"bufferView":4,
			"componentType":5126,
			"count":16,
			"max":[
				0.4290370047092438,
				0.41976600885391235,
				0
			],
			"min":[
				-0.42168399691581726,
				-0.42888200283050537,
				-0.1970807909965515
			],
			"type":"VEC3"
		},
		{
			"bufferView":5,
			"componentType":5126,
			"count":16,
			"type":"VEC3"
		},
		{
			"bufferView":6,
			"componentType":5126,
			"count":16,
			"type":"VEC2"
		},
		{
			"bufferView":7,
			"componentType":5123,
			"count":36,
			"type":"SCALAR"
		},
		{
			"bufferView":8,
			"componentType":5126,
			"count":16,
			"max":[
				0.5047129988670349,
				0.4954420030117035,
				0
			],
			"min":[
				-0.4973599910736084,
				0.29361385107040405,
				-1.1416900157928467
			],
			"type":"VEC3"
		},
		{
			"bufferView":9,
			"componentType":5126,
			"count":16,
			"type":"VEC3"
		},
		{
			"bufferView":10,
			"componentType":5126,
			"count":16,
			"type":"VEC2"
		},
		{
			"bufferView":11,
			"componentType":5123,
			"count":48,
			"type":"SCALAR"
		},
		{
			"bufferView":12,
			"componentType":5126,
			"count":14,
			"max":[
				-0.23470766842365265,
				0.4954420030117035,
				0
			],
			"min":[
				-0.4973599910736084,
				-0.5045580267906189,
				-1.1416900157928467
			],
			"type":"VEC3"
		},
		{
			"bufferView":13,
			"componentType":5126,
			"count":14,
			"type":"VEC3"
		},
		{
			"bufferView":14,
			"componentType":5126,
			"count":14,
			"type":"VEC2"
		},
		{
			"bufferView":15,
			"componentType":5123,
			"count":42,
			"type":"SCALAR"
		},
		{
			"bufferView":16,
			"componentType":5126,
			"count":14,
			"max":[
				0.5047129988670349,
				0.4954420030117035,
				0
			],
			"min":[
				0.24206064641475677,
				-0.5045580267906189,
				-1.1416900157928467
			],
			"type":"VEC3"
		},
		{
			"bufferView":17,
			"componentType":5126,
			"count":14,
			"type":"VEC3"
		},
		{
			"bufferView":18,
			"componentType":5126,
			"count":14,
			"type":"VEC2"
		},
		{
			"bufferView":19,
			"componentType":5123,
			"count":48,
			"type":"SCALAR"
		},
		{
			"bufferView":20,
			"componentType":5126,
			"count":18,
			"max":[
				0.4399079978466034,
				0.43969300389289856,
				-1.5917019844055176
			],
			"min":[
				-0.4325549900531769,
				-0.4488089978694916,
				-1.6789829730987549
			],
			"type":"VEC3"
		},
		{
			"bufferView":21,
			"componentType":5126,
			"count":18,
			"type":"VEC3"
		},
		{
			"bufferView":22,
			"componentType":5126,
			"count":18,
			"type":"VEC2"
		},
		{
			"bufferView":23,
			"componentType":5123,
			"count":36,
			"type":"SCALAR"
		},
		{
			"bufferView":24,
			"componentType":5126,
			"count":18,
			"max":[
				-0.3533949851989746,
				0.4954420030117035,
				-1.0544090270996094
			],
			"min":[
				-0.4973599910736084,
				-0.5045580267906189,
				-1.6789829730987549
			],
			"type":"VEC3"
		},
		{
			"bufferView":25,
			"componentType":5126,
			"count":18,
			"type":"VEC3"
		},
		{
			"bufferView":26,
			"componentType":5126,
			"count":18,
			"type":"VEC2"
		},
		{
			"bufferView":27,
			"componentType":5123,
			"count":36,
			"type":"SCALAR"
		},
		{
			"bufferView":28,
			"componentType":5126,
			"count":18,
			"max":[
				0.5047129988670349,
				0.4954420030117035,
				-1.0544090270996094
			],
			"min":[
				0.3586750030517578,
				-0.5045580267906189,
				-1.6789829730987549
			],
			"type":"VEC3"
		},
		{
			"bufferView":29,
			"componentType":5126,
			"count":18,
			"type":"VEC3"
		},
		{
			"bufferView":30,
			"componentType":5126,
			"count":18,
			"type":"VEC2"
		},
		{
			"bufferView":31,
			"componentType":5123,
			"count":36,
			"type":"SCALAR"
		}
	],
	"bufferViews":[
		{
			"buffer":0,
			"byteLength":192,
			"byteOffset":0,
			"target":34962
		},
		{
			"buffer":0,
			"byteLength":192,
			"byteOffset":192,
			"target":34962
		},
		{
			"buffer":0,
			"byteLength":128,
			"byteOffset":384,
			"target":34962
		},
		{
			"buffer":0,
			"byteLength":96,
			"byteOffset":512,
			"target":34963
		},
		{
			"buffer":0,
			"byteLength":192,
			"byteOffset":608,
			"target":34962
		},
		{
			"buffer":0,
			"byteLength":192,
			"byteOffset":800,
			"target":34962
		},
		{
			"buffer":0,
			"byteLength":128,
			"byteOffset":992,
			"target":34962
		},
		{
			"buffer":0,
			"byteLength":72,
			"byteOffset":1120,
			"target":34963
		},
		{
			"buffer":0,
			"byteLength":192,
			"byteOffset":1192,
			"target":34962
		},
		{
			"buffer":0,
			"byteLength":192,
			"byteOffset":1384,
			"target":34962
		},
		{
			"buffer":0,
			"byteLength":128,
			"byteOffset":1576,
			"target":34962
		},
		{
			"buffer":0,
			"byteLength":96,
			"byteOffset":1704,
			"target":34963
		},
		{
			"buffer":0,
			"byteLength":168,
			"byteOffset":1800,
			"target":34962
		},
		{
			"buffer":0,
			"byteLength":168,
			"byteOffset":1968,
			"target":34962
		},
		{
			"buffer":0,
			"byteLength":112,
			"byteOffset":2136,
			"target":34962
		},
		{
			"buffer":0,
			"byteLength":84,
			"byteOffset":2248,
			"target":34963
		},
		{
			"buffer":0,
			"byteLength":168,
			"byteOffset":2332,
			"target":34962
		},
		{
			"buffer":0,
			"byteLength":168,
			"byteOffset":2500,
			"target":34962
		},
		{
			"buffer":0,
			"byteLength":112,
			"byteOffset":2668,
			"target":34962
		},
		{
			"buffer":0,
			"byteLength":96,
			"byteOffset":2780,
			"target":34963
		},
		{
			"buffer":0,
			"byteLength":216,
			"byteOffset":2876,
			"target":34962
		},
		{
			"buffer":0,
			"byteLength":216,
			"byteOffset":3092,
			"target":34962
		},
		{
			"buffer":0,
			"byteLength":144,
			"byteOffset":3308,
			"target":34962
		},
		{
			"buffer":0,
			"byteLength":72,
			"byteOffset":3452,
			"target":34963
		},
		{
			"buffer":0,
			"byteLength":216,
			"byteOffset":3524,
			"target":34962
		},
		{
			"buffer":0,
			"byteLength":216,
			"byteOffset":3740,
			"target":34962
		},
		{
			"buffer":0,
			"byteLength":144,
			"byteOffset":3956,
			"target":34962
		},
		{
			"buffer":0,
			"byteLength":72,
			"byteOffset":4100,
			"target":34963
		},
		{
			"buffer":0,
			"byteLength":216,
			"byteOffset":4172,
			"target":34962
		},
		{
			"buffer":0,
			"byteLength":216,
			"byteOffset":4388,
			"target":34962
		},
		{
			"buffer":0,
			"byteLength":144,
			"byteOffset":4604,
			"target":34962
		},
		{
			"buffer":0,
			"byteLength":72,
			"byteOffset":4748,
			"target":34963
		}
	],
	"samplers":[
		{
			"magFilter":9729,
			"minFilter":9987
		}
	],
	"buffers":[
		{
			"byteLength":4820,
			"uri":"scott_bin_colliders.bin"
		}
	]
}
