# Blender 3.5.0
# www.blender.org
mtllib car_cricket_door_FL.mtl
o Car3.002
v 1.053535 0.330530 -0.946414
v 1.062795 0.312510 0.586841
v 0.732972 2.087884 -1.121122
v 0.769172 2.082528 0.442242
v 1.098141 1.436175 0.600570
v 1.049311 1.426553 -1.291062
v 1.107381 1.572023 0.453590
v 1.324034 1.544463 0.401629
v 1.324034 1.545417 0.328745
v 1.107381 1.572977 0.380707
v 1.302930 1.386733 0.326668
v 1.113529 1.410827 0.372093
v 1.086277 1.414293 0.378629
v 1.086277 1.413339 0.451513
v 1.116242 1.409527 0.444326
v 1.302930 1.385779 0.399552
v 1.089449 1.369681 0.374800
v 1.090806 1.368554 0.447358
v 1.302930 1.386733 0.326668
v 1.113529 1.410827 0.372093
v 1.116242 1.409527 0.444326
v 1.302930 1.385779 0.399552
v 1.043535 0.330511 -0.946354
v 1.052799 0.312711 0.587032
v 0.723993 2.083488 -1.120881
v 0.760243 2.078030 0.442434
v 1.088339 1.434209 0.600812
v 1.039570 1.424303 -1.290856
v 1.111712 1.565828 0.447043
v 1.316989 1.539500 0.396556
v 1.318222 1.540387 0.335142
v 1.112885 1.566232 0.385628
v 1.296787 1.387447 0.334526
v 1.112783 1.412160 0.381976
v 1.094329 1.413825 0.384540
v 1.092721 1.413553 0.443869
v 1.111375 1.411700 0.435865
v 1.295161 1.386893 0.393356
v 1.091526 1.377746 0.380337
v 1.092536 1.376849 0.442049
v 1.304222 1.396648 0.326798
v 1.114821 1.420742 0.372223
v 1.117535 1.419442 0.444456
v 1.304222 1.395694 0.399682
vn 0.8929 0.4498 -0.0191
vn 1.0000 0.0020 -0.0060
vn 0.6011 -0.6403 -0.4782
vn 0.2354 -0.0486 -0.9707
vn 0.8993 0.4367 -0.0254
vn 0.9992 -0.0311 -0.0256
vn 0.1292 0.9915 0.0130
vn -0.2278 0.0430 -0.9728
vn -0.2278 0.0430 -0.9727
vn 0.2278 -0.0430 0.9728
vn 0.9913 -0.1318 -0.0017
vn -0.9913 0.1318 0.0017
vn -0.9962 -0.0865 0.0081
vn -0.2246 0.0675 -0.9721
vn 0.8549 -0.5178 -0.0327
vn 0.2246 -0.0675 0.9721
vn -0.1292 -0.9915 -0.0130
vn -0.8927 -0.4502 0.0191
vn -1.0000 -0.0017 0.0060
vn -0.2441 -0.0471 -0.9686
vn -0.5921 -0.6506 -0.4755
vn -0.8991 -0.4370 0.0255
vn -0.9992 0.0313 0.0256
vn -0.1292 -0.9915 -0.0129
vn 0.2321 -0.0298 0.9722
vn 0.1918 -0.0272 0.9811
vn 0.2401 -0.0303 0.9703
vn 0.1355 -0.0236 0.9905
vn -0.2294 0.0599 -0.9715
vn -0.2383 0.0666 -0.9689
vn -0.2438 0.0707 -0.9673
vn -0.2184 0.0517 -0.9745
vn -0.9898 0.1404 -0.0218
vn 0.9922 -0.1226 0.0222
vn 0.9991 -0.0414 0.0045
vn 0.1255 -0.1244 0.9843
vn -0.8654 0.5011 0.0029
vn -0.3899 0.0476 -0.9196
vn -0.0647 -0.9948 0.0785
vn -0.1220 -0.9921 0.0291
vn -0.1220 -0.9921 0.0289
vn 0.7398 0.6706 0.0542
vn -0.1413 -0.9886 -0.0521
vn -0.1413 -0.9886 -0.0524
vn -0.0042 -0.9930 -0.1183
vn 0.7805 0.6217 -0.0655
vn -0.3469 0.7064 -0.6170
vn -0.3471 0.7068 -0.6164
vn -0.3164 0.7080 0.6313
vn -0.3164 0.7081 0.6313
vn 0.0098 -0.7162 0.6979
vn -0.0137 0.0996 0.9949
vn -0.0145 0.1020 0.9947
vn 0.0098 -0.7155 0.6986
vn 0.6153 -0.0699 -0.7852
vn -0.7891 0.1108 -0.6042
vn 0.6153 -0.0699 -0.7851
vn 0.7776 -0.1095 0.6192
vn -0.6005 0.0678 0.7967
vt 0.667319 0.012043
vt 0.392526 0.012411
vt 0.702786 0.329428
vt 0.421955 0.332231
vt 0.392702 0.213797
vt 0.731649 0.207636
vt 0.150000 0.046207
vt 0.113793 0.046207
vt 0.115539 0.045413
vt 0.150000 0.046207
vt 0.113793 0.046207
vt 0.113793 0.010000
vt 0.150000 0.085000
vt 0.150000 0.046207
vt 0.150000 0.010000
vt 0.250000 0.085000
vt 0.114439 0.009524
vt 0.150000 0.010000
vt 0.237421 0.010000
vt 0.118347 0.010000
vt 0.147921 0.009682
vt 0.250000 0.010000
vt 0.115539 0.045413
vt 0.113793 0.010000
vt 0.118801 0.046207
vt 0.118801 0.010000
vt 0.113793 0.010000
vt 0.150000 0.010000
vt 0.116070 0.010000
vt 0.116297 0.046207
vt 0.150000 0.010000
vt 0.118347 0.010000
vt 0.118801 0.046207
vt 0.150000 0.046207
vt 0.667319 0.012043
vt 0.392526 0.012411
vt 0.702786 0.329428
vt 0.421955 0.332231
vt 0.392702 0.213797
vt 0.731649 0.207636
vt 0.150000 0.046207
vt 0.113793 0.046207
vt 0.115539 0.045413
vt 0.150000 0.046207
vt 0.113793 0.046207
vt 0.113793 0.010000
vt 0.150000 0.085000
vt 0.150000 0.046207
vt 0.150000 0.010000
vt 0.250000 0.085000
vt 0.114439 0.009524
vt 0.150000 0.010000
vt 0.237421 0.010000
vt 0.118347 0.010000
vt 0.147921 0.009682
vt 0.250000 0.010000
vt 0.115539 0.045413
vt 0.113793 0.010000
vt 0.118801 0.046207
vt 0.118801 0.010000
vt 0.113793 0.010000
vt 0.150000 0.010000
vt 0.116070 0.010000
vt 0.116297 0.046207
vt 0.150000 0.010000
vt 0.118347 0.010000
vt 0.118801 0.046207
vt 0.150000 0.046207
s 1
usemtl car3_mat
f 3/3/1 4/4/1 5/5/1
f 2/2/2 1/1/3 6/6/4
f 5/5/5 6/6/5 3/3/5
f 6/6/6 5/5/6 2/2/6
f 7/7/7 8/11/7 9/12/7 10/15/7
f 10/16/8 9/13/8 11/18/8 12/19/8
f 10/16/8 12/19/8 13/22/9
f 8/10/10 7/8/10 14/24/10 15/26/10
f 8/10/10 15/26/10 16/28/10
f 9/14/11 8/11/11 16/27/11 11/18/11
f 13/21/12 14/23/12 7/9/12 10/17/12
f 17/29/13 18/30/13 14/23/13 13/21/13
f 13/22/14 12/19/14 17/29/14
f 18/30/15 17/29/15 12/20/15 15/25/15
f 15/26/16 14/24/16 18/30/16
f 22/34/17 21/33/17 20/32/17 19/31/17
f 25/37/18 27/39/18 26/38/18
f 24/36/19 28/40/20 23/35/21
f 27/39/22 25/37/22 28/40/22
f 28/40/23 24/36/23 27/39/23
f 29/41/24 32/49/24 31/46/24 30/45/24
f 32/50/25 34/53/26 33/52/27 31/47/27
f 32/50/25 35/56/28 34/53/26
f 30/44/29 37/60/30 36/58/31 29/42/31
f 30/44/29 38/62/32 37/60/30
f 31/48/33 33/52/33 38/61/33 30/45/33
f 35/55/34 32/51/34 29/43/34 36/57/34
f 39/63/35 35/55/35 36/57/35 40/64/35
f 35/56/36 39/63/36 34/53/36
f 40/64/37 37/59/37 34/54/37 39/63/37
f 37/60/38 40/64/38 36/58/38
f 44/68/7 41/65/7 42/66/7 43/67/7
f 12/19/39 11/18/40 33/52/41 34/53/42
f 11/18/40 16/27/43 38/61/44 33/52/41
f 15/25/45 12/20/39 34/54/42 37/59/46
f 3/3/47 6/6/4 28/40/20 25/37/48
f 4/4/49 3/3/47 25/37/48 26/38/50
f 16/28/43 15/26/45 37/60/46 38/62/44
f 2/2/51 5/5/52 27/39/53 24/36/54
f 1/1/3 2/2/51 24/36/54 23/35/21
f 5/5/52 4/4/49 26/38/50 27/39/53
f 6/6/4 1/1/3 23/35/21 28/40/20
f 19/31/55 20/32/56 42/66/56 41/65/57
f 22/34/58 19/31/55 41/65/57 44/68/58
f 20/32/56 21/33/59 43/67/59 42/66/56
f 21/33/59 22/34/58 44/68/58 43/67/59
