# Blender 4.1.1
# www.blender.org
mtllib cityTrashCan.mtl
o Cylinder
v 0.000000 0.010364 -0.800000
v 0.000000 1.690364 -0.800000
v 0.565685 0.010364 -0.565685
v 0.565685 1.690364 -0.565685
v 0.800000 0.010364 0.000000
v 0.800000 1.690364 0.000000
v 0.565685 0.010364 0.565685
v 0.565685 1.690364 0.565685
v 0.000000 0.010364 0.800000
v 0.000000 1.690364 0.800000
v -0.565685 0.010364 0.565685
v -0.565685 1.690364 0.565685
v -0.800000 0.010364 0.000000
v -0.800000 1.690364 0.000000
v -0.565685 0.010364 -0.565685
v -0.565685 1.690364 -0.565685
v 0.349673 1.693376 -0.349673
v 0.000000 1.693376 -0.494512
v 0.494512 1.693376 0.000000
v 0.349673 1.693376 0.349673
v 0.000000 1.693376 0.494512
v -0.349673 1.693376 0.349673
v -0.494512 1.693376 0.000000
v -0.349673 1.693376 -0.349673
v 0.803599 1.929785 -0.803599
v 0.000000 1.929785 -1.136461
v 1.136461 1.929785 0.000000
v 0.803599 1.929785 0.803599
v 0.000000 1.929785 1.136461
v -0.803599 1.929785 0.803599
v -1.136461 1.929785 0.000000
v -0.803599 1.929785 -0.803599
v 0.477034 1.693376 -0.477034
v 0.000000 1.693376 -0.674628
v 0.674628 1.693376 0.000000
v 0.477034 1.693376 0.477034
v 0.000000 1.693376 0.674628
v -0.477034 1.693376 0.477034
v -0.674628 1.693376 0.000000
v -0.477034 1.693376 -0.477034
v 0.349673 2.173933 -0.349673
v 0.000000 2.173933 -0.494512
v 0.494512 2.173933 0.000000
v 0.000000 2.173933 0.494512
v -0.349673 2.173933 -0.349673
v 0.349673 2.341195 -0.349673
v 0.349673 2.341195 0.349673
v -0.349673 2.341195 0.349673
v -0.494512 2.341195 0.000000
v 0.349673 2.173933 0.349673
v -0.349673 2.173933 0.349673
v -0.494512 2.173933 0.000000
v 0.000000 2.341195 -0.494512
v 0.494512 2.341195 0.000000
v 0.000000 2.341195 0.494512
v -0.349673 2.341195 -0.349673
v 0.434193 2.173933 -0.434193
v 0.000000 2.173933 -0.614042
v 0.614042 2.173933 0.000000
v 0.434193 2.173933 0.434193
v 0.000000 2.173933 0.614042
v -0.434193 2.173933 0.434193
v -0.614042 2.173933 0.000000
v -0.434193 2.173933 -0.434193
v 0.434193 2.277011 -0.434193
v 0.000000 2.277011 -0.614042
v 0.614042 2.277011 0.000000
v 0.434193 2.277011 0.434193
v 0.000000 2.277011 0.614042
v -0.434193 2.277011 0.434193
v -0.614042 2.277011 0.000000
v -0.434193 2.277011 -0.434193
v -1.139168 1.938211 1.139168
v 1.139168 1.938211 1.139168
v -1.139168 1.938211 -1.139168
v 1.139168 1.938211 -1.139168
v 0.000000 1.938211 1.139168
v 0.000000 1.938211 -1.139168
v -1.139168 1.938211 0.000000
v 1.139168 1.938211 0.000000
v 0.000000 1.938211 0.000000
vn 0.3827 -0.0000 -0.9239
vn 0.9239 -0.0000 -0.3827
vn 0.9239 -0.0000 0.3827
vn 0.3827 -0.0000 0.9239
vn -0.3827 -0.0000 0.9239
vn -0.9239 -0.0000 0.3827
vn -0.5638 -0.7922 0.2335
vn -0.9239 -0.0000 -0.3827
vn -0.3827 -0.0000 -0.9239
vn -0.0000 -1.0000 -0.0000
vn 0.2335 -0.7922 0.5638
vn -0.5638 -0.7922 -0.2335
vn 0.5638 -0.7922 -0.2335
vn -0.2335 -0.7922 0.5638
vn -0.2335 -0.7922 -0.5638
vn 0.2335 -0.7922 -0.5638
vn 0.5638 -0.7922 0.2335
vn -0.1855 0.8747 0.4478
vn -0.4478 0.8747 0.1855
vn -0.4478 0.8747 -0.1855
vn -0.1855 0.8747 -0.4478
vn 0.1855 0.8747 -0.4478
vn 0.4478 0.8747 -0.1855
vn 0.4478 0.8747 0.1855
vn 0.1855 0.8747 0.4478
vn -0.0000 1.0000 -0.0000
vn -0.4642 0.8646 -0.1923
vn -0.4642 0.8646 0.1923
vn -0.1923 0.8646 0.4642
vn -0.1923 0.8646 -0.4642
vn 0.1923 0.8646 -0.4642
vn 0.4642 0.8646 -0.1923
vn 0.4642 0.8646 0.1923
vn 0.1923 0.8646 0.4642
vt 0.364460 0.000000
vt 0.364460 0.628906
vt 0.000000 0.628906
vt 0.000000 0.000000
vt 0.364460 0.000000
vt 0.364460 0.628906
vt 0.000000 0.628906
vt 0.000000 0.000000
vt 0.364460 0.000000
vt 0.364460 0.628906
vt 0.000000 0.628906
vt 0.000000 0.000000
vt 0.000000 0.628906
vt 0.452439 0.759093
vt 0.084591 0.759093
vt 0.007237 0.994813
vt 0.529792 0.994813
vt 0.677734 0.554453
vt 0.847440 0.484159
vt 0.917734 0.314453
vt 0.847440 0.144747
vt 0.677734 0.074453
vt 0.508029 0.144747
vt 0.437734 0.314453
vt 0.508029 0.484159
vt 0.224227 0.325712
vt 0.398399 0.325712
vt 0.398399 0.546857
vt 0.224227 0.546857
vt 0.452439 0.759093
vt 0.529792 0.994813
vt 0.452439 0.759093
vt 0.084591 0.759093
vt 0.007237 0.994813
vt 0.084591 0.759093
vt 0.452439 0.759093
vt 0.084591 0.759093
vt 0.529792 0.994813
vt 0.452439 0.759093
vt 0.815640 0.290410
vt 0.882473 0.262727
vt 0.928226 0.308479
vt 0.815640 0.355114
vt 0.910157 0.195894
vt 0.974860 0.195894
vt 0.882473 0.129061
vt 0.928226 0.083308
vt 0.815640 0.101377
vt 0.815640 0.036674
vt 0.748807 0.129061
vt 0.703055 0.083308
vt 0.721124 0.195894
vt 0.656420 0.195894
vt 0.748807 0.262727
vt 0.703055 0.308479
vt 0.677734 0.416932
vt 0.751579 0.386345
vt 0.778475 0.413241
vt 0.677734 0.454969
vt 0.782166 0.312500
vt 0.820204 0.312500
vt 0.751579 0.238655
vt 0.778475 0.211759
vt 0.677734 0.208068
vt 0.677734 0.170031
vt 0.603890 0.238655
vt 0.576993 0.211759
vt 0.573302 0.312500
vt 0.535265 0.312500
vt 0.603890 0.386345
vt 0.576993 0.413241
vt 0.660292 0.948846
vt 0.586336 0.948852
vt 0.533849 0.896730
vt 0.534136 0.822666
vt 0.586120 0.769904
vt 0.660076 0.769898
vt 0.712562 0.822020
vt 0.712275 0.896084
vt 0.508546 0.907621
vt 0.508546 0.812485
vt 0.575136 0.744646
vt 0.670238 0.744302
vt 0.987061 0.678901
vt 0.712739 0.678901
vt 0.712739 0.739068
vt 0.987061 0.739068
vt 0.987061 0.739068
vt 0.712739 0.739068
vt 0.712739 0.678901
vt 0.987061 0.678901
vt 0.576174 0.974448
vt 0.671275 0.974104
vt 0.737866 0.906265
vt 0.737866 0.811129
vt 0.995349 0.004651
vt 0.995349 0.598401
vt 0.401599 0.598401
vt 0.401599 0.004651
s 0
usemtl Material.001
f 1/1/1 2/2/1 4/3/1 3/4/1
f 3/5/2 4/6/2 6/7/2 5/8/2
f 5/9/3 6/10/3 8/11/3 7/12/3
f 7/5/4 8/6/4 10/7/4 9/8/4
f 9/9/5 10/10/5 12/11/5 11/12/5
f 11/9/6 12/2/6 14/13/6 13/4/6
f 14/14/7 12/15/7 30/16/7 31/17/7
f 13/1/8 14/2/8 16/3/8 15/4/8
f 15/9/9 16/2/9 2/13/9 1/4/9
f 1/18/10 3/19/10 5/20/10 7/21/10 9/22/10 11/23/10 13/24/10 15/25/10
f 24/26/8 23/27/8 52/28/8 45/29/8
f 10/30/11 8/15/11 28/16/11 29/31/11
f 16/32/12 14/33/12 31/34/12 32/17/12
f 6/30/13 4/15/13 25/16/13 27/31/13
f 12/35/14 10/36/14 29/31/14 30/34/14
f 2/14/15 16/15/15 32/16/15 26/17/15
f 4/37/16 2/30/16 26/38/16 25/34/16
f 8/35/17 6/39/17 27/31/17 28/16/17
f 34/40/18 33/41/18 25/42/18 26/43/18
f 33/41/19 35/44/19 27/45/19 25/42/19
f 35/44/20 36/46/20 28/47/20 27/45/20
f 36/46/21 37/48/21 29/49/21 28/47/21
f 37/48/22 38/50/22 30/51/22 29/49/22
f 38/50/23 39/52/23 31/53/23 30/51/23
f 39/52/24 40/54/24 32/55/24 31/53/24
f 40/54/25 34/40/25 26/43/25 32/55/25
f 18/56/26 17/57/26 33/58/26 34/59/26
f 17/57/26 19/60/26 35/61/26 33/58/26
f 19/60/26 20/62/26 36/63/26 35/61/26
f 20/62/26 21/64/26 37/65/26 36/63/26
f 21/64/26 22/66/26 38/67/26 37/65/26
f 22/66/26 23/68/26 39/69/26 38/67/26
f 23/68/26 24/70/26 40/71/26 39/69/26
f 24/70/26 18/56/26 34/59/26 40/71/26
f 22/26/5 21/27/5 44/28/5 51/29/5
f 20/26/3 19/27/3 43/28/3 50/29/3
f 17/26/1 18/27/1 42/28/1 41/29/1
f 18/26/9 24/27/9 45/28/9 42/29/9
f 23/26/6 22/27/6 51/28/6 52/29/6
f 21/26/4 20/27/4 50/28/4 44/29/4
f 19/26/2 17/27/2 41/28/2 43/29/2
f 46/72/26 53/73/26 56/74/26 49/75/26 48/76/26 55/77/26 47/78/26 54/79/26
f 41/57/10 42/56/10 58/56/10 57/57/10
f 42/56/10 45/70/10 64/70/10 58/56/10
f 49/75/27 56/74/27 72/80/27 71/81/27
f 45/70/10 52/68/10 63/68/10 64/70/10
f 48/76/28 49/75/28 71/81/28 70/82/28
f 52/68/10 51/66/10 62/66/10 63/68/10
f 55/77/29 48/76/29 70/82/29 69/83/29
f 51/66/10 44/64/10 61/64/10 62/66/10
f 61/84/4 60/85/4 68/86/4 69/87/4
f 59/85/2 57/84/2 65/88/2 67/89/2
f 64/90/8 63/84/8 71/87/8 72/89/8
f 62/90/5 61/84/5 69/87/5 70/89/5
f 60/91/3 59/85/3 67/86/3 68/87/3
f 57/91/1 58/85/1 66/89/1 65/87/1
f 58/90/9 64/84/9 72/88/9 66/89/9
f 63/84/6 62/85/6 70/86/6 71/87/6
f 56/74/30 53/73/30 66/92/30 72/80/30
f 53/73/31 46/72/31 65/93/31 66/92/31
f 43/60/10 41/57/10 57/57/10 59/60/10
f 46/72/32 54/79/32 67/94/32 65/93/32
f 50/62/10 43/60/10 59/60/10 60/62/10
f 54/79/33 47/78/33 68/95/33 67/94/33
f 44/64/10 50/62/10 60/62/10 61/64/10
f 47/78/34 55/77/34 69/83/34 68/95/34
f 81/96/26 80/97/26 76/98/26 78/99/26
f 79/97/26 81/96/26 78/99/26 75/98/26
f 73/98/26 77/99/26 81/96/26 79/97/26
f 77/99/26 74/98/26 80/97/26 81/96/26
o Cylinder.001
v 0.000000 -0.013538 -0.649314
v 0.000000 1.741474 -0.649314
v 0.459135 -0.013538 -0.459135
v 0.459135 1.741474 -0.459135
v 0.649314 -0.013538 0.000000
v 0.649314 1.741474 0.000000
v 0.459135 -0.013538 0.459135
v 0.459135 1.741474 0.459135
v 0.000000 -0.013538 0.649314
v 0.000000 1.741474 0.649314
v -0.459135 -0.013538 0.459135
v -0.459135 1.741474 0.459135
v -0.649314 -0.013538 0.000000
v -0.649314 1.741474 0.000000
v -0.459135 -0.013538 -0.459135
v -0.459135 1.741474 -0.459135
vn 0.3827 -0.0000 -0.9239
vn 0.9239 -0.0000 -0.3827
vn 0.9239 -0.0000 0.3827
vn 0.3827 -0.0000 0.9239
vn -0.3827 -0.0000 0.9239
vn -0.9239 -0.0000 0.3827
vn -0.0000 1.0000 -0.0000
vn -0.9239 -0.0000 -0.3827
vn -0.3827 -0.0000 -0.9239
vn -0.0000 -1.0000 -0.0000
vt 1.000000 0.500000
vt 1.000000 1.000000
vt 0.875000 1.000000
vt 0.875000 0.500000
vt 0.750000 1.000000
vt 0.750000 0.500000
vt 0.625000 1.000000
vt 0.625000 0.500000
vt 0.500000 1.000000
vt 0.500000 0.500000
vt 0.375000 1.000000
vt 0.375000 0.500000
vt 0.250000 1.000000
vt 0.250000 0.500000
vt 0.419706 0.419706
vt 0.250000 0.490000
vt 0.080294 0.419706
vt 0.010000 0.250000
vt 0.080294 0.080294
vt 0.250000 0.010000
vt 0.419706 0.080294
vt 0.490000 0.250000
vt 0.125000 1.000000
vt 0.125000 0.500000
vt 0.000000 1.000000
vt 0.000000 0.500000
vt 0.750000 0.490000
vt 0.919706 0.419706
vt 0.990000 0.250000
vt 0.919706 0.080294
vt 0.750000 0.010000
vt 0.580294 0.080294
vt 0.510000 0.250000
vt 0.580294 0.419706
s 0
usemtl Material.002
f 82/100/35 83/101/35 85/102/35 84/103/35
f 84/103/36 85/102/36 87/104/36 86/105/36
f 86/105/37 87/104/37 89/106/37 88/107/37
f 88/107/38 89/106/38 91/108/38 90/109/38
f 90/109/39 91/108/39 93/110/39 92/111/39
f 92/111/40 93/110/40 95/112/40 94/113/40
f 85/114/41 83/115/41 97/116/41 95/117/41 93/118/41 91/119/41 89/120/41 87/121/41
f 94/113/42 95/112/42 97/122/42 96/123/42
f 96/123/43 97/122/43 83/124/43 82/125/43
f 82/126/44 84/127/44 86/128/44 88/129/44 90/130/44 92/131/44 94/132/44 96/133/44
