# Blender 4.1.1
# www.blender.org
mtllib trashCanSquare.mtl
o Cube.007
v -0.421684 0.000000 0.419766
v -0.353395 1.591702 0.439693
v -0.421684 -0.000000 -0.428882
v -0.353395 1.591702 -0.448809
v 0.429037 0.000000 0.419766
v 0.360748 1.591702 0.439693
v 0.426964 -0.000000 -0.428882
v 0.358675 1.591702 -0.448809
v -0.400088 1.141690 0.486386
v 0.407441 1.141690 0.486386
v -0.497360 1.054409 0.495442
v -0.432555 1.678983 0.430637
v -0.432555 1.678983 -0.439753
v 0.437835 1.678983 -0.439753
v 0.439908 1.678983 0.430637
v -0.497360 1.054409 -0.504558
v 0.502640 1.054409 -0.504558
v 0.504713 1.054409 0.495442
v -0.400088 1.141690 -0.493590
v 0.003616 0.711545 -0.003529
v 0.407441 1.141690 -0.493590
vn -0.9947 0.1032 -0.0000
vn 0.9947 0.1032 -0.0022
vn 0.7292 0.6843 -0.0000
vn -0.0000 -1.0000 -0.0000
vn -0.0000 1.0000 -0.0000
vn -0.0000 -0.0716 0.9974
vn 0.9974 -0.0716 -0.0022
vn -0.0000 -0.0716 -0.9974
vn -0.9974 -0.0716 -0.0000
vn -0.0000 0.1032 0.9947
vn -0.0054 0.1018 -0.9948
vn 0.0054 0.1018 -0.9948
vn -0.0055 0.1018 -0.9948
vn 0.0054 0.1125 -0.9936
vn -0.0055 0.1124 -0.9936
vn -0.0054 0.1127 -0.9936
vn 0.9947 -0.1032 -0.0000
vn -0.9944 -0.1055 0.0011
vn -0.0000 0.7516 0.6597
vn -0.7291 0.6845 -0.0000
vn -0.0000 0.7515 -0.6598
vt 0.425818 0.427738
vt 0.451707 0.677253
vt 0.799424 0.677253
vt 0.825314 0.427738
vt 0.011473 0.931590
vt 0.225996 0.759203
vt 0.426365 0.931595
vt 0.990891 0.804939
vt 0.990891 0.993988
vt 0.801843 0.994450
vt 0.801843 0.804939
vt 0.791735 0.678378
vt 0.791735 0.995214
vt 0.453196 0.995214
vt 0.453196 0.677571
vt 0.380888 0.004840
vt 0.411270 0.428165
vt 0.008956 0.428165
vt 0.039339 0.004840
vt 0.795081 0.006507
vt 0.456050 0.006507
vt 0.410438 0.428165
vt 0.380055 0.004840
vt 0.048009 0.463207
vt 0.066755 0.643879
vt 0.034974 0.678920
vt 0.352639 0.643879
vt 0.384420 0.678920
vt 0.353471 0.643879
vt 0.385252 0.678920
vt 0.372217 0.463207
vt 0.453707 0.991907
vt 0.453707 0.683978
vt 0.793411 0.683978
vt 0.793411 0.991013
vt 0.069412 0.627224
vt 0.054592 0.484390
vt 0.365635 0.484390
vt 0.351422 0.627224
vt 0.042672 0.925646
vt 0.229864 0.758211
vt 0.411407 0.925654
vt 0.023714 0.934137
vt 0.228146 0.755857
vt 0.432541 0.934137
vt 0.026322 0.937802
vt 0.227646 0.754227
vt 0.423262 0.937799
s 1
usemtl Material.003
f 11/1/1 12/2/1 13/3/1 16/4/1
f 17/4/2 14/3/2 15/2/2 18/1/2
f 9/5/3 20/6/3 19/7/3
f 3/8/4 7/9/4 5/10/4 1/11/4
f 14/12/5 13/13/5 12/14/5 15/15/5
f 5/16/6 18/17/6 11/18/6 1/19/6
f 7/20/7 17/4/7 18/1/7 5/21/7
f 3/19/8 16/18/8 17/22/8 7/23/8
f 1/21/9 11/1/9 16/4/9 3/20/9
f 9/24/10 2/25/10 12/26/10 11/18/10
f 8/27/11 4/25/12 13/26/12 14/28/13
f 2/25/10 6/29/10 15/30/10 12/26/10
f 4/25/12 19/24/14 16/18/14 13/26/12
f 21/31/15 8/27/11 14/28/13 17/22/16
f 6/29/10 10/31/10 18/17/10 15/30/10
f 10/31/10 9/24/10 11/18/10 18/17/10
f 19/24/14 21/31/15 17/22/16 16/18/14
f 6/32/4 2/33/4 4/34/4 8/35/4
f 2/36/17 9/37/17 19/38/17 4/39/17
f 10/37/18 6/36/18 8/39/18 21/38/18
f 19/40/19 20/41/19 21/42/19
f 21/43/20 20/44/20 10/45/20
f 10/46/21 20/47/21 9/48/21
