{
	"asset":{
		"generator":"Khronos glTF Blender I/O v4.2.57",
		"version":"2.0"
	},
	"extensionsUsed":[
		"KHR_texture_transform"
	],
	"extensionsRequired":[
		"KHR_texture_transform"
	],
	"scene":0,
	"scenes":[
		{
			"name":"Scene",
			"nodes":[
				0,
				1
			]
		}
	],
	"nodes":[
		{
			"mesh":0,
			"name":"Landscape.003"
		},
		{
			"mesh":1,
			"name":"Landscape_plane.003"
		}
	],
	"materials":[
		{
			"doubleSided":true,
			"name":"Grass",
			"pbrMetallicRoughness":{
				"baseColorTexture":{
					"extensions":{
						"KHR_texture_transform":{
							"offset":[
								0,
								-99.00000223517424
							],
							"scale":[
								100.00000223517424,
								100.00000223517424
							]
						}
					},
					"index":0
				},
				"metallicFactor":0,
				"roughnessFactor":0.6000000238418579
			}
		},
		{
			"doubleSided":true,
			"name":"Water",
			"pbrMetallicRoughness":{
				"baseColorFactor":[
					0.019607799127697945,
					0.5921570062637329,
					0.9490200281143188,
					1
				],
				"metallicFactor":0,
				"roughnessFactor":0.05909091234207153
			}
		}
	],
	"meshes":[
		{
			"name":"Landscape.003",
			"primitives":[
				{
					"attributes":{
						"POSITION":0,
						"NORMAL":1,
						"TEXCOORD_0":2,
						"COLOR_0":3,
						"COLOR_1":4
					},
					"indices":5,
					"material":0
				}
			]
		},
		{
			"name":"Landscape_plane.003",
			"primitives":[
				{
					"attributes":{
						"POSITION":6,
						"NORMAL":7
					},
					"indices":8,
					"material":1
				}
			]
		}
	],
	"textures":[
		{
			"sampler":0,
			"source":0
		}
	],
	"images":[
		{
			"mimeType":"image/png",
			"name":"Stone_01-256x256",
			"uri":"Stone_01-256x256.png"
		},
		{
			"mimeType":"image/png",
			"name":"Grass_03-256x256",
			"uri":"Grass_03-256x256.png"
		},
		{
			"mimeType":"image/png",
			"name":"Grass_05-256x256",
			"uri":"Grass_05-256x256.png"
		},
		{
			"mimeType":"image/png",
			"name":"GrassMask",
			"uri":"GrassMask.png"
		},
		{
			"mimeType":"image/png",
			"name":"SandMask",
			"uri":"SandMask.png"
		},
		{
			"mimeType":"image/png",
			"name":"Stone_03-256x256",
			"uri":"Stone_03-256x256.png"
		}
	],
	"accessors":[
		{
			"bufferView":0,
			"componentType":5126,
			"count":65536,
			"max":[
				500,
				60.64316177368164,
				500
			],
			"min":[
				-500,
				-10,
				-500
			],
			"type":"VEC3"
		},
		{
			"bufferView":1,
			"componentType":5126,
			"count":65536,
			"type":"VEC3"
		},
		{
			"bufferView":2,
			"componentType":5126,
			"count":65536,
			"type":"VEC2"
		},
		{
			"bufferView":3,
			"componentType":5121,
			"count":65536,
			"normalized":true,
			"type":"VEC4"
		},
		{
			"bufferView":4,
			"componentType":5126,
			"count":65536,
			"type":"VEC3"
		},
		{
			"bufferView":5,
			"componentType":5125,
			"count":390150,
			"type":"SCALAR"
		},
		{
			"bufferView":6,
			"componentType":5126,
			"count":4,
			"max":[
				500,
				0,
				500
			],
			"min":[
				-500,
				0,
				-500
			],
			"type":"VEC3"
		},
		{
			"bufferView":7,
			"componentType":5126,
			"count":4,
			"type":"VEC3"
		},
		{
			"bufferView":8,
			"componentType":5123,
			"count":6,
			"type":"SCALAR"
		}
	],
	"bufferViews":[
		{
			"buffer":0,
			"byteLength":786432,
			"byteOffset":0,
			"target":34962
		},
		{
			"buffer":0,
			"byteLength":786432,
			"byteOffset":786432,
			"target":34962
		},
		{
			"buffer":0,
			"byteLength":524288,
			"byteOffset":1572864,
			"target":34962
		},
		{
			"buffer":0,
			"byteLength":262144,
			"byteOffset":2097152,
			"target":34962
		},
		{
			"buffer":0,
			"byteLength":786432,
			"byteOffset":2359296,
			"target":34962
		},
		{
			"buffer":0,
			"byteLength":1560600,
			"byteOffset":3145728,
			"target":34963
		},
		{
			"buffer":0,
			"byteLength":48,
			"byteOffset":4706328,
			"target":34962
		},
		{
			"buffer":0,
			"byteLength":48,
			"byteOffset":4706376,
			"target":34962
		},
		{
			"buffer":0,
			"byteLength":12,
			"byteOffset":4706424,
			"target":34963
		}
	],
	"samplers":[
		{
			"magFilter":9729,
			"minFilter":9987
		}
	],
	"buffers":[
		{
			"byteLength":4706436,
			"uri":"bin-ronin-island.bin"
		}
	]
}
