# Blender 4.2.0
# www.blender.org
mtllib sedan_red_door_FL.mtl
o Car5.003
v 1.390602 1.516178 0.860203
v 1.390522 1.517098 0.764267
v 1.179361 1.524476 0.910500
v 1.383640 1.361380 0.858193
v 1.172398 1.369678 0.908490
v 1.201615 1.368531 0.901533
v 1.186305 1.326875 0.904468
v 1.172317 1.370598 0.812554
v 1.179281 1.525396 0.814564
v 1.198889 1.369555 0.806227
v 1.184901 1.327847 0.808847
v 1.383559 1.362301 0.762257
vn 0.9913 -0.1320 -0.0024
vn 0.9913 -0.1320 -0.0019
vn 0.1293 0.9915 0.0132
vn 0.2277 -0.0432 0.9728
vn 0.2276 -0.0432 0.9728
vn 0.2278 -0.0432 0.9727
vn 0.2246 -0.0676 0.9721
vn -0.9962 -0.0867 0.0081
vn -0.9913 0.1318 0.0024
vn -0.9913 0.1318 0.0021
vn -0.2278 0.0430 -0.9728
vn -0.2247 0.0676 -0.9721
vn 0.8549 -0.5178 -0.0326
vn 0.8549 -0.5178 -0.0327
vn -0.1292 -0.9915 -0.0129
vt 0.848688 0.801260
vt 0.848688 0.765053
vt 0.884895 0.765053
vt 0.884895 0.801260
vt 0.853696 0.765053
vt 0.851192 0.801260
vt 0.850434 0.800466
vt 0.882816 0.764735
vt 0.850965 0.765053
vt 0.849334 0.764577
vt 0.972316 0.765053
vt 0.984895 0.765053
vt 0.984895 0.840053
vt 0.853242 0.765053
vt 0.853696 0.801260
vt 0.884895 0.840053
s 1
usemtl car5_mat
f 1/1/1 4/2/2 12/3/2 2/4/2
f 1/1/3 2/2/3 9/3/3 3/4/3
f 5/2/4 1/4/4 3/1/5
f 6/5/6 4/3/6 1/4/4 5/2/4
f 6/5/7 5/2/7 7/6/7
f 7/6/8 5/7/8 8/8/8 11/9/8
f 5/7/9 3/7/10 9/10/10 8/8/10
f 10/11/11 8/12/11 9/13/11 12/3/11
f 8/12/12 10/11/12 11/9/12
f 11/9/13 10/14/14 6/15/13 7/6/13
f 4/4/15 6/15/15 10/14/15 12/3/15
f 12/3/11 9/13/11 2/16/11
o Car5.009
v 0.874799 2.019109 0.410524
v 0.874799 2.019109 -1.350216
v 1.151683 1.436884 1.210970
v 1.151683 1.436884 -1.980788
v 1.231620 1.199518 -2.022254
v 1.231620 1.199518 1.210970
v 1.220391 0.770743 -1.315370
v 1.172014 0.351563 1.210970
v 1.172014 0.351563 -1.164495
v 1.231620 0.980281 -1.596089
v 1.231620 0.868042 1.210970
v 1.231620 0.868042 -1.395773
v 1.231620 1.016697 -1.820520
vn 0.9031 0.4295 -0.0000
vn 0.9477 0.3192 -0.0000
vn 0.9934 -0.1146 -0.0000
vn 1.0000 -0.0000 -0.0000
vn 1.0000 -0.0006 -0.0047
vn 1.0000 0.0042 0.0026
vt 0.769984 0.160307
vt 0.435881 0.241655
vt 0.324046 0.160310
vt 0.681884 0.241654
vt 0.775778 0.127143
vt 0.324045 0.127146
vt 0.677014 0.067237
vt 0.324044 0.008674
vt 0.655934 0.008671
vt 0.716236 0.096513
vt 0.324045 0.080834
vt 0.688248 0.080831
vt 0.747592 0.101600
s 1
usemtl car5_mat
f 16/17/16 13/18/16 15/19/16
f 13/18/16 16/17/16 14/20/16
f 15/19/17 17/21/17 16/17/17
f 17/21/17 15/19/17 18/22/17
f 19/23/18 20/24/18 21/25/18
f 22/26/19 18/22/19 23/27/19
f 23/27/18 20/24/18 19/23/18
f 22/26/19 23/27/19 24/28/19
f 25/29/20 17/21/21 18/22/19
f 25/29/20 18/22/19 22/26/19
f 23/27/18 19/23/18 24/28/18
