{
	"asset":{
		"generator":"Khronos glTF Blender I/O v4.2.57",
		"version":"2.0"
	},
	"scene":0,
	"scenes":[
		{
			"name":"Scene",
			"nodes":[
				0
			]
		}
	],
	"nodes":[
		{
			"mesh":0,
			"name":"Tree"
		}
	],
	"materials":[
		{
			"doubleSided":true,
			"name":"Brown",
			"pbrMetallicRoughness":{
				"baseColorFactor":[
					0.17464657127857208,
					0.03433983772993088,
					0.011612258851528168,
					1
				],
				"metallicFactor":0
			}
		},
		{
			"doubleSided":true,
			"name":"Green",
			"pbrMetallicRoughness":{
				"baseColorFactor":[
					0.30054211616516113,
					0.1778886318206787,
					0.000910626957193017,
					1
				],
				"metallicFactor":0
			}
		}
	],
	"meshes":[
		{
			"name":"Cylinder",
			"primitives":[
				{
					"attributes":{
						"POSITION":0,
						"NORMAL":1,
						"TEXCOORD_0":2
					},
					"indices":3,
					"material":0
				},
				{
					"attributes":{
						"POSITION":4,
						"NORMAL":5,
						"TEXCOORD_0":6
					},
					"indices":7,
					"material":1
				}
			]
		}
	],
	"accessors":[
		{
			"bufferView":0,
			"componentType":5126,
			"count":129,
			"max":[
				1.7623341083526611,
				5.42788028717041,
				0.491385281085968
			],
			"min":[
				-0.4000000059604645,
				0,
				-0.4000000059604645
			],
			"type":"VEC3"
		},
		{
			"bufferView":1,
			"componentType":5126,
			"count":129,
			"type":"VEC3"
		},
		{
			"bufferView":2,
			"componentType":5126,
			"count":129,
			"type":"VEC2"
		},
		{
			"bufferView":3,
			"componentType":5123,
			"count":564,
			"type":"SCALAR"
		},
		{
			"bufferView":4,
			"componentType":5126,
			"count":392,
			"max":[
				2.375361204147339,
				9.751327514648438,
				2.495922565460205
			],
			"min":[
				-2.2672533988952637,
				4.3685126304626465,
				-2.3242299556732178
			],
			"type":"VEC3"
		},
		{
			"bufferView":5,
			"componentType":5126,
			"count":392,
			"type":"VEC3"
		},
		{
			"bufferView":6,
			"componentType":5126,
			"count":392,
			"type":"VEC2"
		},
		{
			"bufferView":7,
			"componentType":5123,
			"count":552,
			"type":"SCALAR"
		}
	],
	"bufferViews":[
		{
			"buffer":0,
			"byteLength":1548,
			"byteOffset":0,
			"target":34962
		},
		{
			"buffer":0,
			"byteLength":1548,
			"byteOffset":1548,
			"target":34962
		},
		{
			"buffer":0,
			"byteLength":1032,
			"byteOffset":3096,
			"target":34962
		},
		{
			"buffer":0,
			"byteLength":1128,
			"byteOffset":4128,
			"target":34963
		},
		{
			"buffer":0,
			"byteLength":4704,
			"byteOffset":5256,
			"target":34962
		},
		{
			"buffer":0,
			"byteLength":4704,
			"byteOffset":9960,
			"target":34962
		},
		{
			"buffer":0,
			"byteLength":3136,
			"byteOffset":14664,
			"target":34962
		},
		{
			"buffer":0,
			"byteLength":1104,
			"byteOffset":17800,
			"target":34963
		}
	],
	"buffers":[
		{
			"byteLength":18904,
			"uri":"tree_scatter_2.bin"
		}
	]
}
