{
	"asset":{
		"generator":"Khronos glTF Blender I/O v4.2.57",
		"version":"2.0"
	},
	"scene":0,
	"scenes":[
		{
			"name":"Scene",
			"nodes":[
				0
			]
		}
	],
	"nodes":[
		{
			"mesh":0,
			"name":"Tree"
		}
	],
	"materials":[
		{
			"doubleSided":true,
			"name":"Brown",
			"pbrMetallicRoughness":{
				"baseColorFactor":[
					0.17464657127857208,
					0.03433983772993088,
					0.011612258851528168,
					1
				],
				"metallicFactor":0
			}
		},
		{
			"doubleSided":true,
			"name":"Green",
			"pbrMetallicRoughness":{
				"baseColorFactor":[
					0.30054211616516113,
					0.1778886318206787,
					0.000910626957193017,
					1
				],
				"metallicFactor":0
			}
		}
	],
	"meshes":[
		{
			"name":"Cylinder",
			"primitives":[
				{
					"attributes":{
						"POSITION":0,
						"NORMAL":1,
						"TEXCOORD_0":2
					},
					"indices":3,
					"material":0
				},
				{
					"attributes":{
						"POSITION":4,
						"NORMAL":5,
						"TEXCOORD_0":6
					},
					"indices":7,
					"material":1
				}
			]
		}
	],
	"accessors":[
		{
			"bufferView":0,
			"componentType":5126,
			"count":208,
			"max":[
				0.4000000059604645,
				6.886631965637207,
				0.4000000059604645
			],
			"min":[
				-0.4000000059604645,
				0,
				-0.4000000059604645
			],
			"type":"VEC3"
		},
		{
			"bufferView":1,
			"componentType":5126,
			"count":208,
			"type":"VEC3"
		},
		{
			"bufferView":2,
			"componentType":5126,
			"count":208,
			"type":"VEC2"
		},
		{
			"bufferView":3,
			"componentType":5123,
			"count":330,
			"type":"SCALAR"
		},
		{
			"bufferView":4,
			"componentType":5126,
			"count":118,
			"max":[
				2.4878997802734375,
				9.820857048034668,
				2.4879000186920166
			],
			"min":[
				-2.4879002571105957,
				6.886631965637207,
				-2.4879000186920166
			],
			"type":"VEC3"
		},
		{
			"bufferView":5,
			"componentType":5126,
			"count":118,
			"type":"VEC3"
		},
		{
			"bufferView":6,
			"componentType":5126,
			"count":118,
			"type":"VEC2"
		},
		{
			"bufferView":7,
			"componentType":5123,
			"count":528,
			"type":"SCALAR"
		}
	],
	"bufferViews":[
		{
			"buffer":0,
			"byteLength":2496,
			"byteOffset":0,
			"target":34962
		},
		{
			"buffer":0,
			"byteLength":2496,
			"byteOffset":2496,
			"target":34962
		},
		{
			"buffer":0,
			"byteLength":1664,
			"byteOffset":4992,
			"target":34962
		},
		{
			"buffer":0,
			"byteLength":660,
			"byteOffset":6656,
			"target":34963
		},
		{
			"buffer":0,
			"byteLength":1416,
			"byteOffset":7316,
			"target":34962
		},
		{
			"buffer":0,
			"byteLength":1416,
			"byteOffset":8732,
			"target":34962
		},
		{
			"buffer":0,
			"byteLength":944,
			"byteOffset":10148,
			"target":34962
		},
		{
			"buffer":0,
			"byteLength":1056,
			"byteOffset":11092,
			"target":34963
		}
	],
	"buffers":[
		{
			"byteLength":12148,
			"uri":"tree_scatter_1.bin"
		}
	]
}
