{
	"asset":{
		"generator":"Khronos glTF Blender I/O v4.2.57",
		"version":"2.0"
	},
	"scene":0,
	"scenes":[
		{
			"name":"Scene",
			"nodes":[
				0
			]
		}
	],
	"nodes":[
		{
			"mesh":0,
			"name":"Tree"
		}
	],
	"materials":[
		{
			"doubleSided":true,
			"name":"Brown",
			"pbrMetallicRoughness":{
				"baseColorFactor":[
					0.17464657127857208,
					0.03433983772993088,
					0.011612258851528168,
					1
				],
				"metallicFactor":0
			}
		},
		{
			"doubleSided":true,
			"name":"Green",
			"pbrMetallicRoughness":{
				"baseColorFactor":[
					0.30054211616516113,
					0.1778886318206787,
					0.000910626957193017,
					1
				],
				"metallicFactor":0
			}
		}
	],
	"meshes":[
		{
			"name":"Cylinder",
			"primitives":[
				{
					"attributes":{
						"POSITION":0,
						"NORMAL":1,
						"TEXCOORD_0":2
					},
					"indices":3,
					"material":0
				},
				{
					"attributes":{
						"POSITION":4,
						"NORMAL":5,
						"TEXCOORD_0":6
					},
					"indices":7,
					"material":1
				}
			]
		}
	],
	"accessors":[
		{
			"bufferView":0,
			"componentType":5126,
			"count":370,
			"max":[
				1.7409037351608276,
				5.42788028717041,
				0.4895791709423065
			],
			"min":[
				-0.4000000059604645,
				0,
				-0.4000000059604645
			],
			"type":"VEC3"
		},
		{
			"bufferView":1,
			"componentType":5126,
			"count":370,
			"type":"VEC3"
		},
		{
			"bufferView":2,
			"componentType":5126,
			"count":370,
			"type":"VEC2"
		},
		{
			"bufferView":3,
			"componentType":5123,
			"count":564,
			"type":"SCALAR"
		},
		{
			"bufferView":4,
			"componentType":5126,
			"count":181,
			"max":[
				2.4878997802734375,
				11.775955200195312,
				2.4879000186920166
			],
			"min":[
				-2.4879002571105957,
				3.9634487628936768,
				-2.4879000186920166
			],
			"type":"VEC3"
		},
		{
			"bufferView":5,
			"componentType":5126,
			"count":181,
			"type":"VEC3"
		},
		{
			"bufferView":6,
			"componentType":5126,
			"count":181,
			"type":"VEC2"
		},
		{
			"bufferView":7,
			"componentType":5123,
			"count":768,
			"type":"SCALAR"
		}
	],
	"bufferViews":[
		{
			"buffer":0,
			"byteLength":4440,
			"byteOffset":0,
			"target":34962
		},
		{
			"buffer":0,
			"byteLength":4440,
			"byteOffset":4440,
			"target":34962
		},
		{
			"buffer":0,
			"byteLength":2960,
			"byteOffset":8880,
			"target":34962
		},
		{
			"buffer":0,
			"byteLength":1128,
			"byteOffset":11840,
			"target":34963
		},
		{
			"buffer":0,
			"byteLength":2172,
			"byteOffset":12968,
			"target":34962
		},
		{
			"buffer":0,
			"byteLength":2172,
			"byteOffset":15140,
			"target":34962
		},
		{
			"buffer":0,
			"byteLength":1448,
			"byteOffset":17312,
			"target":34962
		},
		{
			"buffer":0,
			"byteLength":1536,
			"byteOffset":18760,
			"target":34963
		}
	],
	"buffers":[
		{
			"byteLength":20296,
			"uri":"tree_scatter_1.bin"
		}
	]
}
