# Blender v3.4.1 OBJ File: 'CityBits_Export_Extra.blend'
# www.blender.org
mtllib bush_B.mtl
o bush_B_Cube.14216
v 0.002811 0.361658 -0.007733
v 0.190912 0.296478 -0.112990
v 0.042223 0.295506 -0.219643
v 0.208125 0.300037 0.074196
v 0.065243 0.303356 0.202660
v -0.131817 0.304017 0.165803
v -0.218631 0.301469 -0.005621
v -0.134951 0.297571 -0.173937
v 0.050327 0.000000 -0.268532
v 0.235201 0.000000 -0.136120
v 0.260387 0.000000 0.098809
v 0.081271 0.000000 0.262178
v -0.170269 0.000000 0.215132
v -0.278257 0.000000 -0.001935
v -0.169895 0.000000 -0.211886
v 0.064372 0.120446 -0.340326
v 0.063574 0.017994 -0.338139
v 0.293113 0.049062 -0.174262
v 0.293931 0.171052 -0.176404
v 0.328632 0.053138 0.119971
v 0.329397 0.176455 0.117839
v 0.104666 0.056013 0.327460
v 0.105429 0.181841 0.325262
v -0.215218 0.056631 0.267632
v -0.214384 0.182914 0.265446
v -0.349086 0.054456 -0.006784
v -0.348276 0.178728 -0.008908
v -0.209661 0.017994 -0.268297
v -0.208899 0.122715 -0.270450
vt 0.294109 0.376841
vt 0.293192 0.386419
vt 0.303773 0.375548
vt 0.302931 0.367775
vt 0.311793 0.367960
vt 0.314584 0.375664
vt 0.306063 0.387603
vt 0.304744 0.377781
vt 0.293471 0.397499
vt 0.294506 0.385827
vt 0.287981 0.396572
vt 0.289933 0.385139
vt 0.312878 0.370947
vt 0.310518 0.363946
vt 0.288804 0.412935
vt 0.294733 0.427845
vt 0.297875 0.421469
vt 0.294015 0.402783
vt 0.294294 0.413863
vt 0.298318 0.428316
vt 0.306885 0.403967
vt 0.306143 0.422167
vt 0.315406 0.392029
vt 0.311629 0.414567
vt 0.313700 0.387312
vt 0.310748 0.411351
vt 0.304596 0.391913
vt 0.304797 0.414350
vt 0.303950 0.454081
vn -0.2794 -0.9337 -0.2238
vn -0.2682 -0.9365 -0.2261
vn 0.1285 -0.9422 -0.3095
vn 0.1251 -0.9429 -0.3088
vn 0.5536 -0.8014 0.2264
vn 0.8577 -0.4031 0.3193
vn 0.2562 -0.3815 0.8881
vn 0.1571 -0.7769 0.6098
vn -0.5621 -0.3779 0.7357
vn -0.3726 -0.7733 0.5129
vn -0.9117 -0.4108 0.0092
vn -0.5509 -0.8320 0.0664
vn 0.7846 -0.4398 -0.4371
vn 0.4825 -0.8512 -0.2066
vn -0.9319 0.3607 -0.0393
vn -0.5569 0.8294 -0.0435
vn -0.3620 0.7809 -0.5091
vn -0.5800 0.2723 -0.7678
vn -0.5662 0.3696 0.7367
vn -0.3221 0.8445 0.4279
vn 0.2640 0.3669 0.8920
vn 0.1512 0.8429 0.5164
vn 0.8799 0.3552 0.3157
vn 0.5160 0.8371 0.1814
vn 0.7983 0.3394 -0.4976
vn 0.4845 0.8138 -0.3209
vn 0.1660 0.2652 -0.9498
vn 0.0930 0.7768 -0.6229
vn 0.0069 0.9998 -0.0192
vn 0.1676 -0.0211 -0.9856
vn -0.6076 -0.0118 -0.7942
usemtl citybits_texture
s 1
f 15/1/1 28/2/2 17/3/3 9/4/4
f 11/5/5 20/6/6 22/7/7 12/8/8
f 12/8/8 22/7/7 24/9/9 13/10/10
f 13/10/10 24/9/9 26/11/11 14/12/12
f 14/12/12 26/11/11 28/2/2 15/1/1
f 9/4/4 17/3/3 18/13/13 10/14/14
f 10/14/14 18/13/13 20/6/6 11/5/5
f 27/15/15 7/16/16 8/17/17 29/18/18
f 25/19/19 6/20/20 7/16/16 27/15/15
f 23/21/21 5/22/22 6/20/20 25/19/19
f 21/23/23 4/24/24 5/22/22 23/21/21
f 19/25/25 2/26/26 4/24/24 21/23/23
f 16/27/27 3/28/28 2/26/26 19/25/25
f 1/29/29 2/26/26 3/28/28
f 1/29/29 4/24/24 2/26/26
f 1/29/29 5/22/22 4/24/24
f 1/29/29 6/20/20 5/22/22
f 1/29/29 7/16/16 6/20/20
f 1/29/29 8/17/17 7/16/16
f 1/29/29 3/28/28 8/17/17
f 29/18/18 16/27/27 17/3/30 28/2/31
f 27/15/15 29/18/18 28/2/31 26/11/11
f 25/19/19 27/15/15 26/11/11 24/9/9
f 23/21/21 25/19/19 24/9/9 22/7/7
f 21/23/23 23/21/21 22/7/7 20/6/6
f 19/25/25 21/23/23 20/6/6 18/13/13
f 16/27/27 19/25/25 18/13/13 17/3/30
f 29/18/18 8/17/17 3/28/28 16/27/27
