# Blender v3.4.1 OBJ File: 'CityBits_Export_Extra.blend'
# www.blender.org
mtllib bush_A.mtl
o bush_A_Cube.14215
v 0.156863 0.000000 -0.130029
v 0.194208 0.000000 0.046412
v 0.084304 0.000000 0.190480
v -0.096317 0.000000 0.186778
v -0.199083 0.000000 0.037892
v -0.147569 0.000000 -0.136777
v 0.008532 0.000000 -0.210113
v 0.012316 0.037751 -0.271982
v 0.013086 0.151678 -0.271859
v 0.201653 0.039794 -0.168898
v -0.188357 0.037738 -0.178574
v -0.187178 0.152487 -0.178877
v -0.258415 0.043452 0.046655
v -0.257559 0.159810 0.046000
v -0.126315 0.046461 0.241689
v -0.126396 0.145011 0.241256
v 0.110041 0.045021 0.247184
v 0.109579 0.161731 0.247520
v 0.251465 0.042248 0.059371
v 0.251100 0.159132 0.059953
v 0.201626 0.155928 -0.168466
v 0.156349 0.280233 0.040303
v 0.128730 0.277682 -0.103156
v 0.066068 0.282207 0.155196
v 0.000831 0.336545 0.000307
v -0.077825 0.282684 0.150536
v -0.158997 0.280039 0.029845
v -0.117469 0.276137 -0.111047
v 0.008916 0.275472 -0.169496
vt 0.282522 0.383258
vt 0.280714 0.392758
vt 0.287182 0.403326
vt 0.287716 0.391764
vt 0.293775 0.406887
vt 0.293057 0.394587
vt 0.280164 0.403700
vt 0.286629 0.414248
vt 0.293190 0.417776
vt 0.278368 0.393479
vt 0.278927 0.382659
vt 0.281207 0.375130
vt 0.283341 0.391199
vt 0.283924 0.380447
vt 0.285212 0.373446
vt 0.291314 0.399217
vt 0.291905 0.388496
vt 0.291502 0.379872
vt 0.295530 0.411293
vt 0.296126 0.400502
vt 0.294894 0.389422
vt 0.291255 0.426381
vt 0.288577 0.419050
vt 0.289934 0.430456
vt 0.285533 0.454687
vt 0.285816 0.428375
vt 0.283785 0.414179
vt 0.280755 0.415515
vt 0.281779 0.421817
vn -0.4334 -0.8327 -0.3446
vn -0.6810 -0.4287 -0.5937
vn 0.0309 -0.4360 -0.8994
vn 0.0147 -0.8513 -0.5245
vn 0.7240 -0.4256 -0.5428
vn 0.4584 -0.8305 -0.3164
vn -0.7114 0.3061 -0.6326
vn 0.0313 0.3105 -0.9501
vn 0.7574 0.3097 -0.5748
vn -0.9384 0.3164 0.1393
vn -0.9025 -0.4074 0.1394
vn -0.5744 -0.8121 0.1025
vn -0.4613 0.2908 0.8382
vn -0.4379 -0.4031 0.8036
vn -0.2795 -0.8072 0.5198
vn 0.4059 0.3162 0.8575
vn 0.3946 -0.4073 0.8236
vn 0.2532 -0.8099 0.5291
vn 0.9298 0.3068 0.2032
vn 0.8894 -0.4120 0.1980
vn 0.5692 -0.8113 0.1335
vn 0.6100 0.7813 0.1326
vn 0.2580 0.7891 0.5574
vn 0.5012 0.7807 -0.3733
vn -0.0006 0.9998 -0.0196
vn 0.0163 0.7823 -0.6227
vn -0.3055 0.7820 0.5432
vn -0.6179 0.7815 0.0862
vn -0.4716 0.7753 -0.4201
usemtl citybits_texture
s 1
f 6/1/1 11/2/2 8/3/3 7/4/4
f 7/4/4 8/3/3 10/5/5 1/6/6
f 12/7/7 9/8/8 8/3/3 11/2/2
f 9/8/8 21/9/9 10/5/5 8/3/3
f 14/10/10 12/7/7 11/2/2 13/11/11
f 5/12/12 13/11/11 11/2/2 6/1/1
f 16/13/13 14/10/10 13/11/11 15/14/14
f 4/15/15 15/14/14 13/11/11 5/12/12
f 18/16/16 16/13/13 15/14/14 17/17/17
f 3/18/18 17/17/17 15/14/14 4/15/15
f 20/19/19 18/16/16 17/17/17 19/20/20
f 2/21/21 19/20/20 17/17/17 3/18/18
f 21/9/9 20/19/19 19/20/20 10/5/5
f 1/6/6 10/5/5 19/20/20 2/21/21
f 20/19/19 22/22/22 24/23/23 18/16/16
f 21/9/9 23/24/24 22/22/22 20/19/19
f 25/25/25 22/22/22 23/24/24
f 25/25/25 24/23/23 22/22/22
f 25/25/25 23/24/24 29/26/26
f 25/25/25 26/27/27 24/23/23
f 25/25/25 27/28/28 26/27/27
f 25/25/25 28/29/29 27/28/28
f 25/25/25 29/26/26 28/29/29
f 12/7/7 28/29/29 29/26/26 9/8/8
f 9/8/8 29/26/26 23/24/24 21/9/9
f 14/10/10 27/28/28 28/29/29 12/7/7
f 16/13/13 26/27/27 27/28/28 14/10/10
f 18/16/16 24/23/23 26/27/27 16/13/13
