# Blender v3.4.1 OBJ File: 'CityBits_Export_Extra.blend'
# www.blender.org
mtllib park_wall_outerCorner.mtl
o park_wall_outerCorner_Cube.14200
v -1.000000 0.000000 1.000000
v -1.000000 0.100000 1.000000
v -1.000000 0.000000 -1.000000
v -1.000000 0.100000 -1.000000
v 1.000000 0.000000 1.000000
v 1.000000 0.100000 1.000000
v 1.000000 0.000000 -1.000000
v 1.000000 0.100000 -1.000000
v 0.900000 0.000000 -1.000000
v 0.900000 0.100000 -1.000000
v -0.900000 0.000000 1.000000
v 0.900000 0.000000 1.000000
v 0.900000 0.100000 1.000000
v -0.900000 0.100000 1.000000
v -1.000000 0.000000 0.900000
v -1.000000 0.100000 0.900000
v 1.000000 0.000000 0.900000
v 1.000000 0.000000 -0.900000
v 1.000000 0.100000 -0.900000
v 1.000000 0.100000 0.900000
v 0.900000 0.100000 -0.900000
v 0.900000 0.100000 0.900000
v -0.900000 0.100000 0.900000
v -0.900000 0.000000 0.900000
v 0.900000 0.000000 -0.900000
v 0.900000 0.000000 0.900000
v 0.400000 0.000000 -1.000000
v 0.400000 0.100000 -1.000000
v 0.600000 0.000000 1.000000
v 0.600000 0.100000 1.000000
v 0.600000 0.000000 -0.900000
v 0.600000 0.000000 0.900000
v 0.600000 0.100000 -0.900000
v 0.600000 0.100000 0.900000
v -1.000000 0.000000 0.400000
v 1.000000 0.100000 0.600000
v 0.900000 0.100000 0.600000
v -0.900000 0.100000 0.600000
v -0.900000 0.000000 0.600000
v 0.900000 0.000000 0.600000
v -1.000000 0.100000 0.400000
v 1.000000 0.000000 0.600000
v 0.400000 0.100000 0.400000
v 0.400000 0.000000 0.400000
v 0.600000 0.100000 -1.000000
v -1.000000 0.100000 0.600000
v 0.400000 0.100000 -1.000000
v -1.000000 0.100000 0.400000
v 0.600000 0.300000 -1.000000
v -1.000000 0.300000 0.600000
v 0.400000 0.300000 -1.000000
v -1.000000 0.300000 0.400000
v 0.600000 0.100000 0.030964
v 0.030964 0.100000 0.600000
v 0.572149 0.100000 0.206806
v 0.491324 0.100000 0.365435
v 0.365435 0.100000 0.491324
v 0.206806 0.100000 0.572149
v -0.169036 0.100000 0.400000
v 0.400000 0.100000 -0.169036
v 0.036806 0.100000 0.392149
v 0.195435 0.100000 0.321324
v 0.321324 0.100000 0.195435
v 0.392149 0.100000 0.036806
v 0.030964 0.300000 0.600000
v 0.600000 0.300000 0.030964
v 0.206806 0.300000 0.572149
v 0.365435 0.300000 0.491324
v 0.491324 0.300000 0.365435
v 0.572149 0.300000 0.206806
v 0.400000 0.300000 -0.169036
v -0.169036 0.300000 0.400000
v 0.392149 0.300000 0.036806
v 0.321324 0.300000 0.195435
v 0.195435 0.300000 0.321324
v 0.036806 0.300000 0.392149
v 0.650000 0.300000 -1.000000
v -1.000000 0.300000 0.650000
v 0.350000 0.300000 -1.000000
v -1.000000 0.300000 0.350000
v 0.350000 0.400000 -1.000000
v -1.000000 0.400000 0.350000
v 0.650000 0.300000 0.080964
v 0.080964 0.300000 0.650000
v 0.622149 0.300000 0.256806
v 0.541324 0.300000 0.415435
v 0.415435 0.300000 0.541324
v 0.256806 0.300000 0.622149
v -0.219036 0.300000 0.350000
v 0.350000 0.300000 -0.219036
v -0.003194 0.300000 0.352149
v 0.165435 0.300000 0.291324
v 0.291324 0.300000 0.165435
v 0.352149 0.300000 -0.003194
v 0.350000 0.400000 -0.219036
v -0.219036 0.400000 0.350000
v 0.352149 0.400000 -0.003194
v 0.291324 0.400000 0.165435
v 0.165435 0.400000 0.291324
v -0.003194 0.400000 0.352149
v 0.599840 0.400000 -1.000000
v 0.650000 0.350000 -1.000000
v -1.000000 0.350000 0.650000
v -1.000000 0.400000 0.599840
v 0.039291 0.400000 0.600160
v 0.080964 0.350000 0.650000
v 0.650000 0.350000 0.080964
v 0.600160 0.400000 0.039291
v 0.217034 0.400000 0.580848
v 0.256806 0.350000 0.622149
v 0.375004 0.400000 0.500893
v 0.415435 0.350000 0.541324
v 0.500893 0.400000 0.375004
v 0.541324 0.350000 0.415435
v 0.580848 0.400000 0.217034
v 0.622149 0.350000 0.256806
vt 0.331598 0.827342
vt 0.331598 0.847656
vt 0.334371 0.847656
vt 0.334371 0.827342
vt 0.334371 0.827342
vt 0.334371 0.847656
vt 0.334371 0.847656
vt 0.334371 0.827342
vt 0.281683 0.827342
vt 0.281683 0.847656
vt 0.278910 0.847656
vt 0.278910 0.827342
vt 0.331598 0.780467
vt 0.334371 0.780467
vt 0.334371 0.780467
vt 0.331598 0.780467
vt 0.281683 0.878906
vt 0.278910 0.878906
vt 0.278910 0.878906
vt 0.281683 0.878906
vt 0.334371 0.878906
vt 0.331598 0.878906
vt 0.331598 0.878906
vt 0.334371 0.878906
vt 0.324111 0.780467
vt 0.324111 0.780467
vt 0.281683 0.780467
vt 0.281683 0.780467
vt 0.278910 0.780467
vt 0.278910 0.780467
vt 0.331598 0.847656
vt 0.331598 0.827342
vt 0.324111 0.832031
vt 0.331598 0.832031
vt 0.331598 0.811717
vt 0.324111 0.811717
vt 0.324111 0.832031
vt 0.281683 0.832031
vt 0.281683 0.811717
vt 0.324111 0.811717
vt 0.329600 0.381035
vt 0.269398 0.381035
vt 0.329600 0.381035
vt 0.281683 0.780467
vt 0.278910 0.780467
vt 0.273160 0.381035
vt 0.329600 0.381035
vt 0.324111 0.847656
vt 0.331598 0.847656
vt 0.331598 0.847656
vt 0.334371 0.878906
vt 0.331598 0.878906
vt 0.331598 0.878906
vt 0.334371 0.878906
vt 0.331598 0.863281
vt 0.331598 0.863281
vt 0.334371 0.863281
vt 0.334371 0.863281
vt 0.281683 0.863281
vt 0.278910 0.863281
vt 0.278910 0.863281
vt 0.281683 0.863281
vt 0.331598 0.780467
vt 0.334371 0.780467
vt 0.334371 0.780467
vt 0.331598 0.780467
vt 0.331598 0.780467
vt 0.334371 0.780467
vt 0.334371 0.847656
vt 0.334371 0.827342
vt 0.334371 0.832031
vt 0.334371 0.832031
vt 0.334371 0.811717
vt 0.334371 0.811717
vt 0.278910 0.847656
vt 0.278910 0.827342
vt 0.334371 0.832031
vt 0.334371 0.811717
vt 0.324111 0.780467
vt 0.324111 0.780467
vt 0.324111 0.780467
vt 0.331598 0.863281
vt 0.324111 0.863281
vt 0.324111 0.863281
vt 0.331598 0.863281
vt 0.324111 0.863281
vt 0.324111 0.863281
vt 0.331598 0.863281
vt 0.331598 0.832031
vt 0.331598 0.811717
vt 0.281683 0.863281
vt 0.329600 0.368965
vt 0.329600 0.368965
vt 0.269398 0.368965
vt 0.269398 0.381035
vt 0.269398 0.368965
vt 0.334371 0.863281
vt 0.324111 0.847656
vt 0.324111 0.847656
vt 0.331598 0.847656
vt 0.273160 0.368965
vt 0.281683 0.847656
vt 0.281683 0.847656
vt 0.278910 0.832031
vt 0.278910 0.832031
vt 0.278910 0.811717
vt 0.278910 0.811717
vt 0.329600 0.368965
vt 0.258101 0.877620
vt 0.298076 0.877620
vt 0.298076 0.894960
vt 0.258101 0.894960
vt 0.290321 0.877620
vt 0.258101 0.877620
vt 0.258101 0.894960
vt 0.290321 0.894960
vt 0.258101 0.861995
vt 0.258101 0.861995
vt 0.258101 0.879335
vt 0.258101 0.879335
vt 0.312385 0.877620
vt 0.312385 0.877620
vt 0.312385 0.894960
vt 0.312385 0.894960
vt 0.320139 0.861995
vt 0.312385 0.861995
vt 0.312385 0.879335
vt 0.320139 0.879335
vt 0.298302 0.894960
vt 0.298302 0.877620
vt 0.304453 0.894960
vt 0.304453 0.877620
vt 0.309334 0.894960
vt 0.309334 0.877620
vt 0.312080 0.894960
vt 0.312080 0.877620
vt 0.304894 0.877620
vt 0.304894 0.894960
vt 0.311044 0.877620
vt 0.311044 0.894960
vt 0.315926 0.877620
vt 0.315926 0.894960
vt 0.319060 0.877620
vt 0.319060 0.894960
vt 0.320139 0.877620
vt 0.320139 0.894960
vt 0.320139 0.877620
vt 0.320139 0.894960
vt 0.258101 0.934880
vt 0.298398 0.934880
vt 0.288382 0.934880
vt 0.258101 0.934880
vt 0.300014 0.899295
vt 0.300014 0.894960
vt 0.306832 0.894960
vt 0.306832 0.899295
vt 0.288382 0.894960
vt 0.258101 0.894960
vt 0.258101 0.903630
vt 0.288382 0.903630
vt 0.258101 0.894960
vt 0.258101 0.899295
vt 0.258101 0.903630
vt 0.310446 0.894960
vt 0.310446 0.894960
vt 0.310446 0.903630
vt 0.310446 0.903630
vt 0.322078 0.894960
vt 0.322078 0.894960
vt 0.322078 0.899295
vt 0.322078 0.899295
vt 0.312983 0.894960
vt 0.312983 0.899295
vt 0.317864 0.899295
vt 0.317864 0.894960
vt 0.320998 0.894960
vt 0.320998 0.899295
vt 0.296751 0.903630
vt 0.296751 0.894960
vt 0.303290 0.903630
vt 0.303290 0.894960
vt 0.308171 0.903630
vt 0.308171 0.894960
vt 0.310529 0.903630
vt 0.310529 0.894960
vt 0.305290 0.934880
vt 0.296751 0.934880
vt 0.311416 0.934880
vt 0.303290 0.934880
vt 0.316297 0.934880
vt 0.308171 0.934880
vt 0.319397 0.934880
vt 0.310529 0.934880
vt 0.320146 0.934880
vt 0.310446 0.934880
vt 0.320133 0.934880
vt 0.310446 0.934880
vt 0.258101 0.879335
vt 0.288382 0.879335
vt 0.300014 0.879335
vt 0.258101 0.879335
vt 0.306832 0.879335
vt 0.296751 0.879335
vt 0.312983 0.879335
vt 0.303290 0.879335
vt 0.317864 0.879335
vt 0.308171 0.879335
vt 0.320998 0.879335
vt 0.310529 0.879335
vt 0.322078 0.879335
vt 0.310446 0.879335
vt 0.310446 0.879335
vt 0.322078 0.879335
vt 0.320998 0.914920
vt 0.322078 0.914920
vt 0.320146 0.919255
vt 0.319397 0.919255
vt 0.317864 0.914920
vt 0.316297 0.919255
vt 0.312983 0.914920
vt 0.311416 0.919255
vt 0.306832 0.914920
vt 0.305290 0.919255
vt 0.300014 0.914920
vt 0.298398 0.919255
vt 0.320133 0.919255
vt 0.322078 0.914920
vt 0.258101 0.919255
vt 0.258101 0.914920
vt 0.320133 0.903630
vn 0.0000 0.0000 -1.0000
vn 1.0000 0.0000 0.0000
vn 0.0000 0.0000 1.0000
vn 0.0000 -1.0000 0.0000
vn 0.0000 1.0000 0.0000
vn -1.0000 0.0000 0.0000
vn 0.0785 0.0000 0.9969
vn -0.0191 0.0000 -0.9998
vn -0.9998 0.0000 -0.0191
vn -0.2270 0.0000 -0.9739
vn -0.5668 0.0000 -0.8238
vn -0.8238 0.0000 -0.5668
vn -0.9739 0.0000 -0.2270
vn 0.3090 0.0000 0.9511
vn 0.5878 0.0000 0.8090
vn 0.8090 0.0000 0.5878
vn 0.9511 0.0000 0.3090
vn 0.9969 0.0000 0.0785
vn 0.0050 -0.0000 -1.0000
vn -1.0000 0.0000 0.0050
vn -0.1673 0.0000 -0.9859
vn -0.5361 0.0000 -0.8442
vn -0.8442 0.0000 -0.5361
vn -0.9859 0.0000 -0.1673
vn 0.6430 0.7320 0.2252
vn 0.7012 0.7104 0.0611
vn 0.7043 0.7091 0.0322
vn 0.6638 0.7263 0.1786
vn 0.5312 0.7499 0.3943
vn 0.5416 0.7487 0.3822
vn 0.3943 0.7499 0.5312
vn 0.3822 0.7487 0.5416
vn 0.2252 0.7320 0.6430
vn 0.1786 0.7263 0.6638
vn 0.0611 0.7104 0.7012
vn 0.0322 0.7091 0.7043
vn 0.7071 0.7071 -0.0001
vn -0.0001 0.7071 0.7071
usemtl citybits_texture
s 1
f 9/1/1 10/2/1 8/3/1 7/4/1
f 17/5/2 20/6/2 6/7/2 5/8/2
f 11/9/3 14/10/3 2/11/3 1/12/3
f 26/13/4 17/14/4 5/15/4 12/16/4
f 23/17/5 16/18/5 2/19/5 14/20/5
f 20/21/5 22/22/5 13/23/5 6/24/5
f 32/25/4 29/26/4 11/27/4 24/28/4
f 15/29/4 24/28/4 11/27/4 1/30/4
f 5/8/3 6/7/3 13/31/3 12/32/3
f 28/33/1 10/34/1 9/35/1 27/36/1
f 30/37/3 14/38/3 11/39/3 29/40/3
f 28/41/5 4/42/5 33/43/5
f 39/44/4 24/28/4 15/29/4 35/45/4
f 38/46/5 43/47/5 33/43/5 4/42/5
f 34/48/5 22/49/5 37/50/5
f 8/51/5 10/52/5 21/53/5 19/54/5
f 37/55/5 22/56/5 20/57/5 36/58/5
f 38/59/5 41/60/5 16/61/5 23/62/5
f 9/63/4 7/64/4 18/65/4 25/66/4
f 40/67/4 42/68/4 17/14/4 26/13/4
f 7/4/2 8/3/2 19/69/2 18/70/2
f 36/71/2 20/72/2 17/73/2 42/74/2
f 1/12/6 2/11/6 16/75/6 15/76/6
f 19/77/2 36/71/2 42/74/2 18/78/2
f 44/79/4 32/25/4 24/28/4 39/44/4
f 9/63/4 25/66/4 31/80/4 27/81/4
f 40/67/4 26/13/4 32/25/4
f 13/82/5 22/56/5 34/83/5 30/84/5
f 10/85/5 28/86/5 33/87/5 21/88/5
f 25/66/4 40/67/4 44/79/4 31/80/4
f 13/89/3 30/37/3 29/40/3 12/90/3
f 26/13/4 12/16/4 29/26/4 32/25/4
f 30/84/5 34/83/5 23/62/5 14/91/5
f 27/92/4 31/93/4 3/94/4
f 41/95/6 4/42/6 3/94/6 35/96/6
f 18/65/4 42/68/4 40/67/4 25/66/4
f 4/42/5 41/95/5 38/46/5
f 21/88/5 37/55/5 36/58/5 19/97/5
f 33/98/5 43/99/5 37/50/5 21/100/5
f 3/94/4 39/101/4 35/96/4
f 38/102/5 23/103/5 34/48/5 43/99/5
f 16/104/6 41/105/6 35/106/6 15/107/6
f 44/108/4 39/101/4 3/94/4 31/93/4
f 4/42/1 28/41/1 27/92/1 3/94/1
f 43/99/5 34/48/5 37/50/5
f 44/79/4 40/67/4 32/25/4
f 46/109/3 54/110/7 65/111/7 50/112/3
f 59/113/8 48/114/1 52/115/1 72/116/8
f 48/117/6 46/118/6 50/119/6 52/120/6
f 47/121/6 60/122/9 71/123/9 51/124/6
f 45/125/1 47/126/1 51/127/1 49/128/1
f 59/113/8 72/116/8 76/129/10 61/130/10
f 61/130/10 76/129/10 75/131/11 62/132/11
f 62/132/11 75/131/11 74/133/12 63/134/12
f 63/134/12 74/133/12 73/135/13 64/136/13
f 64/136/13 73/135/13 71/123/9 60/122/9
f 65/111/7 54/110/7 58/137/14 67/138/14
f 67/138/14 58/137/14 57/139/15 68/140/15
f 68/140/15 57/139/15 56/141/16 69/142/16
f 69/142/16 56/141/16 55/143/17 70/144/17
f 70/144/17 55/143/17 53/145/18 66/146/18
f 53/145/18 45/147/2 49/148/2 66/146/18
f 104/149/5 105/150/5 96/151/5 82/152/5
f 106/153/7 84/154/7 88/155/14 110/156/14
f 89/157/19 80/158/1 82/159/1 96/160/19
f 78/161/3 84/154/7 106/153/7 103/162/3
f 78/161/6 103/162/6 104/163/6 82/159/6
f 79/164/6 90/165/20 95/166/20 81/167/6
f 83/168/18 77/169/2 102/170/2 107/171/18
f 110/156/14 88/155/14 87/172/15 112/173/15
f 80/158/6 78/161/6 82/159/6
f 114/174/16 86/175/16 85/176/17 116/177/17
f 112/173/15 87/172/15 86/175/16 114/174/16
f 116/177/17 85/176/17 83/168/18 107/171/18
f 89/157/19 96/160/19 100/178/21 91/179/21
f 91/179/21 100/178/21 99/180/22 92/181/22
f 92/181/22 99/180/22 98/182/23 93/183/23
f 93/183/23 98/182/23 97/184/24 94/185/24
f 94/185/24 97/184/24 95/166/20 90/165/20
f 109/186/5 100/187/5 96/151/5 105/150/5
f 111/188/5 99/189/5 100/187/5 109/186/5
f 113/190/5 98/191/5 99/189/5 111/188/5
f 115/192/5 97/193/5 98/191/5 113/190/5
f 108/194/5 95/195/5 97/193/5 115/192/5
f 101/196/5 81/197/5 95/195/5 108/194/5
f 80/198/4 89/199/4 84/200/4 78/201/4
f 88/202/4 84/200/4 89/199/4 91/203/4
f 87/204/4 88/202/4 91/203/4 92/205/4
f 86/206/4 87/204/4 92/205/4 93/207/4
f 85/208/4 86/206/4 93/207/4 94/209/4
f 83/210/4 85/208/4 94/209/4 90/211/4
f 79/212/4 77/213/4 83/210/4 90/211/4
f 116/214/25 107/215/26 108/216/27 115/217/28
f 114/218/29 116/214/25 115/217/28 113/219/30
f 112/220/31 114/218/29 113/219/30 111/221/32
f 110/222/33 112/220/31 111/221/32 109/223/34
f 106/224/35 110/222/33 109/223/34 105/225/36
f 101/226/37 108/216/27 107/215/26 102/227/37
f 105/225/36 104/228/38 103/229/38 106/224/35
f 77/169/1 79/164/1 81/167/1
f 102/170/1 77/169/1 81/167/1 101/230/1
