# Blender v3.4.1 OBJ File: 'CityBits_Export_Extra.blend'
# www.blender.org
mtllib park_road_corner.mtl
o park_road_corner_Cube.14207
v -1.000000 0.000000 1.000000
v -1.000000 0.100000 1.000000
v -1.000000 0.000000 -1.000000
v -1.000000 0.100000 -1.000000
v 1.000000 0.000000 1.000000
v 1.000000 0.100000 1.000000
v 1.000000 0.000000 -1.000000
v 1.000000 0.100000 -1.000000
v -0.250000 0.000000 1.000000
v 0.250000 0.000000 1.000000
v -0.250000 0.100000 1.000000
v 1.000000 0.000000 -0.250000
v 1.000000 0.000000 0.250000
v 1.000000 0.100000 -0.250000
v -0.225982 0.100000 0.756137
v -0.154849 0.100000 0.521646
v -0.039337 0.100000 0.305537
v 0.116117 0.100000 0.116117
v 0.305537 0.100000 -0.039337
v 0.521646 0.100000 -0.154849
v 0.756137 0.100000 -0.225982
v 1.000000 0.100000 0.250000
v 0.250000 0.100000 1.000000
v 0.712987 0.100000 0.307090
v 0.853682 0.100000 0.264411
v 0.583322 0.100000 0.376398
v 0.469670 0.100000 0.469670
v 0.376398 0.100000 0.583322
v 0.307090 0.100000 0.712987
v 0.264411 0.100000 0.853682
vt 0.289465 0.381035
vt 0.269398 0.381035
vt 0.269398 0.368965
vt 0.289465 0.368965
vt 0.329609 0.380852
vt 0.329609 0.380852
vt 0.329609 0.368847
vt 0.329609 0.368847
vt 0.269398 0.368965
vt 0.269398 0.381035
vt 0.329600 0.381035
vt 0.329600 0.368965
vt 0.329600 0.337715
vt 0.329600 0.337715
vt 0.309533 0.337715
vt 0.329600 0.337715
vt 0.289465 0.337715
vt 0.329600 0.381035
vt 0.309533 0.381035
vt 0.309533 0.368965
vt 0.329600 0.368965
vt 0.684533 0.631035
vt 0.664465 0.631035
vt 0.664465 0.618965
vt 0.684533 0.618965
vt 0.289465 0.381035
vt 0.289465 0.381035
vt 0.269398 0.337715
vt 0.269398 0.337715
vt 0.329609 0.380852
vt 0.329609 0.380852
vt 0.329609 0.368847
vt 0.329609 0.368847
vt 0.704609 0.630852
vt 0.704609 0.630852
vt 0.704609 0.618847
vt 0.704609 0.618847
vt 0.295102 0.381035
vt 0.289465 0.381035
vt 0.292011 0.381035
vt 0.704600 0.631035
vt 0.704600 0.631035
vt 0.696844 0.631035
vt 0.700730 0.631035
vt 0.689688 0.631035
vt 0.697159 0.631035
vt 0.683678 0.631035
vt 0.694086 0.631035
vt 0.679159 0.631035
vt 0.684533 0.631035
vt 0.672920 0.631035
vt 0.689606 0.631035
vt 0.668284 0.631035
vt 0.686824 0.631035
vt 0.665429 0.631035
vt 0.685111 0.631035
vt 0.326056 0.381035
vt 0.325685 0.381035
vt 0.321921 0.381035
vt 0.322649 0.381035
vt 0.318451 0.381035
vt 0.319509 0.381035
vt 0.315410 0.381035
vt 0.316756 0.381035
vt 0.312915 0.381035
vt 0.314497 0.381035
vt 0.311060 0.381035
vt 0.312819 0.381035
vt 0.309918 0.381035
vt 0.327706 0.381035
vt 0.329600 0.381035
vt 0.311785 0.381035
vt 0.290108 0.381035
vt 0.289465 0.381035
vt 0.329600 0.381035
vt 0.329600 0.337715
vn 0.0000 0.0000 1.0000
vn 1.0000 0.0000 0.0000
vn -1.0000 0.0000 0.0000
vn 0.0000 0.0000 -1.0000
vn 0.0000 -1.0000 0.0000
vn 0.0000 1.0000 -0.0000
usemtl citybits_texture
s 1
f 11/1/1 2/2/1 1/3/1 9/4/1
f 22/5/2 6/6/2 5/7/2 13/8/2
f 3/9/3 1/3/3 2/2/3 4/10/3
f 4/10/4 8/11/4 7/12/4 3/9/4
f 13/13/5 5/14/5 10/15/5
f 12/16/5 13/13/5 10/15/5 9/17/5
f 6/18/1 23/19/1 10/20/1 5/21/1
f 23/22/1 11/23/1 9/24/1 10/25/1
f 19/26/6 20/27/6 8/11/6
f 9/17/5 1/28/5 3/29/5
f 8/30/2 14/31/2 12/32/2 7/33/2
f 14/34/2 22/35/2 13/36/2 12/37/2
f 12/16/5 9/17/5 3/29/5
f 4/10/6 19/26/6 8/11/6
f 17/38/6 18/39/6 4/10/6
f 18/39/6 19/26/6 4/10/6
f 16/40/6 17/38/6 2/2/6
f 22/41/6 14/42/6 21/43/6 25/44/6
f 25/44/6 21/43/6 20/45/6 24/46/6
f 24/46/6 20/45/6 19/47/6 26/48/6
f 26/48/6 19/47/6 18/49/6 27/50/6
f 27/50/6 18/49/6 17/51/6 28/52/6
f 28/52/6 17/51/6 16/53/6 29/54/6
f 29/54/6 16/53/6 15/55/6 30/56/6
f 30/56/6 15/55/6 11/23/6 23/22/6
f 6/57/6 25/58/6 24/59/6
f 6/60/6 24/59/6 26/61/6
f 6/62/6 26/61/6 27/63/6
f 6/64/6 27/63/6 28/65/6
f 6/66/6 28/65/6 29/67/6
f 6/68/6 29/67/6 30/69/6
f 6/70/6 22/71/6 25/58/6
f 6/72/6 30/69/6 23/19/6
f 15/73/6 16/40/6 2/2/6
f 11/1/6 15/73/6 2/2/6
f 21/74/6 14/75/6 8/11/6
f 20/27/6 21/74/6 8/11/6
f 17/38/6 4/10/6 2/2/6
f 7/76/5 12/16/5 3/29/5
