# Blender v3.4.1 OBJ File: 'CityBits_Export_Extra.blend'
# www.blender.org
mtllib park_road_tsplit.mtl
o park_road_tsplit_Cube.14205
v 0.000000 0.000000 0.000000
v -1.000000 0.100000 1.000000
v 1.000000 0.100000 1.000000
v 1.000000 0.100000 0.250000
v -0.250000 0.100000 1.000000
v 0.250000 0.100000 1.000000
v -1.000000 0.100000 0.250000
v 0.250000 0.100000 0.750000
v 0.288060 0.100000 0.558658
v 0.396447 0.100000 0.396447
v 0.558658 0.100000 0.288060
v 0.750000 0.100000 0.250000
v -0.750000 0.100000 0.250000
v -0.558658 0.100000 0.288060
v -0.396447 0.100000 0.396447
v -0.288060 0.100000 0.558658
v -0.250000 0.100000 0.750000
v 0.000000 0.100000 0.000000
v -1.000000 0.100000 -1.000000
v 1.000000 0.100000 -1.000000
v 1.000000 0.100000 -0.250000
v -1.000000 0.100000 -0.250000
v -1.000000 0.000000 0.250000
v -1.000000 0.000000 1.000000
v 0.250000 0.000000 1.000000
v 1.000000 0.000000 1.000000
v -0.250000 0.000000 1.000000
v 1.000000 0.000000 0.250000
v 1.000000 0.000000 -1.000000
v -1.000000 0.000000 -1.000000
v 1.000000 0.000000 -0.250000
v -1.000000 0.000000 -0.250000
vt 0.289465 0.381035
vt 0.269398 0.381035
vt 0.269398 0.368965
vt 0.289465 0.368965
vt 0.269398 0.381035
vt 0.269398 0.368965
vt 0.329609 0.380852
vt 0.329609 0.380852
vt 0.329609 0.368847
vt 0.329609 0.368847
vt 0.329600 0.381035
vt 0.309533 0.381035
vt 0.309533 0.368965
vt 0.329600 0.368965
vt 0.684533 0.631035
vt 0.664465 0.631035
vt 0.664465 0.618965
vt 0.684533 0.618965
vt 0.664465 0.631035
vt 0.697911 0.631035
vt 0.697911 0.631035
vt 0.704609 0.630852
vt 0.704609 0.618847
vt 0.664465 0.618965
vt 0.664465 0.631035
vt 0.684533 0.631035
vt 0.664465 0.631035
vt 0.644398 0.631035
vt 0.651087 0.631035
vt 0.692791 0.631035
vt 0.692791 0.631035
vt 0.662938 0.631035
vt 0.685551 0.631035
vt 0.658588 0.631035
vt 0.688451 0.631035
vt 0.313942 0.381035
vt 0.310551 0.381035
vt 0.309533 0.381035
vt 0.316047 0.381035
vt 0.313451 0.381035
vt 0.323266 0.381035
vt 0.322911 0.381035
vt 0.317791 0.381035
vt 0.319196 0.381035
vt 0.279802 0.381035
vt 0.281206 0.381035
vt 0.276087 0.381035
vt 0.282951 0.381035
vt 0.285547 0.381035
vt 0.285865 0.381035
vt 0.289465 0.381035
vt 0.288447 0.381035
vt 0.285055 0.381035
vt 0.326000 0.381035
vt 0.329600 0.381035
vt 0.275732 0.381035
vt 0.313133 0.381035
vt 0.659567 0.631035
vt 0.689431 0.631035
vt 0.656206 0.631035
vt 0.656206 0.631035
vt 0.651087 0.631035
vt 0.289465 0.381035
vt 0.289465 0.381035
vt 0.269398 0.381035
vt 0.269398 0.381035
vt 0.269398 0.368965
vt 0.289465 0.368965
vt 0.269398 0.368965
vt 0.289465 0.368965
vt 0.664465 0.618965
vt 0.644398 0.618965
vt 0.299503 0.337656
vt 0.271214 0.337656
vt 0.271214 0.337656
vt 0.327793 0.337656
vt 0.306576 0.337656
vt 0.292431 0.337656
vt 0.327793 0.337656
vt 0.271214 0.337656
vt 0.327793 0.337656
vt 0.327793 0.337656
vt 0.271214 0.337656
vt 0.704600 0.631035
vn 0.0000 0.0000 1.0000
vn -1.0000 0.0000 0.0000
vn 1.0000 0.0000 0.0000
vn 0.0000 1.0000 0.0000
vn 0.0000 0.0000 -1.0000
vn 0.0000 -1.0000 0.0000
usemtl citybits_texture
s 1
f 5/1/1 2/2/1 24/3/1 27/4/1
f 7/5/2 23/6/2 24/3/2 2/2/2
f 4/7/3 3/8/3 26/9/3 28/10/3
f 3/11/1 6/12/1 25/13/1 26/14/1
f 6/15/1 5/16/1 27/17/1 25/18/1
f 21/19/4 18/20/4 12/21/4
f 21/19/3 4/22/3 28/23/3 31/24/3
f 17/25/4 5/16/4 6/15/4 8/26/4
f 22/27/4 7/28/4 13/29/4
f 18/30/4 11/31/4 12/21/4
f 16/32/4 17/25/4 8/26/4 9/33/4
f 15/34/4 16/32/4 9/33/4 10/35/4
f 3/36/4 9/37/4 8/38/4
f 3/39/4 10/40/4 9/37/4
f 3/41/4 12/42/4 11/43/4
f 3/44/4 11/43/4 10/40/4
f 2/45/4 14/46/4 13/47/4
f 2/48/4 15/49/4 14/46/4
f 2/50/4 17/51/4 16/52/4
f 2/53/4 16/52/4 15/49/4
f 3/54/4 4/55/4 12/42/4
f 2/56/4 13/47/4 7/5/4
f 3/57/4 8/38/4 6/12/4
f 2/50/4 5/1/4 17/51/4
f 15/34/4 10/35/4 18/58/4
f 10/35/4 11/31/4 18/59/4
f 14/60/4 15/34/4 18/61/4
f 14/60/4 18/62/4 13/29/4
f 22/63/4 21/64/4 20/65/4 19/66/4
f 22/63/2 19/66/2 30/67/2 32/68/2
f 20/65/5 29/69/5 30/67/5 19/66/5
f 20/65/3 21/64/3 31/70/3 29/69/3
f 18/20/4 21/19/4 22/27/4
f 22/27/2 32/71/2 23/72/2 7/28/2
f 1/73/6 24/74/6 23/75/6
f 1/73/6 26/76/6 25/77/6
f 1/73/6 27/78/6 24/74/6
f 1/73/6 25/77/6 27/78/6
f 1/73/6 28/79/6 26/76/6
f 1/73/6 30/80/6 29/81/6
f 1/73/6 29/81/6 31/82/6
f 1/73/6 32/83/6 30/80/6
f 1/73/6 23/75/6 32/83/6
f 1/73/6 31/82/6 28/79/6
f 4/84/4 21/19/4 12/21/4
f 18/62/4 22/27/4 13/29/4
