# Blender v3.4.1 OBJ File: 'CityBits_Export_Extra.blend'
# www.blender.org
mtllib park_base.mtl
o park_base_Cube.14208
v -1.000000 0.000000 1.000000
v -1.000000 0.100000 1.000000
v -1.000000 0.000000 -1.000000
v -1.000000 0.100000 -1.000000
v 1.000000 0.000000 1.000000
v 1.000000 0.100000 1.000000
v 1.000000 0.000000 -1.000000
v 1.000000 0.100000 -1.000000
vt 0.329600 0.381035
vt 0.329600 0.381035
vt 0.269398 0.381035
vt 0.269398 0.381035
vt 0.269398 0.368965
vt 0.329600 0.368965
vt 0.269398 0.368965
vt 0.329609 0.380852
vt 0.329609 0.380852
vt 0.329609 0.368847
vt 0.329609 0.368847
vt 0.329600 0.337715
vt 0.329600 0.337715
vt 0.269398 0.337715
vt 0.269398 0.337715
vt 0.329600 0.368965
vn 0.0000 1.0000 0.0000
vn 0.0000 0.0000 1.0000
vn -1.0000 0.0000 0.0000
vn 1.0000 0.0000 0.0000
vn 0.0000 -1.0000 0.0000
vn 0.0000 0.0000 -1.0000
usemtl citybits_texture
s 1
f 6/1/1 8/2/1 4/3/1 2/4/1
f 6/1/2 2/4/2 1/5/2 5/6/2
f 4/3/3 3/7/3 1/5/3 2/4/3
f 8/8/4 6/9/4 5/10/4 7/11/4
f 7/12/5 5/13/5 1/14/5 3/15/5
f 4/3/6 8/2/6 7/16/6 3/7/6
