# Blender v3.4.1 OBJ File: 'CityBits_Export_Extra.blend'
# www.blender.org
mtllib park_wall_innerCorner.mtl
o park_wall_innerCorner_Cube.14199
v -1.000000 0.000000 1.000000
v -1.000000 0.100000 1.000000
v -1.000000 0.000000 -1.000000
v -1.000000 0.100000 -1.000000
v 1.000000 0.000000 1.000000
v 1.000000 0.100000 1.000000
v 1.000000 0.000000 -1.000000
v 1.000000 0.100000 -1.000000
v 0.900000 0.000000 1.000000
v 0.900000 0.100000 1.000000
v 1.000000 0.000000 0.900000
v 1.000000 0.100000 0.900000
v 0.900000 0.100000 0.900000
v 0.900000 0.000000 0.900000
v 0.400000 0.000000 1.000000
v 0.400000 0.100000 1.000000
v 0.400000 0.000000 0.900000
v 0.500000 0.100000 0.900000
v 1.000000 0.100000 0.400000
v 0.900000 0.100000 0.500000
v 0.900000 0.000000 0.400000
v 1.000000 0.000000 0.400000
v 0.700000 0.100000 0.700000
v 0.700000 0.000000 0.700000
v 0.400000 0.100000 1.000000
v 1.000000 0.100000 0.400000
v 0.600000 0.100000 1.000000
v 1.000000 0.100000 0.600000
v 0.400000 0.300000 1.000000
v 1.000000 0.300000 0.400000
v 0.600000 0.300000 1.000000
v 1.000000 0.300000 0.600000
v 0.427851 0.100000 0.793194
v 0.508676 0.100000 0.634565
v 0.634565 0.100000 0.508676
v 0.793194 0.100000 0.427850
v 0.774565 0.100000 0.628676
v 0.628676 0.100000 0.774565
v 0.793194 0.300000 0.427850
v 0.634565 0.300000 0.508676
v 0.508676 0.300000 0.634565
v 0.427851 0.300000 0.793194
v 0.628676 0.300000 0.774565
v 0.774565 0.300000 0.628676
v 0.350000 0.300000 1.000000
v 1.000000 0.300000 0.350000
v 0.650000 0.300000 1.000000
v 1.000000 0.300000 0.650000
v 0.350000 0.400000 1.000000
v 1.000000 0.400000 0.350000
v 0.367851 0.300000 0.743194
v 0.458676 0.300000 0.584565
v 0.584565 0.300000 0.458676
v 0.743194 0.300000 0.367851
v 0.814565 0.300000 0.668676
v 0.668676 0.300000 0.814565
v 0.743194 0.400000 0.367851
v 0.584565 0.400000 0.458676
v 0.458676 0.400000 0.584565
v 0.367851 0.400000 0.743194
v 0.650000 0.350000 1.000000
v 0.600000 0.400000 1.000000
v 1.000000 0.400000 0.600000
v 1.000000 0.350000 0.650000
v 0.628923 0.400000 0.771025
v 0.668676 0.350000 0.814565
v 0.814565 0.350000 0.668676
v 0.771025 0.400000 0.628922
vt 0.334371 0.827342
vt 0.334371 0.847656
vt 0.334371 0.847656
vt 0.334371 0.827342
vt 0.331598 0.780467
vt 0.334371 0.780467
vt 0.334371 0.780467
vt 0.331598 0.780467
vt 0.334371 0.878906
vt 0.331598 0.878906
vt 0.331598 0.878906
vt 0.334371 0.878906
vt 0.316100 0.368965
vt 0.316100 0.368965
vt 0.273132 0.368965
vt 0.331598 0.847656
vt 0.331598 0.827342
vt 0.317077 0.381035
vt 0.274108 0.381035
vt 0.274108 0.381035
vt 0.317077 0.381035
vt 0.317077 0.381035
vt 0.317077 0.381035
vt 0.274108 0.381035
vt 0.324111 0.847656
vt 0.324111 0.847656
vt 0.331598 0.847656
vt 0.331598 0.863281
vt 0.331598 0.863281
vt 0.334371 0.863281
vt 0.334371 0.863281
vt 0.331598 0.780467
vt 0.334371 0.780467
vt 0.334371 0.832031
vt 0.334371 0.832031
vt 0.334371 0.811717
vt 0.334371 0.811717
vt 0.326843 0.381035
vt 0.326843 0.381035
vt 0.326843 0.381035
vt 0.326843 0.381035
vt 0.316100 0.368965
vt 0.324111 0.780467
vt 0.324111 0.780467
vt 0.331598 0.863281
vt 0.324111 0.863281
vt 0.324111 0.863281
vt 0.323913 0.368965
vt 0.323913 0.368965
vt 0.331598 0.832031
vt 0.324111 0.832031
vt 0.324111 0.811717
vt 0.331598 0.811717
vt 0.324111 0.780467
vt 0.317077 0.381035
vt 0.272155 0.381035
vt 0.272155 0.381035
vt 0.272155 0.381035
vt 0.272155 0.381035
vt 0.325866 0.368965
vt 0.325866 0.368965
vt 0.324890 0.381035
vt 0.324890 0.381035
vt 0.273132 0.368965
vt 0.317077 0.381035
vt 0.274108 0.381035
vt 0.316100 0.368965
vt 0.331598 0.847656
vt 0.313465 0.877620
vt 0.312385 0.877620
vt 0.312385 0.894960
vt 0.313465 0.894960
vt 0.335649 0.861995
vt 0.335649 0.861995
vt 0.335649 0.879335
vt 0.335649 0.879335
vt 0.327631 0.877620
vt 0.327631 0.894960
vt 0.335649 0.894960
vt 0.335649 0.877620
vt 0.312385 0.861995
vt 0.320139 0.861995
vt 0.320139 0.879335
vt 0.312385 0.879335
vt 0.335649 0.877620
vt 0.335649 0.894960
vt 0.326908 0.894960
vt 0.326908 0.877620
vt 0.321252 0.894960
vt 0.321252 0.877620
vt 0.320139 0.894960
vt 0.320139 0.877620
vt 0.321480 0.877620
vt 0.321480 0.894960
vt 0.316598 0.877620
vt 0.316598 0.894960
vt 0.311138 0.894960
vt 0.310446 0.894960
vt 0.310446 0.903630
vt 0.311138 0.903630
vt 0.335649 0.894960
vt 0.335649 0.903630
vt 0.335649 0.903630
vt 0.335649 0.899295
vt 0.325692 0.894960
vt 0.325692 0.903630
vt 0.322803 0.894960
vt 0.322803 0.899295
vt 0.322078 0.899295
vt 0.322078 0.894960
vt 0.328459 0.894960
vt 0.328459 0.899295
vt 0.335649 0.894960
vt 0.314660 0.934880
vt 0.321261 0.934880
vt 0.326771 0.934880
vt 0.319541 0.934880
vt 0.319541 0.894960
vt 0.319541 0.903630
vt 0.314660 0.894960
vt 0.314660 0.903630
vt 0.335649 0.934880
vt 0.335649 0.934880
vt 0.325692 0.934880
vt 0.311138 0.934880
vt 0.322803 0.914920
vt 0.328459 0.914920
vt 0.326771 0.919255
vt 0.321261 0.919255
vt 0.335649 0.914920
vt 0.335649 0.919255
vt 0.322078 0.914920
vt 0.320139 0.919255
vt 0.310446 0.934880
vt 0.320139 0.934880
vt 0.335649 0.879335
vt 0.328459 0.879335
vt 0.325692 0.879335
vt 0.335649 0.879335
vt 0.322078 0.879335
vt 0.310446 0.879335
vt 0.311138 0.879335
vt 0.322803 0.879335
vt 0.314660 0.879335
vt 0.319541 0.879335
vt 0.320139 0.903630
vn 1.0000 0.0000 0.0000
vn 0.0000 -1.0000 0.0000
vn 0.0000 1.0000 0.0000
vn 0.0000 0.0000 1.0000
vn -1.0000 0.0000 0.0000
vn 0.0000 0.0000 -1.0000
vn -0.9546 0.0000 -0.2980
vn -0.9911 0.0000 -0.1335
vn -0.2980 0.0000 -0.9546
vn -0.1335 0.0000 -0.9911
vn 0.1262 0.0000 0.9920
vn 0.4403 0.0000 0.8978
vn 0.8978 0.0000 0.4403
vn 0.9920 0.0000 0.1262
vn -0.5878 0.0000 -0.8090
vn -0.8090 0.0000 -0.5878
vn -0.9569 0.0000 -0.2905
vn -0.9976 0.0000 -0.0693
vn -0.2905 0.0000 -0.9569
vn -0.0693 0.0000 -0.9976
vn 0.9035 0.0000 0.4286
vn 0.9950 0.0000 0.1002
vn 0.4285 0.0000 0.9035
vn 0.1002 0.0000 0.9950
vn -0.6073 0.0000 -0.7944
vn -0.7944 0.0000 -0.6073
vn 0.6281 0.7377 0.2478
vn 0.2478 0.7377 0.6281
vn 0.3176 0.7516 0.5781
vn 0.5781 0.7516 0.3176
vn 0.0831 0.6854 0.7234
vn 0.7234 0.6854 0.0831
usemtl citybits_texture
s 1
f 11/1/1 12/2/1 6/3/1 5/4/1
f 14/5/2 11/6/2 5/7/2 9/8/2
f 12/9/3 13/10/3 10/11/3 6/12/3
f 17/13/2 15/14/2 1/15/2
f 5/4/4 6/3/4 10/16/4 9/17/4
f 16/18/4 2/19/4 1/20/4 15/21/4
f 23/22/3 8/23/3 4/24/3
f 23/25/3 18/26/3 13/27/3
f 20/28/3 13/29/3 12/30/3 19/31/3
f 21/32/2 22/33/2 11/6/2 14/5/2
f 19/34/1 12/35/1 11/36/1 22/37/1
f 8/38/1 19/39/1 22/40/1 7/41/1
f 24/42/2 17/13/2 1/15/2
f 14/5/2 17/43/2 24/44/2
f 10/45/3 13/29/3 18/46/3 16/47/3
f 7/48/2 21/49/2 24/42/2
f 10/50/4 16/51/4 15/52/4 9/53/4
f 14/5/2 9/8/2 15/54/2 17/43/2
f 16/18/3 18/55/3 2/19/3
f 2/56/5 4/57/5 3/58/5 1/59/5
f 7/60/2 22/61/2 21/49/2
f 8/62/3 20/63/3 19/39/3
f 8/23/3 23/22/3 20/63/3
f 2/19/3 18/55/3 23/22/3
f 21/32/2 14/5/2 24/44/2
f 24/42/2 1/15/2 3/64/2
f 4/24/6 8/23/6 7/65/6 3/66/6
f 7/67/2 24/42/2 3/64/2
f 20/68/3 23/25/3 13/27/3
f 2/19/3 23/22/3 4/24/3
f 33/69/7 25/70/8 29/71/8 42/72/7
f 28/73/1 26/74/1 30/75/1 32/76/1
f 36/77/9 39/78/9 30/79/10 26/80/10
f 25/81/4 27/82/4 31/83/4 29/84/4
f 28/85/11 32/86/11 44/87/12 37/88/12
f 37/88/12 44/87/12 43/89/13 38/90/13
f 38/90/13 43/89/13 31/91/14 27/92/14
f 39/78/9 36/77/9 35/93/15 40/94/15
f 40/94/15 35/93/15 34/95/16 41/96/16
f 41/96/16 34/95/16 33/69/7 42/72/7
f 51/97/17 45/98/18 49/99/18 60/100/17
f 46/101/1 50/102/1 63/103/1 64/104/1
f 54/105/19 57/106/19 50/102/20 46/101/20
f 56/107/21 66/108/21 61/109/22 47/110/22
f 45/98/4 47/110/4 61/109/4
f 55/111/23 67/112/23 66/108/21 56/107/21
f 48/113/24 64/104/24 67/112/23 55/111/23
f 59/114/3 65/115/3 68/116/3 58/117/3
f 57/106/19 54/105/19 53/118/25 58/119/25
f 58/119/25 53/118/25 52/120/26 59/121/26
f 59/121/26 52/120/26 51/97/17 60/100/17
f 63/122/3 50/123/3 57/124/3 68/116/3
f 59/114/3 60/125/3 65/115/3
f 58/117/3 68/116/3 57/124/3
f 66/126/27 67/127/28 68/128/29 65/129/30
f 67/127/28 64/130/31 63/131/31 68/128/29
f 61/132/32 66/126/27 65/129/30 62/133/32
f 60/125/3 49/134/3 62/135/3 65/115/3
f 48/136/2 55/137/2 54/138/2 46/139/2
f 47/140/2 45/141/2 51/142/2 56/143/2
f 52/144/2 56/143/2 51/142/2
f 54/138/2 55/137/2 53/145/2
f 52/144/2 53/145/2 55/137/2 56/143/2
f 48/113/1 46/101/1 64/104/1
f 49/99/4 45/98/4 61/109/4 62/146/4
