# Blender v3.4.1 OBJ File: 'CityBits_Export_Extra.blend'
# www.blender.org
mtllib park_base_decorated_bushes.mtl
o park_base_decorated_bushes_Cube.14203
v -1.000000 0.000000 1.000000
v -1.000000 0.100000 1.000000
v -1.000000 0.000000 -1.000000
v -1.000000 0.100000 -1.000000
v 1.000000 0.000000 1.000000
v 1.000000 0.100000 1.000000
v 1.000000 0.000000 -1.000000
v 1.000000 0.100000 -1.000000
v -0.504621 0.100000 0.536582
v -0.467275 0.100000 0.713022
v -0.577180 0.100000 0.857091
v -0.757801 0.100000 0.853389
v -0.860567 0.100000 0.704503
v -0.809053 0.100000 0.529834
v -0.652952 0.100000 0.456498
v -0.649168 0.137751 0.394629
v -0.648398 0.251678 0.394752
v -0.459831 0.139794 0.497712
v -0.849841 0.137738 0.488037
v -0.848662 0.252487 0.487734
v -0.919898 0.143452 0.713266
v -0.919043 0.259810 0.712611
v -0.787798 0.146461 0.908300
v -0.787879 0.245010 0.907867
v -0.551443 0.145020 0.913795
v -0.551905 0.261731 0.914131
v -0.410019 0.142248 0.725982
v -0.410384 0.259132 0.726564
v -0.459858 0.255927 0.498145
v -0.505134 0.380233 0.706914
v -0.532754 0.377682 0.563455
v -0.595416 0.382207 0.821806
v -0.660653 0.436545 0.666917
v -0.739309 0.382684 0.817147
v -0.820481 0.380039 0.696455
v -0.778953 0.376136 0.555564
v -0.652567 0.375472 0.497115
v 0.139171 0.461658 -0.162270
v 0.327272 0.396478 -0.267527
v 0.178583 0.395506 -0.374180
v 0.344486 0.400037 -0.080341
v 0.201603 0.403356 0.048123
v 0.004543 0.404017 0.011266
v -0.082270 0.401469 -0.160158
v 0.001409 0.397571 -0.328474
v 0.186687 0.100000 -0.423069
v 0.371562 0.100000 -0.290657
v 0.396747 0.100000 -0.055729
v 0.217631 0.100000 0.107640
v -0.033908 0.100000 0.060594
v -0.141897 0.100000 -0.156472
v -0.033535 0.100000 -0.366423
v 0.200732 0.220446 -0.494863
v 0.199934 0.117994 -0.492676
v 0.429473 0.149062 -0.328799
v 0.430291 0.271051 -0.330941
v 0.464993 0.153138 -0.034567
v 0.465757 0.276455 -0.036699
v 0.241026 0.156013 0.172923
v 0.241790 0.281841 0.170725
v -0.078858 0.156631 0.113094
v -0.078024 0.282914 0.110909
v -0.212726 0.154456 -0.161322
v -0.211916 0.278728 -0.163445
v -0.073301 0.117994 -0.422834
v -0.072539 0.222715 -0.424987
v 0.270295 0.100000 0.406183
v 0.300534 0.100000 0.537930
v 0.221672 0.100000 0.650104
v 0.086668 0.100000 0.653294
v 0.006349 0.100000 0.544156
v 0.042083 0.100000 0.411105
v 0.158203 0.100000 0.350852
v 0.160484 0.138038 0.304707
v 0.161054 0.219731 0.305292
v 0.303055 0.137057 0.375312
v 0.011150 0.137826 0.382011
v 0.012224 0.234217 0.382653
v -0.037261 0.138374 0.553791
v -0.036291 0.233088 0.554303
v 0.066500 0.137458 0.696305
v 0.066983 0.217160 0.696666
v 0.242690 0.137114 0.691853
v 0.242651 0.216808 0.692071
v 0.343260 0.136621 0.545296
v 0.342867 0.231570 0.545504
v 0.302889 0.232332 0.375664
v 0.272322 0.329425 0.534206
v 0.249064 0.330194 0.427650
v 0.208418 0.329142 0.624488
v 0.156040 0.377427 0.511181
v 0.101289 0.329581 0.627381
v 0.037482 0.330608 0.539901
v 0.065387 0.331106 0.432126
v 0.158666 0.330969 0.382835
v 0.706762 0.100000 -0.142253
v 0.857640 0.100000 -0.107135
v 0.929768 0.100000 0.030788
v 0.861189 0.100000 0.169988
v 0.707957 0.100000 0.195799
v 0.590779 0.100000 0.092181
v 0.590493 0.100000 -0.055961
v 0.543727 0.132426 -0.081409
v 0.544103 0.230283 -0.081964
v 0.692808 0.134181 -0.191243
v 0.543419 0.132415 0.108716
v 0.543612 0.230978 0.107689
v 0.693194 0.137323 0.245154
v 0.692996 0.237268 0.244250
v 0.893006 0.139907 0.213303
v 0.892640 0.224556 0.213209
v 0.983253 0.138670 0.031387
v 0.983346 0.238918 0.031868
v 0.888550 0.136288 -0.146974
v 0.888870 0.236686 -0.146479
v 0.693135 0.233934 -0.191065
v 0.839116 0.340706 -0.079897
v 0.717440 0.338514 -0.110587
v 0.895679 0.342401 0.032144
v 0.751426 0.389074 0.026568
v 0.839714 0.342810 0.142417
v 0.716275 0.340539 0.161680
v 0.621748 0.337187 0.078118
v 0.622238 0.336616 -0.041486
v -0.174360 0.100000 -0.883783
v -0.020060 0.100000 -0.897527
v 0.091524 0.100000 -0.789019
v 0.069834 0.100000 -0.635366
v -0.067679 0.100000 -0.563003
v -0.211351 0.100000 -0.624856
v -0.257876 0.100000 -0.765503
v -0.310249 0.132426 -0.775078
v -0.310065 0.230283 -0.775722
v -0.202913 0.134181 -0.925967
v -0.251181 0.132415 -0.594361
v -0.251318 0.230978 -0.595397
v -0.066294 0.137323 -0.511506
v -0.066765 0.237268 -0.512303
v 0.113584 0.139907 -0.604149
v 0.113207 0.224556 -0.604125
v 0.142522 0.138670 -0.805149
v 0.142761 0.238918 -0.804721
v -0.003134 0.136288 -0.945026
v -0.002675 0.236686 -0.944655
v -0.202546 0.233934 -0.925900
v -0.029154 0.340706 -0.865868
v -0.154330 0.338514 -0.857033
v 0.059562 0.342401 -0.777088
v -0.079220 0.389074 -0.737346
v 0.040825 0.342810 -0.654853
v -0.070429 0.340539 -0.598014
v -0.186320 0.337187 -0.647885
v -0.223198 0.336616 -0.761663
v -0.619931 0.100000 -0.263116
v -0.629644 0.100000 -0.128293
v -0.737926 0.100000 -0.044167
v -0.867933 0.100000 -0.080695
v -0.912728 0.100000 -0.208584
v -0.839558 0.100000 -0.325314
v -0.710877 0.100000 -0.348877
v -0.695168 0.138038 -0.392326
v -0.694794 0.219731 -0.391599
v -0.579560 0.137057 -0.283027
v -0.860603 0.137826 -0.362198
v -0.859765 0.234217 -0.361270
v -0.957247 0.138374 -0.212158
v -0.956470 0.233088 -0.211384
v -0.899825 0.137458 -0.045486
v -0.899469 0.217160 -0.045000
v -0.730071 0.137114 0.001910
v -0.730172 0.216808 0.002107
v -0.590955 0.136621 -0.108725
v -0.591391 0.231570 -0.108641
v -0.579822 0.232332 -0.282739
v -0.655524 0.329425 -0.140124
v -0.646522 0.330194 -0.248817
v -0.743088 0.329142 -0.072543
v -0.759947 0.377427 -0.196227
v -0.846358 0.329581 -0.101183
v -0.881715 0.330608 -0.203525
v -0.823441 0.331106 -0.298384
v -0.719810 0.330969 -0.318164
vt 0.329600 0.381035
vt 0.329600 0.381035
vt 0.269398 0.381035
vt 0.269398 0.381035
vt 0.269398 0.368965
vt 0.329600 0.368965
vt 0.269398 0.368965
vt 0.329609 0.380852
vt 0.329609 0.380852
vt 0.329609 0.368847
vt 0.329609 0.368847
vt 0.329600 0.337715
vt 0.329600 0.337715
vt 0.269398 0.337715
vt 0.269398 0.337715
vt 0.329600 0.368965
vt 0.282522 0.383258
vt 0.280714 0.392758
vt 0.287182 0.403326
vt 0.287716 0.391764
vt 0.293775 0.406887
vt 0.293057 0.394587
vt 0.280164 0.403700
vt 0.286629 0.414248
vt 0.293190 0.417776
vt 0.278368 0.393479
vt 0.278927 0.382659
vt 0.281207 0.375130
vt 0.283341 0.391199
vt 0.283924 0.380447
vt 0.285212 0.373446
vt 0.291314 0.399217
vt 0.291905 0.388496
vt 0.291502 0.379872
vt 0.295530 0.411293
vt 0.296126 0.400502
vt 0.294894 0.389422
vt 0.291255 0.426381
vt 0.288577 0.419050
vt 0.289934 0.430456
vt 0.285533 0.454687
vt 0.285816 0.428375
vt 0.283785 0.414179
vt 0.280755 0.415515
vt 0.281779 0.421817
vt 0.294109 0.376841
vt 0.293192 0.386419
vt 0.303773 0.375548
vt 0.302931 0.367775
vt 0.311793 0.367960
vt 0.314584 0.375664
vt 0.306063 0.387603
vt 0.304744 0.377781
vt 0.293471 0.397499
vt 0.294506 0.385827
vt 0.287981 0.396572
vt 0.289933 0.385139
vt 0.312878 0.370947
vt 0.310518 0.363946
vt 0.288804 0.412935
vt 0.294733 0.427845
vt 0.297875 0.421469
vt 0.294015 0.402783
vt 0.294294 0.413863
vt 0.298318 0.428316
vt 0.306885 0.403967
vt 0.306143 0.422167
vt 0.315406 0.392029
vt 0.311629 0.414567
vt 0.313700 0.387312
vt 0.310748 0.411351
vt 0.304596 0.391913
vt 0.304797 0.414350
vt 0.303950 0.454081
vt 0.292326 0.296606
vt 0.290785 0.306821
vt 0.296406 0.306777
vt 0.296839 0.296617
vt 0.303495 0.306899
vt 0.302593 0.296707
vt 0.290810 0.318409
vt 0.296409 0.318380
vt 0.303464 0.318512
vt 0.290772 0.318164
vt 0.290755 0.306703
vt 0.292389 0.296455
vt 0.297094 0.317893
vt 0.297097 0.306459
vt 0.297438 0.296290
vt 0.304775 0.318157
vt 0.304799 0.306721
vt 0.303530 0.296476
vt 0.307369 0.318561
vt 0.307409 0.307023
vt 0.305681 0.296736
vt 0.303997 0.337403
vt 0.302327 0.337219
vt 0.301664 0.337404
vt 0.298653 0.370276
vt 0.297235 0.337343
vt 0.297719 0.337090
vt 0.293881 0.337193
vt 0.293788 0.337310
vt 0.282522 0.383258
vt 0.280714 0.392758
vt 0.287182 0.403326
vt 0.287716 0.391764
vt 0.293775 0.406887
vt 0.293057 0.394587
vt 0.280164 0.403700
vt 0.286629 0.414248
vt 0.293190 0.417776
vt 0.278368 0.393479
vt 0.278927 0.382659
vt 0.281207 0.375130
vt 0.283341 0.391199
vt 0.283924 0.380447
vt 0.285212 0.373446
vt 0.291314 0.399217
vt 0.291905 0.388496
vt 0.291502 0.379872
vt 0.295530 0.411293
vt 0.296126 0.400502
vt 0.294894 0.389422
vt 0.291255 0.426381
vt 0.288577 0.419050
vt 0.289934 0.430456
vt 0.285533 0.454687
vt 0.285816 0.428375
vt 0.283785 0.414179
vt 0.280755 0.415515
vt 0.281779 0.421817
vt 0.282522 0.383258
vt 0.280714 0.392758
vt 0.287182 0.403326
vt 0.287716 0.391764
vt 0.293775 0.406887
vt 0.293057 0.394587
vt 0.280164 0.403700
vt 0.286629 0.414248
vt 0.293190 0.417776
vt 0.278368 0.393479
vt 0.278927 0.382659
vt 0.281207 0.375130
vt 0.283341 0.391199
vt 0.283924 0.380447
vt 0.285212 0.373446
vt 0.291314 0.399217
vt 0.291905 0.388496
vt 0.291502 0.379872
vt 0.295530 0.411293
vt 0.296126 0.400502
vt 0.294894 0.389422
vt 0.291255 0.426381
vt 0.288577 0.419050
vt 0.289934 0.430456
vt 0.285533 0.454687
vt 0.285816 0.428375
vt 0.283785 0.414179
vt 0.280755 0.415515
vt 0.281779 0.421817
vt 0.292326 0.296606
vt 0.290785 0.306821
vt 0.296406 0.306777
vt 0.296839 0.296617
vt 0.303495 0.306899
vt 0.302593 0.296707
vt 0.290810 0.318409
vt 0.296409 0.318380
vt 0.303464 0.318512
vt 0.290772 0.318164
vt 0.290755 0.306703
vt 0.292389 0.296455
vt 0.297094 0.317893
vt 0.297097 0.306459
vt 0.297438 0.296290
vt 0.304775 0.318157
vt 0.304799 0.306721
vt 0.303530 0.296476
vt 0.307369 0.318561
vt 0.307409 0.307023
vt 0.305681 0.296736
vt 0.303997 0.337403
vt 0.302327 0.337219
vt 0.301664 0.337404
vt 0.298653 0.370276
vt 0.297235 0.337343
vt 0.297719 0.337090
vt 0.293881 0.337193
vt 0.293788 0.337310
vn 0.0000 1.0000 0.0000
vn 0.0000 0.0000 1.0000
vn -1.0000 0.0000 0.0000
vn 1.0000 0.0000 0.0000
vn 0.0000 -1.0000 0.0000
vn 0.0000 0.0000 -1.0000
vn -0.4334 -0.8327 -0.3446
vn -0.4184 -0.8340 -0.3597
vn 0.0246 -0.8512 -0.5242
vn 0.0147 -0.8513 -0.5245
vn 0.4462 -0.8318 -0.3304
vn 0.4584 -0.8305 -0.3164
vn -0.7114 0.3061 -0.6326
vn 0.0313 0.3105 -0.9501
vn -0.4216 0.0029 -0.9068
vn 0.7574 0.3097 -0.5748
vn 0.4795 0.0006 -0.8775
vn -0.9384 0.3164 0.1393
vn -0.9545 0.0072 -0.2980
vn -0.5744 -0.8121 0.1025
vn -0.5742 -0.8121 0.1037
vn -0.4613 0.2908 0.8382
vn -0.8289 0.0058 0.5593
vn -0.2795 -0.8072 0.5198
vn -0.2798 -0.8072 0.5197
vn -0.0376 0.2853 0.9577
vn -0.0249 0.0004 0.9997
vn 0.2532 -0.8099 0.5291
vn 0.2451 -0.8098 0.5331
vn 0.9298 0.3068 0.2032
vn 0.7666 0.2811 0.5774
vn 0.7986 0.0005 0.6019
vn 0.5692 -0.8113 0.1335
vn 0.5686 -0.8112 0.1363
vn 0.9772 0.0026 -0.2125
vn 0.6100 0.7813 0.1326
vn 0.2580 0.7891 0.5574
vn 0.5012 0.7807 -0.3733
vn -0.0006 0.9998 -0.0196
vn 0.0163 0.7823 -0.6227
vn -0.3055 0.7820 0.5432
vn -0.6179 0.7815 0.0862
vn -0.4716 0.7753 -0.4201
vn -0.2794 -0.9337 -0.2238
vn -0.2682 -0.9365 -0.2261
vn 0.1285 -0.9422 -0.3095
vn 0.1251 -0.9429 -0.3088
vn 0.5536 -0.8014 0.2264
vn 0.5584 -0.8021 0.2118
vn 0.1753 -0.7777 0.6037
vn 0.1571 -0.7769 0.6098
vn -0.3866 -0.7739 0.5017
vn -0.3726 -0.7733 0.5129
vn -0.5495 -0.8333 0.0611
vn -0.5509 -0.8320 0.0664
vn 0.4789 -0.8524 -0.2099
vn 0.4825 -0.8512 -0.2066
vn -0.9319 0.3607 -0.0393
vn -0.5569 0.8294 -0.0435
vn -0.3620 0.7809 -0.5091
vn -0.5800 0.2723 -0.7678
vn -0.5662 0.3696 0.7367
vn -0.3221 0.8445 0.4279
vn 0.2640 0.3669 0.8920
vn 0.1512 0.8429 0.5164
vn 0.8799 0.3552 0.3157
vn 0.5160 0.8371 0.1814
vn 0.7983 0.3394 -0.4976
vn 0.4845 0.8138 -0.3209
vn 0.1660 0.2652 -0.9498
vn 0.0930 0.7768 -0.6229
vn 0.0069 0.9998 -0.0192
vn -0.2477 -0.0184 -0.9687
vn -0.8827 -0.0027 -0.4700
vn -0.8987 0.0134 0.4383
vn -0.1838 0.0183 0.9828
vn 0.6796 0.0086 0.7335
vn 0.9928 -0.0085 -0.1196
vn 0.5833 -0.0199 -0.8120
vn -0.5234 -0.7478 -0.4085
vn -0.5103 -0.7483 -0.4238
vn -0.0018 -0.7737 -0.6335
vn -0.0199 -0.7731 -0.6340
vn 0.4892 -0.7724 -0.4050
vn 0.5060 -0.7717 -0.3852
vn -0.7333 0.3032 -0.6086
vn -0.0053 0.2781 -0.9606
vn -0.4600 0.0104 -0.8878
vn 0.7406 0.3015 -0.6004
vn 0.4440 0.0037 -0.8960
vn -0.9365 0.3017 0.1789
vn -0.9623 0.0119 -0.2716
vn -0.6430 -0.7583 0.1073
vn -0.6406 -0.7587 0.1180
vn -0.4182 0.2720 0.8667
vn -0.8088 0.0038 0.5880
vn -0.2818 -0.7822 0.5556
vn -0.2768 -0.7823 0.5580
vn 0.4534 0.2665 0.8505
vn 0.0257 -0.0037 0.9997
vn 0.3018 -0.7804 0.5477
vn 0.2934 -0.7806 0.5520
vn 0.9391 0.2904 0.1836
vn 0.8250 0.0007 0.5651
vn 0.6340 -0.7636 0.1222
vn 0.6349 -0.7636 0.1174
vn 0.9733 0.0035 -0.2296
vn 0.6463 0.7497 0.1422
vn 0.3099 0.7433 0.5929
vn 0.5100 0.7625 -0.3982
vn 0.0052 1.0000 0.0061
vn -0.0078 0.7604 -0.6494
vn -0.2780 0.7499 0.6004
vn -0.6348 0.7611 0.1330
vn -0.5042 0.7604 -0.4093
vn -0.4957 -0.8327 0.2467
vn -0.5030 -0.8340 0.2267
vn -0.4645 -0.8512 -0.2443
vn -0.4689 -0.8513 -0.2354
vn -0.1103 -0.8318 -0.5441
vn -0.0925 -0.8305 -0.5492
vn -0.8744 0.3061 0.3766
vn -0.8474 0.3105 -0.4306
vn -1.0000 0.0029 -0.0021
vn -0.2000 0.3097 -0.9295
vn -0.5919 0.0006 -0.8060
vn -0.2712 0.3164 0.9091
vn -0.6742 0.0072 0.7385
vn -0.1504 -0.8121 0.5638
vn -0.1492 -0.8121 0.5641
vn 0.5640 0.2908 0.7729
vn 0.1557 0.0058 0.9878
vn 0.3526 -0.8072 0.4734
vn 0.3523 -0.8072 0.4736
vn 0.8517 0.2853 0.4396
vn 0.8951 0.0004 0.4459
vn 0.5866 -0.8099 -0.0053
vn 0.5867 -0.8098 0.0037
vn 0.5778 0.3068 -0.7563
vn 0.8477 0.2811 -0.4499
vn 0.8834 0.0005 -0.4685
vn 0.3620 -0.8113 -0.4591
vn 0.3643 -0.8112 -0.4574
vn 0.2213 0.0026 -0.9752
vn 0.3784 0.7813 -0.4964
vn 0.6142 0.7891 0.0023
vn -0.1259 0.7807 -0.6121
vn -0.0180 0.9998 -0.0078
vn -0.5572 0.7823 -0.2785
vn 0.3627 0.7820 0.5068
vn -0.1836 0.7815 0.5963
vn -0.5803 0.7753 0.2493
vn -0.3939 -0.8327 0.3892
vn -0.4071 -0.8340 0.3724
vn -0.5175 -0.8512 -0.0870
vn -0.5190 -0.8513 -0.0773
vn -0.2747 -0.8318 -0.4824
vn -0.2594 -0.8305 -0.4929
vn -0.7131 0.3061 0.6308
vn -0.9395 0.3105 -0.1445
vn -0.9507 0.0029 0.3102
vn -0.4802 0.3097 -0.8206
vn -0.8140 0.0006 -0.5809
vn 0.0262 0.3164 0.9483
vn -0.4099 0.0072 0.9121
vn 0.0331 -0.8121 0.5825
vn 0.0344 -0.8121 0.5825
vn 0.7771 0.2908 0.5581
vn 0.4563 0.0058 0.8898
vn 0.4827 -0.8072 0.3396
vn 0.4825 -0.8072 0.3399
vn 0.9464 0.2853 0.1517
vn 0.9896 0.0004 0.1441
vn 0.5556 -0.8099 -0.1882
vn 0.5585 -0.8098 -0.1796
vn 0.3128 0.3068 -0.8989
vn 0.6648 0.2811 -0.6921
vn 0.6930 0.0005 -0.7209
vn 0.2005 -0.8113 -0.5492
vn 0.2033 -0.8112 -0.5482
vn -0.0942 0.0026 -0.9955
vn 0.2045 0.7813 -0.5898
vn 0.5842 0.7891 -0.1896
vn -0.3108 0.7807 -0.5422
vn -0.0195 0.9998 -0.0018
vn -0.6163 0.7823 -0.0906
vn 0.5028 0.7820 0.3682
vn 0.0117 0.7815 0.6238
vn -0.4734 0.7753 0.4180
vn -0.3806 -0.7478 -0.5440
vn -0.3637 -0.7483 -0.5548
vn 0.1840 -0.7737 -0.6062
vn 0.1668 -0.7731 -0.6120
vn 0.5865 -0.7724 -0.2438
vn 0.5967 -0.7717 -0.2199
vn -0.5227 0.3032 -0.7968
vn 0.2765 0.2781 -0.9199
vn -0.1795 0.0104 -0.9837
vn 0.8841 0.3015 -0.3569
vn 0.6872 0.0037 -0.7265
vn -0.9478 0.3017 -0.1035
vn -0.8404 0.0119 -0.5418
vn -0.6462 -0.7583 -0.0859
vn -0.6471 -0.7587 -0.0750
vn -0.6539 0.2720 0.7060
vn -0.9457 0.0038 0.3251
vn -0.4323 -0.7822 0.4486
vn -0.4282 -0.7823 0.4523
vn 0.1841 0.2665 0.9461
vn -0.2685 -0.0037 0.9633
vn 0.1280 -0.7804 0.6121
vn 0.1186 -0.7806 0.6137
vn 0.8440 0.2904 0.4508
vn 0.6231 0.0007 0.7822
vn 0.5703 -0.7636 0.3027
vn 0.5726 -0.7636 0.2984
vn 0.9978 0.0035 0.0658
vn 0.5762 0.7497 0.3255
vn 0.1224 0.7433 0.6576
vn 0.6043 0.7625 -0.2312
vn 0.0032 1.0000 0.0074
vn 0.1829 0.7604 -0.6231
vn -0.4418 0.7499 0.4925
vn -0.6459 0.7611 -0.0590
vn -0.3620 0.7604 -0.5392
usemtl citybits_texture
s 1
f 6/1/1 8/2/1 4/3/1 2/4/1
f 6/1/2 2/4/2 1/5/2 5/6/2
f 4/3/3 3/7/3 1/5/3 2/4/3
f 8/8/4 6/9/4 5/10/4 7/11/4
f 7/12/5 5/13/5 1/14/5 3/15/5
f 4/3/6 8/2/6 7/16/6 3/7/6
f 14/17/7 19/18/8 16/19/9 15/20/10
f 15/20/10 16/19/9 18/21/11 9/22/12
f 20/23/13 17/24/14 16/19/15 19/18/15
f 17/24/14 29/25/16 18/21/17 16/19/17
f 22/26/18 20/23/13 19/18/19 21/27/19
f 13/28/20 21/27/21 19/18/8 14/17/7
f 24/29/22 22/26/18 21/27/23 23/30/23
f 12/31/24 23/30/25 21/27/21 13/28/20
f 26/32/26 24/29/22 23/30/27 25/33/27
f 11/34/28 25/33/29 23/30/25 12/31/24
f 28/35/30 26/32/31 25/33/32 27/36/32
f 10/37/33 27/36/34 25/33/29 11/34/28
f 29/25/16 28/35/30 27/36/35 18/21/35
f 9/22/12 18/21/11 27/36/34 10/37/33
f 28/35/30 30/38/36 32/39/37 26/32/31
f 29/25/16 31/40/38 30/38/36 28/35/30
f 33/41/39 30/38/36 31/40/38
f 33/41/39 32/39/37 30/38/36
f 33/41/39 31/40/38 37/42/40
f 33/41/39 34/43/41 32/39/37
f 33/41/39 35/44/42 34/43/41
f 33/41/39 36/45/43 35/44/42
f 33/41/39 37/42/40 36/45/43
f 20/23/13 36/45/43 37/42/40 17/24/14
f 17/24/14 37/42/40 31/40/38 29/25/16
f 22/26/18 35/44/42 36/45/43 20/23/13
f 24/29/22 34/43/41 35/44/42 22/26/18
f 26/32/26 32/39/37 34/43/41 24/29/22
f 52/46/44 65/47/45 54/48/46 46/49/47
f 48/50/48 57/51/49 59/52/50 49/53/51
f 49/53/51 59/52/50 61/54/52 50/55/53
f 50/55/53 61/54/52 63/56/54 51/57/55
f 51/57/55 63/56/54 65/47/45 52/46/44
f 46/49/47 54/48/46 55/58/56 47/59/57
f 47/59/57 55/58/56 57/51/49 48/50/48
f 64/60/58 44/61/59 45/62/60 66/63/61
f 62/64/62 43/65/63 44/61/59 64/60/58
f 60/66/64 42/67/65 43/65/63 62/64/62
f 58/68/66 41/69/67 42/67/65 60/66/64
f 56/70/68 39/71/69 41/69/67 58/68/66
f 53/72/70 40/73/71 39/71/69 56/70/68
f 38/74/72 39/71/69 40/73/71
f 38/74/72 41/69/67 39/71/69
f 38/74/72 42/67/65 41/69/67
f 38/74/72 43/65/63 42/67/65
f 38/74/72 44/61/59 43/65/63
f 38/74/72 45/62/60 44/61/59
f 38/74/72 40/73/71 45/62/60
f 66/63/61 53/72/70 54/48/73 65/47/73
f 64/60/58 66/63/61 65/47/74 63/56/74
f 62/64/62 64/60/58 63/56/75 61/54/75
f 60/66/64 62/64/62 61/54/76 59/52/76
f 58/68/66 60/66/64 59/52/77 57/51/77
f 56/70/68 58/68/66 57/51/78 55/58/78
f 53/72/70 56/70/68 55/58/79 54/48/79
f 66/63/61 45/62/60 40/73/71 53/72/70
f 72/75/80 77/76/81 74/77/82 73/78/83
f 73/78/83 74/77/82 76/79/84 67/80/85
f 78/81/86 75/82/87 74/77/88 77/76/88
f 75/82/87 87/83/89 76/79/90 74/77/90
f 80/84/91 78/81/86 77/76/92 79/85/92
f 71/86/93 79/85/94 77/76/81 72/75/80
f 82/87/95 80/84/91 79/85/96 81/88/96
f 70/89/97 81/88/98 79/85/94 71/86/93
f 84/90/99 82/87/95 81/88/100 83/91/100
f 69/92/101 83/91/102 81/88/98 70/89/97
f 86/93/103 84/90/99 83/91/104 85/94/104
f 68/95/105 85/94/106 83/91/102 69/92/101
f 87/83/89 86/93/103 85/94/107 76/79/107
f 67/80/85 76/79/84 85/94/106 68/95/105
f 86/93/103 88/96/108 90/97/109 84/90/99
f 87/83/89 89/98/110 88/96/108 86/93/103
f 91/99/111 88/96/108 89/98/110
f 91/99/111 90/97/109 88/96/108
f 91/99/111 89/98/110 95/100/112
f 91/99/111 92/101/113 90/97/109
f 91/99/111 93/102/114 92/101/113
f 91/99/111 94/103/115 93/102/114
f 91/99/111 95/100/112 94/103/115
f 78/81/86 94/103/115 95/100/112 75/82/87
f 75/82/87 95/100/112 89/98/110 87/83/89
f 80/84/91 93/102/114 94/103/115 78/81/86
f 82/87/95 92/101/113 93/102/114 80/84/91
f 84/90/99 90/97/109 92/101/113 82/87/95
f 101/104/116 106/105/117 103/106/118 102/107/119
f 102/107/119 103/106/118 105/108/120 96/109/121
f 107/110/122 104/111/123 103/106/124 106/105/124
f 104/111/123 116/112/125 105/108/126 103/106/126
f 109/113/127 107/110/122 106/105/128 108/114/128
f 100/115/129 108/114/130 106/105/117 101/104/116
f 111/116/131 109/113/127 108/114/132 110/117/132
f 99/118/133 110/117/134 108/114/130 100/115/129
f 113/119/135 111/116/131 110/117/136 112/120/136
f 98/121/137 112/120/138 110/117/134 99/118/133
f 115/122/139 113/119/140 112/120/141 114/123/141
f 97/124/142 114/123/143 112/120/138 98/121/137
f 116/112/125 115/122/139 114/123/144 105/108/144
f 96/109/121 105/108/120 114/123/143 97/124/142
f 115/122/139 117/125/145 119/126/146 113/119/140
f 116/112/125 118/127/147 117/125/145 115/122/139
f 120/128/148 117/125/145 118/127/147
f 120/128/148 119/126/146 117/125/145
f 120/128/148 118/127/147 124/129/149
f 120/128/148 121/130/150 119/126/146
f 120/128/148 122/131/151 121/130/150
f 120/128/148 123/132/152 122/131/151
f 120/128/148 124/129/149 123/132/152
f 107/110/122 123/132/152 124/129/149 104/111/123
f 104/111/123 124/129/149 118/127/147 116/112/125
f 109/113/127 122/131/151 123/132/152 107/110/122
f 111/116/131 121/130/150 122/131/151 109/113/127
f 113/119/135 119/126/146 121/130/150 111/116/131
f 130/133/153 135/134/154 132/135/155 131/136/156
f 131/136/156 132/135/155 134/137/157 125/138/158
f 136/139/159 133/140/160 132/135/161 135/134/161
f 133/140/160 145/141/162 134/137/163 132/135/163
f 138/142/164 136/139/159 135/134/165 137/143/165
f 129/144/166 137/143/167 135/134/154 130/133/153
f 140/145/168 138/142/164 137/143/169 139/146/169
f 128/147/170 139/146/171 137/143/167 129/144/166
f 142/148/172 140/145/168 139/146/173 141/149/173
f 127/150/174 141/149/175 139/146/171 128/147/170
f 144/151/176 142/148/177 141/149/178 143/152/178
f 126/153/179 143/152/180 141/149/175 127/150/174
f 145/141/162 144/151/176 143/152/181 134/137/181
f 125/138/158 134/137/157 143/152/180 126/153/179
f 144/151/176 146/154/182 148/155/183 142/148/177
f 145/141/162 147/156/184 146/154/182 144/151/176
f 149/157/185 146/154/182 147/156/184
f 149/157/185 148/155/183 146/154/182
f 149/157/185 147/156/184 153/158/186
f 149/157/185 150/159/187 148/155/183
f 149/157/185 151/160/188 150/159/187
f 149/157/185 152/161/189 151/160/188
f 149/157/185 153/158/186 152/161/189
f 136/139/159 152/161/189 153/158/186 133/140/160
f 133/140/160 153/158/186 147/156/184 145/141/162
f 138/142/164 151/160/188 152/161/189 136/139/159
f 140/145/168 150/159/187 151/160/188 138/142/164
f 142/148/172 148/155/183 150/159/187 140/145/168
f 159/162/190 164/163/191 161/164/192 160/165/193
f 160/165/193 161/164/192 163/166/194 154/167/195
f 165/168/196 162/169/197 161/164/198 164/163/198
f 162/169/197 174/170/199 163/166/200 161/164/200
f 167/171/201 165/168/196 164/163/202 166/172/202
f 158/173/203 166/172/204 164/163/191 159/162/190
f 169/174/205 167/171/201 166/172/206 168/175/206
f 157/176/207 168/175/208 166/172/204 158/173/203
f 171/177/209 169/174/205 168/175/210 170/178/210
f 156/179/211 170/178/212 168/175/208 157/176/207
f 173/180/213 171/177/209 170/178/214 172/181/214
f 155/182/215 172/181/216 170/178/212 156/179/211
f 174/170/199 173/180/213 172/181/217 163/166/217
f 154/167/195 163/166/194 172/181/216 155/182/215
f 173/180/213 175/183/218 177/184/219 171/177/209
f 174/170/199 176/185/220 175/183/218 173/180/213
f 178/186/221 175/183/218 176/185/220
f 178/186/221 177/184/219 175/183/218
f 178/186/221 176/185/220 182/187/222
f 178/186/221 179/188/223 177/184/219
f 178/186/221 180/189/224 179/188/223
f 178/186/221 181/190/225 180/189/224
f 178/186/221 182/187/222 181/190/225
f 165/168/196 181/190/225 182/187/222 162/169/197
f 162/169/197 182/187/222 176/185/220 174/170/199
f 167/171/201 180/189/224 181/190/225 165/168/196
f 169/174/205 179/188/223 180/189/224 167/171/201
f 171/177/209 177/184/219 179/188/223 169/174/205
