# Blender v3.4.1 OBJ File: 'CityBits_Export_Extra.blend'
# www.blender.org
mtllib park_road_straight.mtl
o park_road_straight_Cube.14206
v -1.000000 0.000000 1.000000
v -1.000000 0.100000 1.000000
v -1.000000 0.000000 -1.000000
v -1.000000 0.100000 -1.000000
v 1.000000 0.000000 1.000000
v 1.000000 0.100000 1.000000
v 1.000000 0.000000 -1.000000
v 1.000000 0.100000 -1.000000
v -0.250000 0.100000 -1.000000
v 0.250000 0.100000 -1.000000
v 0.250000 0.000000 -1.000000
v -0.250000 0.000000 -1.000000
v -0.250000 0.000000 1.000000
v 0.250000 0.000000 1.000000
v 0.250000 0.100000 1.000000
v -0.250000 0.100000 1.000000
vt 0.289465 0.381035
vt 0.289465 0.381035
vt 0.269398 0.381035
vt 0.269398 0.381035
vt 0.269398 0.368965
vt 0.289465 0.368965
vt 0.269398 0.368965
vt 0.329609 0.380852
vt 0.329609 0.380852
vt 0.329609 0.368847
vt 0.329609 0.368847
vt 0.289465 0.337715
vt 0.289465 0.337715
vt 0.269398 0.337715
vt 0.269398 0.337715
vt 0.309533 0.381035
vt 0.329600 0.381035
vt 0.329600 0.368965
vt 0.309533 0.368965
vt 0.289465 0.368965
vt 0.664465 0.631035
vt 0.684533 0.631035
vt 0.684533 0.618965
vt 0.664465 0.618965
vt 0.329600 0.337715
vt 0.329600 0.337715
vt 0.309533 0.337715
vt 0.309533 0.337715
vt 0.329600 0.381035
vt 0.309533 0.381035
vt 0.309533 0.368965
vt 0.329600 0.368965
vt 0.684533 0.631035
vt 0.664465 0.631035
vt 0.664465 0.618965
vt 0.684533 0.618965
vn 0.0000 1.0000 0.0000
vn 0.0000 0.0000 1.0000
vn -1.0000 0.0000 0.0000
vn 1.0000 0.0000 0.0000
vn 0.0000 -1.0000 0.0000
vn 0.0000 0.0000 -1.0000
usemtl citybits_texture
s 1
f 16/1/1 9/2/1 4/3/1 2/4/1
f 16/1/2 2/4/2 1/5/2 13/6/2
f 4/3/3 3/7/3 1/5/3 2/4/3
f 8/8/4 6/9/4 5/10/4 7/11/4
f 12/12/5 13/13/5 1/14/5 3/15/5
f 10/16/6 8/17/6 7/18/6 11/19/6
f 4/3/6 9/2/6 12/20/6 3/7/6
f 9/21/6 10/22/6 11/23/6 12/24/6
f 7/25/5 5/26/5 14/27/5 11/28/5
f 11/28/5 14/27/5 13/13/5 12/12/5
f 6/29/2 15/30/2 14/31/2 5/32/2
f 15/33/2 16/34/2 13/35/2 14/36/2
f 6/29/1 8/17/1 10/16/1 15/30/1
f 15/33/1 10/22/1 9/21/1 16/34/1
