# Blender v3.4.1 OBJ File: 'CityBits_Export_Extra.blend'
# www.blender.org
mtllib streetlight_old_single.mtl
o streetlight_old_single_Cube.14227
v -0.020000 0.560000 0.020011
v -0.040000 0.640000 0.040011
v -0.020000 0.560000 -0.019989
v -0.040000 0.640000 -0.039989
v 0.020000 0.560000 0.020011
v 0.040000 0.640000 0.040011
v 0.020000 0.560000 -0.019989
v 0.040000 0.640000 -0.039989
v -0.060000 0.640000 0.060011
v -0.060000 0.640000 -0.059988
v 0.060000 0.640000 -0.059988
v 0.060000 0.640000 0.060011
v -0.060000 0.660000 0.060011
v -0.060000 0.660000 -0.059988
v 0.060000 0.660000 -0.059988
v 0.060000 0.660000 0.060011
v 0.000000 0.700000 0.000011
v -0.040000 0.550000 -0.040000
v -0.040000 0.550000 0.040000
v 0.040000 0.550000 -0.040000
v 0.040000 0.550000 0.040000
v -0.010000 0.520000 -0.010000
v -0.010000 0.520000 0.010000
v 0.010000 0.520000 -0.010000
v 0.010000 0.520000 0.010000
v -0.040000 0.530000 -0.040000
v -0.040000 0.530000 0.040000
v 0.040000 0.530000 -0.040000
v 0.040000 0.530000 0.040000
v -0.010000 0.240000 -0.010000
v -0.010000 0.240000 0.010000
v 0.010000 0.240000 -0.010000
v 0.010000 0.240000 0.010000
v -0.040000 0.210000 -0.040000
v -0.040000 0.210000 0.040000
v 0.040000 0.210000 -0.040000
v 0.040000 0.210000 0.040000
v -0.040000 0.000000 -0.040000
v -0.040000 0.000000 0.040000
v 0.040000 0.000000 -0.040000
v 0.040000 0.000000 0.040000
v 0.010000 0.460000 0.010000
v 0.010000 0.460000 -0.010000
v -0.010000 0.460000 -0.010000
v -0.010000 0.460000 0.010000
v 0.010000 0.440000 0.010000
v -0.010000 0.440000 -0.010000
v 0.010000 0.440000 -0.010000
v -0.010000 0.440000 0.010000
v 0.030000 0.440000 -0.010000
v 0.050000 0.460000 -0.010000
v 0.050000 0.460000 0.010000
v 0.030000 0.440000 0.010000
v -0.030000 0.440000 0.010000
v -0.050000 0.460000 0.010000
v -0.050000 0.460000 -0.010000
v -0.030000 0.440000 -0.010000
vt 0.434540 0.611794
vt 0.431267 0.678597
vt 0.431267 0.678597
vt 0.434540 0.611794
vt 0.434540 0.644638
vt 0.431267 0.711440
vt 0.444360 0.711440
vt 0.441087 0.644638
vt 0.441087 0.611794
vt 0.444360 0.678597
vt 0.444360 0.678597
vt 0.441087 0.611794
vt 0.441087 0.644638
vt 0.444360 0.711440
vt 0.431267 0.711440
vt 0.434540 0.644638
vt 0.543600 0.940621
vt 0.550148 0.940621
vt 0.553420 0.938984
vt 0.540328 0.938984
vt 0.553420 0.891214
vt 0.540328 0.891214
vt 0.537055 0.891214
vt 0.556695 0.891214
vt 0.556695 0.922464
vt 0.537055 0.922464
vt 0.537055 0.925737
vt 0.556695 0.925737
vt 0.553420 0.875589
vt 0.553420 0.875589
vt 0.556695 0.875589
vt 0.556695 0.875589
vt 0.540328 0.875589
vt 0.540328 0.875589
vt 0.537055 0.875589
vt 0.537055 0.875589
vt 0.540328 0.891214
vt 0.553420 0.891214
vt 0.556695 0.891214
vt 0.537055 0.891214
vt 0.537055 0.922464
vt 0.556695 0.922464
vt 0.556695 0.925737
vt 0.537055 0.925737
vt 0.537055 0.894487
vt 0.537055 0.894487
vt 0.556695 0.894487
vt 0.556695 0.894487
vt 0.556695 0.941362
vt 0.556695 0.941362
vt 0.546875 0.947909
vt 0.537055 0.941362
vt 0.537055 0.941362
vt 0.537055 0.956987
vt 0.556695 0.956987
vt 0.546875 0.963534
vt 0.556695 0.956987
vt 0.537055 0.956987
vt 0.553420 0.907734
vt 0.540328 0.907734
vt 0.540328 0.904460
vt 0.553420 0.904460
vt 0.543600 0.924996
vt 0.543600 0.924996
vt 0.540328 0.923359
vt 0.540328 0.923359
vt 0.550148 0.924996
vt 0.550148 0.924996
vt 0.553420 0.923359
vt 0.553420 0.923359
vt 0.550148 0.940621
vt 0.543600 0.940621
vt 0.540328 0.938984
vt 0.553420 0.938984
vt 0.540328 0.907734
vt 0.553420 0.907734
vt 0.553420 0.904460
vt 0.540328 0.904460
vt 0.553420 0.892109
vt 0.553420 0.892109
vt 0.553420 0.888835
vt 0.553420 0.888835
vt 0.540328 0.892109
vt 0.540328 0.892109
vt 0.540328 0.888835
vt 0.540328 0.888835
vt 0.548510 0.874105
vt 0.548510 0.874105
vt 0.548510 0.841371
vt 0.548510 0.841371
vt 0.545237 0.855949
vt 0.545237 0.855949
vt 0.540328 0.857585
vt 0.540328 0.857585
vt 0.548510 0.871574
vt 0.545237 0.871574
vt 0.540328 0.873210
vt 0.553420 0.873210
vt 0.548510 0.855949
vt 0.548510 0.855949
vt 0.553420 0.857585
vt 0.553420 0.857585
vt 0.545237 0.871574
vt 0.548510 0.871574
vt 0.553420 0.873210
vt 0.540328 0.873210
vt 0.548510 0.888246
vt 0.545237 0.888246
vt 0.540328 0.883336
vt 0.553420 0.883336
vt 0.545237 0.874105
vt 0.545237 0.874105
vt 0.545237 0.841371
vt 0.545237 0.841371
vt 0.548510 0.889730
vt 0.545237 0.889730
vt 0.545237 0.856996
vt 0.548510 0.856996
vt 0.545237 0.889730
vt 0.548510 0.889730
vt 0.548510 0.856996
vt 0.545237 0.856996
vt 0.553420 0.836461
vt 0.553420 0.836461
vt 0.553420 0.802091
vt 0.553420 0.802091
vt 0.545237 0.888246
vt 0.548510 0.888246
vt 0.553420 0.883336
vt 0.540328 0.883336
vt 0.548510 0.872621
vt 0.548510 0.872621
vt 0.553420 0.867711
vt 0.553420 0.867711
vt 0.545237 0.872621
vt 0.545237 0.872621
vt 0.540328 0.867711
vt 0.540328 0.867711
vt 0.540328 0.802091
vt 0.540328 0.802091
vt 0.540328 0.836461
vt 0.540328 0.836461
vt 0.553420 0.852086
vt 0.540328 0.852086
vt 0.540328 0.817716
vt 0.553420 0.817716
vt 0.540328 0.852086
vt 0.553420 0.852086
vt 0.553420 0.817716
vt 0.540328 0.817716
vt 0.545237 0.902824
vt 0.548510 0.902824
vt 0.548510 0.893004
vt 0.545237 0.893004
vt 0.548510 0.902824
vt 0.545237 0.902824
vt 0.545237 0.893004
vt 0.548510 0.893004
vt 0.545237 0.887199
vt 0.545237 0.887199
vt 0.545237 0.877379
vt 0.545237 0.877379
vt 0.548510 0.887199
vt 0.548510 0.887199
vt 0.548510 0.877379
vt 0.548510 0.877379
vt 0.545237 0.908629
vt 0.545237 0.908629
vt 0.538690 0.908629
vt 0.538690 0.908629
vt 0.548510 0.842855
vt 0.548510 0.842855
vt 0.551785 0.842855
vt 0.551785 0.842855
vt 0.555058 0.846129
vt 0.555058 0.846129
vt 0.548510 0.908629
vt 0.548510 0.908629
vt 0.555058 0.908629
vt 0.555058 0.908629
vt 0.555058 0.893004
vt 0.551785 0.889730
vt 0.551785 0.889730
vt 0.555058 0.893004
vt 0.538690 0.846129
vt 0.538690 0.846129
vt 0.541965 0.842855
vt 0.541965 0.842855
vt 0.541965 0.889730
vt 0.538690 0.893004
vt 0.538690 0.893004
vt 0.541965 0.889730
vt 0.545237 0.842855
vt 0.545237 0.842855
vn -0.9701 -0.2425 0.0000
vn 0.0000 -0.2425 -0.9701
vn 0.9701 -0.2425 0.0000
vn 0.0000 -0.2425 0.9701
vn -0.2357 0.9428 -0.2356
vn 0.2357 0.9428 -0.2356
vn 0.2356 0.9428 -0.2357
vn -0.2356 0.9428 -0.2357
vn 0.0000 -1.0000 -0.0000
vn 0.0000 0.0000 -1.0000
vn 0.0000 0.0000 1.0000
vn -1.0000 0.0000 0.0000
vn 1.0000 0.0000 0.0000
vn 0.5547 0.8320 0.0000
vn -0.5547 0.8320 0.0000
vn 0.0000 0.8320 0.5547
vn 0.0000 0.8320 -0.5547
vn -0.2357 0.9428 0.2358
vn -0.2358 0.9428 0.2357
vn 0.2357 0.9428 0.2358
vn 0.2358 0.9428 0.2357
vn 0.8959 0.4444 0.0000
vn -0.1622 -0.9733 -0.1622
vn -0.1622 -0.9733 0.1622
vn 0.1622 -0.9733 -0.1622
vn 0.1622 -0.9733 0.1622
vn 0.0000 0.7071 0.7071
vn -0.8959 0.4444 0.0000
vn 0.9576 0.2880 0.0000
vn 0.0000 0.7071 -0.7071
vn -0.9576 0.2880 0.0000
vn 0.0000 1.0000 0.0000
vn 0.7071 -0.7071 0.0000
vn -0.7071 -0.7071 0.0000
usemtl citybits_texture
s 1
f 1/1/1 2/2/1 4/3/1 3/4/1
f 3/5/2 4/6/2 8/7/2 7/8/2
f 7/9/3 8/10/3 6/11/3 5/12/3
f 5/13/4 6/14/4 2/15/4 1/16/4
f 3/17/5 7/18/6 20/19/7 18/20/8
f 8/21/9 4/22/9 10/23/9 11/24/9
f 11/25/10 10/26/10 14/27/10 15/28/10
f 6/29/9 8/30/9 11/31/9 12/32/9
f 4/33/9 2/34/9 9/35/9 10/36/9
f 2/37/9 6/38/9 12/39/9 9/40/9
f 9/41/11 12/42/11 16/43/11 13/44/11
f 10/23/12 9/40/12 13/45/12 14/46/12
f 12/39/13 11/24/13 15/47/13 16/48/13
f 16/49/14 15/50/14 17/51/14
f 14/52/15 13/53/15 17/51/15
f 13/54/16 16/55/16 17/56/16
f 15/57/17 14/58/17 17/56/17
f 21/59/11 19/60/11 27/61/11 29/62/11
f 1/63/18 3/64/5 18/65/8 19/66/19
f 7/67/6 5/68/20 21/69/21 20/70/7
f 5/71/20 1/72/18 19/73/19 21/74/21
f 18/75/10 20/76/10 28/77/10 26/78/10
f 20/79/13 21/80/13 29/81/13 28/82/13
f 19/83/12 18/84/12 26/85/12 27/86/12
f 48/87/13 46/88/13 33/89/22 32/90/22
f 22/91/23 23/92/24 27/93/24 26/94/23
f 24/95/25 22/96/23 26/97/23 28/98/25
f 25/99/26 24/100/25 28/101/25 29/102/26
f 23/103/24 25/104/26 29/105/26 27/106/24
f 33/107/27 31/108/27 35/109/27 37/110/27
f 49/111/12 47/112/12 30/113/28 31/114/28
f 46/115/11 49/116/11 31/117/11 33/118/11
f 47/119/10 48/120/10 32/121/10 30/122/10
f 36/123/29 37/124/29 41/125/13 40/126/13
f 30/127/30 32/128/30 36/129/30 34/130/30
f 32/131/22 33/132/22 37/133/29 36/134/29
f 31/135/28 30/136/28 34/137/31 35/138/31
f 38/139/9 40/126/9 41/125/9 39/140/9
f 35/141/31 34/142/31 38/139/12 39/140/12
f 37/143/11 35/144/11 39/145/11 41/146/11
f 34/147/10 36/148/10 40/149/10 38/150/10
f 22/151/10 24/152/10 43/153/10 44/154/10
f 25/155/11 23/156/11 45/157/11 42/158/11
f 23/159/12 22/160/12 44/161/12 45/162/12
f 24/163/13 25/164/13 42/165/13 43/166/13
f 44/154/10 43/153/10 48/120/10 47/119/10
f 42/158/11 45/157/11 49/116/11 46/115/11
f 45/167/32 44/168/32 56/169/32 55/170/32
f 46/171/9 48/172/9 50/173/9 53/174/9
f 51/175/33 52/176/33 53/174/33 50/173/33
f 43/177/32 42/178/32 52/179/32 51/180/32
f 48/120/10 43/153/10 51/181/10 50/182/10
f 42/158/11 46/115/11 53/183/11 52/184/11
f 55/185/34 56/186/34 57/187/34 54/188/34
f 44/154/10 47/119/10 57/189/10 56/190/10
f 49/116/11 45/157/11 55/191/11 54/192/11
f 47/193/9 49/194/9 54/188/9 57/187/9
