# Blender v3.4.1 OBJ File: 'CityBits_Export_Extra.blend'
# www.blender.org
mtllib tree_C.mtl
o tree_C_Cube.14212
v -0.063524 0.000000 0.061776
v -0.055734 0.460965 -0.013151
v -0.061201 0.000000 -0.062937
v -0.073187 0.415988 -0.055565
v 0.063526 0.000000 0.061776
v 0.001408 0.451277 -0.055319
v 0.061203 0.000000 -0.062937
v -0.028322 0.436504 -0.094129
v -0.038251 0.121889 0.048776
v -0.028698 0.298136 0.020083
v -0.056621 0.285149 -0.041826
v -0.053393 0.114818 -0.042058
v -0.005105 0.317642 -0.074409
v 0.033288 0.184319 -0.069646
v 0.026100 0.332108 -0.015954
v 0.060092 0.195670 0.016546
v -0.026911 0.507867 -0.059147
v -0.053517 0.493576 -0.089349
v 0.057093 0.543483 -0.150530
v -0.115091 0.645536 -0.012879
v -0.095472 0.477206 -0.045994
v 0.177400 0.674358 -0.169017
v 0.182386 1.086621 -0.141454
v 0.372942 1.028872 -0.253771
v 0.221931 1.037933 -0.361585
v 0.390547 1.016107 -0.064143
v 0.245585 1.009040 0.066221
v 0.045499 1.013935 0.029193
v -0.042742 1.026708 -0.144327
v 0.042101 1.036967 -0.314995
v 0.228528 0.729059 -0.438067
v 0.416362 0.717838 -0.304160
v 0.442099 0.701558 -0.066101
v 0.260310 0.692747 0.099765
v 0.004812 0.698998 0.052483
v -0.104996 0.714943 -0.167345
v 0.004921 0.727905 -0.380301
v 0.243681 0.920983 -0.494577
v 0.242267 0.803849 -0.502420
v 0.475358 0.789960 -0.336776
v 0.476794 0.907083 -0.328889
v 0.511616 0.769523 -0.038781
v 0.512998 0.886785 -0.030872
v 0.284423 0.758288 0.171765
v 0.285803 0.875365 0.179592
v -0.040330 0.766234 0.111667
v -0.038880 0.883309 0.119507
v -0.176389 0.786357 -0.166101
v -0.174962 0.903617 -0.158184
v -0.035028 0.802448 -0.431227
v -0.033648 0.919572 -0.423351
v 0.020024 0.433817 0.069951
v 0.007970 0.484750 -0.105947
v 0.149822 0.475042 -0.050534
v 0.200570 0.460725 0.096980
v 0.113154 0.449440 0.228599
v -0.049119 0.449464 0.239732
v -0.154189 0.464091 0.121512
v -0.124577 0.480994 -0.031170
v -0.094126 0.735554 0.017086
v -0.114990 0.722793 0.141716
v -0.028116 0.711734 0.235294
v 0.102104 0.711626 0.223742
v 0.171539 0.720480 0.115924
v 0.129451 0.731630 -0.003191
v 0.013119 0.738892 -0.046143
v 0.026700 0.778032 0.104182
v -0.002918 0.470859 -0.223885
v -0.128623 0.507655 -0.366865
v 0.033728 0.508086 -0.402891
v 0.171037 0.506242 -0.304903
v 0.173770 0.504945 -0.138827
v 0.038803 0.506242 -0.040987
v -0.124574 0.507233 -0.086126
v -0.197670 0.506956 -0.229501
v -0.158959 0.785621 -0.227256
v -0.099176 0.784911 -0.112159
v 0.033093 0.784323 -0.076894
v 0.141203 0.784042 -0.154553
v 0.138590 0.784692 -0.286258
v 0.028149 0.785476 -0.365611
v -0.103073 0.785822 -0.337962
v -0.001336 0.843116 -0.222356
v -0.266492 0.529398 -0.044736
v -0.261783 0.916571 -0.092992
v -0.082875 0.843326 -0.186259
v -0.224655 0.832489 -0.287251
v -0.066374 0.865322 -0.009189
v -0.202481 0.882009 0.112266
v -0.390273 0.879931 0.077273
v -0.473117 0.860821 -0.084981
v -0.393488 0.839890 -0.244139
v -0.218566 0.532073 -0.302088
v -0.042501 0.545543 -0.176862
v -0.018408 0.572863 0.045115
v -0.188815 0.594239 0.199348
v -0.428226 0.591590 0.154737
v -0.531156 0.567190 -0.050431
v -0.428160 0.541276 -0.248726
v -0.204207 0.700596 -0.389152
v -0.205547 0.590248 -0.375409
v 0.014103 0.662111 -0.227023
v 0.048086 0.696401 0.051455
v -0.165996 0.668305 0.254527
v -0.164690 0.778594 0.240781
v -0.470964 0.664930 0.197699
v -0.469589 0.775221 0.183966
v -0.598773 0.634009 -0.062108
v -0.597421 0.744495 -0.075801
v -0.466032 0.601633 -0.309516
v -0.464728 0.711978 -0.323224
v -0.163799 0.592888 -0.049952
v 0.005075 0.597184 -0.146674
v -0.203882 0.529585 0.142086
v -0.202090 0.612384 0.151352
v -0.068308 0.511007 0.295069
v -0.066040 0.593540 0.303743
v 0.143309 0.511756 0.279524
v 0.145598 0.594421 0.287057
v 0.254563 0.525859 0.107702
v 0.256206 0.608889 0.114778
v 0.186117 0.542864 -0.081300
v 0.187155 0.626372 -0.073952
v -0.254245 0.622894 -0.232011
v -0.166223 0.665933 -0.405706
v -0.166432 0.581497 -0.406679
v -0.160472 0.623147 -0.048024
v 0.050263 0.621999 0.013093
v 0.226207 0.578477 -0.113019
v 0.226434 0.662254 -0.112849
v 0.222288 0.580310 -0.329664
v 0.222336 0.663770 -0.328859
v 0.042952 0.582589 -0.454599
v 0.042985 0.665980 -0.453359
vt 0.791559 0.816393
vt 0.792110 0.832015
vt 0.792110 0.832054
vt 0.791559 0.816393
vt 0.791559 0.847643
vt 0.792110 0.863304
vt 0.796591 0.865729
vt 0.796193 0.851542
vt 0.796193 0.820292
vt 0.796591 0.834479
vt 0.796591 0.834455
vt 0.796193 0.820292
vt 0.796193 0.851542
vt 0.796591 0.865705
vt 0.792110 0.863265
vt 0.791559 0.847643
vt 0.798500 0.813912
vt 0.797750 0.835813
vt 0.790719 0.827533
vt 0.789538 0.813912
vt 0.798500 0.782662
vt 0.797750 0.804563
vt 0.797750 0.804563
vt 0.798500 0.782662
vt 0.789538 0.813912
vt 0.790719 0.827533
vt 0.797750 0.835813
vt 0.798500 0.813912
vt 0.789538 0.782662
vt 0.790719 0.796283
vt 0.790719 0.796283
vt 0.789538 0.782662
vt 0.804866 0.843062
vt 0.795578 0.872436
vt 0.791047 0.870472
vt 0.792162 0.890003
vt 0.795578 0.903686
vt 0.795578 0.903718
vt 0.804379 0.909378
vt 0.795578 0.872468
vt 0.802362 0.878128
vt 0.806882 0.874312
vt 0.795578 0.841218
vt 0.795578 0.841186
vt 0.792162 0.857155
vt 0.791047 0.870504
vt 0.788261 0.887216
vt 0.791047 0.839222
vt 0.791047 0.839254
vt 0.788261 0.857634
vt 0.300481 0.378061
vt 0.299137 0.388273
vt 0.310020 0.388509
vt 0.309554 0.378260
vt 0.318238 0.373575
vt 0.320619 0.382852
vt 0.311706 0.380988
vt 0.310869 0.372062
vt 0.298897 0.382305
vt 0.300453 0.373133
vt 0.293555 0.385634
vt 0.296000 0.375861
vt 0.319163 0.386214
vt 0.317173 0.376345
vt 0.293604 0.402449
vt 0.298729 0.421856
vt 0.302105 0.423581
vt 0.299186 0.405088
vt 0.298945 0.399120
vt 0.302223 0.419753
vt 0.311755 0.397804
vt 0.310183 0.418935
vt 0.320666 0.399668
vt 0.315916 0.420089
vt 0.319211 0.403030
vt 0.315201 0.422235
vt 0.310068 0.405324
vt 0.309225 0.423739
vt 0.307660 0.455681
vt 0.307480 0.345452
vt 0.300689 0.270499
vt 0.295125 0.301547
vt 0.300230 0.302164
vt 0.305685 0.300586
vt 0.307647 0.298267
vt 0.304278 0.296434
vt 0.298006 0.296433
vt 0.293969 0.298802
vt 0.293878 0.322298
vt 0.296467 0.337898
vt 0.300410 0.338402
vt 0.300130 0.322955
vt 0.292408 0.318784
vt 0.295694 0.335913
vt 0.304699 0.337286
vt 0.306872 0.320971
vt 0.292350 0.307539
vt 0.293835 0.310945
vt 0.297460 0.315832
vt 0.298898 0.334209
vt 0.305275 0.304786
vt 0.297382 0.304630
vt 0.305355 0.316008
vt 0.303713 0.334193
vt 0.309407 0.306980
vt 0.309461 0.318257
vt 0.306265 0.335551
vt 0.306843 0.309595
vt 0.292111 0.337786
vt 0.290206 0.347946
vt 0.293474 0.348068
vt 0.294754 0.337876
vt 0.300113 0.311592
vt 0.300920 0.368405
vt 0.299675 0.308510
vt 0.301082 0.337905
vt 0.306432 0.337645
vt 0.306548 0.337459
vt 0.301335 0.337624
vt 0.294962 0.337775
vt 0.290222 0.359550
vt 0.293855 0.378512
vt 0.295904 0.378573
vt 0.293480 0.359681
vt 0.293770 0.359578
vt 0.296102 0.378479
vt 0.300813 0.378572
vt 0.301382 0.359730
vt 0.293752 0.347990
vt 0.301735 0.359333
vt 0.301057 0.378363
vt 0.308314 0.347628
vt 0.301722 0.347872
vt 0.308321 0.359062
vt 0.305056 0.378260
vt 0.308158 0.347890
vt 0.308159 0.359326
vt 0.304947 0.378388
vt 0.301383 0.348192
vt 0.299732 0.411445
vt 0.281761 0.344596
vt 0.280507 0.352662
vt 0.290663 0.350791
vt 0.290228 0.343032
vt 0.298332 0.349968
vt 0.300554 0.359151
vt 0.292237 0.363574
vt 0.291455 0.353576
vt 0.280282 0.363018
vt 0.281735 0.353124
vt 0.275298 0.357977
vt 0.277579 0.349003
vt 0.299196 0.353531
vt 0.297339 0.345320
vt 0.275343 0.373584
vt 0.280126 0.391759
vt 0.283277 0.388321
vt 0.280552 0.368269
vt 0.280328 0.378625
vt 0.283386 0.394928
vt 0.292282 0.379181
vt 0.290815 0.395273
vt 0.300599 0.374758
vt 0.296166 0.392505
vt 0.299241 0.369138
vt 0.295498 0.388889
vt 0.290708 0.366398
vt 0.289921 0.387091
vt 0.288461 0.424833
vt 0.288293 0.319093
vn -0.9370 -0.0131 0.3492
vn -0.7629 -0.2199 0.6080
vn -0.8541 -0.1472 0.4989
vn -0.9391 -0.0094 0.3435
vn -0.4158 -0.1104 -0.9027
vn -0.5718 -0.1811 -0.8001
vn -0.5424 -0.1619 -0.8244
vn -0.4534 -0.1425 -0.8799
vn 0.8763 0.1128 -0.4684
vn 0.8369 -0.3107 -0.4506
vn 0.8331 -0.3305 -0.4434
vn 0.8784 0.1184 -0.4630
vn 0.4210 0.2678 0.8666
vn 0.5621 0.3304 0.7582
vn 0.5934 0.2919 0.7501
vn 0.3552 0.2401 0.9034
vn 0.0833 0.1742 0.9812
vn 0.2154 0.1964 0.9566
vn 0.1338 0.1830 0.9740
vn 0.9882 0.0624 -0.1398
vn 0.9553 0.1251 -0.2680
vn 0.9583 0.1207 -0.2590
vn -0.1429 0.0372 -0.9890
vn -0.2083 0.0075 -0.9780
vn -0.2854 -0.0283 -0.9580
vn -0.9892 0.1364 0.0544
vn -0.9832 0.0896 0.1591
vn -0.9842 0.0935 0.1506
vn 0.6819 -0.6828 -0.2624
vn -0.6035 -0.0897 -0.7923
vn -0.6886 -0.0567 -0.7230
vn -0.7271 0.0500 -0.6847
vn -0.4318 0.9008 -0.0459
vn 0.6471 0.3035 0.6993
vn 0.6150 0.3554 0.7039
vn -0.4389 -0.1192 -0.8906
vn 0.4866 0.5420 -0.6852
vn 0.7052 0.2258 0.6721
vn -0.6765 -0.2675 0.6862
vn -0.6731 -0.2175 0.7068
vn -0.3290 -0.8284 -0.4533
vn -0.5819 -0.2933 -0.7586
vn 0.1672 -0.2906 -0.9421
vn 0.0827 -0.8268 -0.5564
vn 0.4640 -0.8775 0.1216
vn 0.8752 -0.3832 0.2953
vn 0.2591 -0.4114 0.8738
vn 0.1251 -0.8918 0.4348
vn -0.5736 -0.3911 0.7197
vn -0.3144 -0.8810 0.3535
vn -0.9400 -0.3388 -0.0406
vn -0.5177 -0.8534 -0.0600
vn 0.8001 -0.3271 -0.5028
vn 0.4298 -0.8470 -0.3129
vn -0.9303 0.3668 0.0086
vn -0.5368 0.8418 0.0562
vn -0.3371 0.8646 -0.3725
vn -0.5738 0.4087 -0.7097
vn -0.5638 0.3088 0.7660
vn -0.3174 0.8065 0.4988
vn 0.2665 0.2885 0.9196
vn 0.1558 0.7949 0.5864
vn 0.8819 0.3225 0.3439
vn 0.5204 0.8160 0.2518
vn 0.8083 0.3749 -0.4540
vn 0.4885 0.8444 -0.2197
vn 0.1755 0.4122 -0.8940
vn 0.1110 0.8675 -0.4849
vn 0.0121 0.9977 0.0665
vn -0.0120 -0.9977 -0.0668
vn -0.0195 -0.9946 -0.1021
vn -0.5389 -0.6926 -0.4795
vn -0.0904 -0.6811 -0.7266
vn 0.4021 -0.7595 -0.5113
vn 0.5620 -0.8271 -0.0034
vn 0.2810 -0.8623 0.4213
vn -0.2303 -0.8614 0.4526
vn -0.6066 -0.7937 0.0460
vn -0.7938 0.1044 -0.5991
vn -0.5345 0.7765 -0.3337
vn -0.0640 0.7921 -0.6070
vn -0.1058 0.1233 -0.9867
vn -0.9164 0.2966 0.2687
vn -0.6117 0.7549 0.2364
vn 0.4605 0.7927 -0.3994
vn 0.6722 0.3521 -0.6512
vn -0.9334 -0.2972 0.2008
vn -0.3526 0.2162 0.9104
vn -0.2176 0.7137 0.6658
vn 0.4832 -0.3871 0.7853
vn -0.3655 -0.3842 0.8478
vn 0.4955 0.2136 0.8419
vn 0.3365 0.7130 0.6152
vn 0.9413 -0.3283 0.0784
vn 0.9527 0.2746 0.1302
vn 0.6423 0.7534 0.1408
vn 0.6645 -0.2418 -0.7071
vn -0.6620 -0.7489 0.0287
vn -0.9993 0.0258 0.0275
vn -0.6082 -0.2792 -0.7431
vn -0.3920 -0.7853 -0.4792
vn 0.0191 0.9952 0.0961
vn -0.0048 -1.0000 -0.0043
vn 0.1171 -0.7939 -0.5966
vn 0.5184 -0.8054 -0.2873
vn 0.5287 -0.7960 0.2947
vn 0.0872 -0.7456 0.6606
vn -0.4322 -0.7291 0.5306
vn -0.6832 0.7295 0.0343
vn -0.4119 0.7607 -0.5017
vn -0.6037 0.3101 -0.7345
vn -0.6392 0.0345 0.7683
vn -0.4400 0.7084 0.5519
vn 0.1345 0.7603 -0.6354
vn 0.1837 0.2990 -0.9364
vn 0.1474 0.0225 0.9888
vn 0.1023 0.7172 0.6894
vn 0.8470 -0.2954 0.4419
vn 0.8459 0.2993 0.4414
vn 0.5712 0.7577 0.3156
vn 0.8430 -0.2925 -0.4514
vn 0.8438 0.2990 -0.4455
vn 0.5694 0.7663 -0.2976
vn 0.1820 -0.2759 -0.9438
vn 0.0035 1.0000 0.0039
vn -0.3295 -0.8989 -0.2887
vn -0.5820 -0.4313 -0.6894
vn 0.1892 -0.4474 -0.8741
vn 0.1233 -0.8980 -0.4225
vn 0.5783 -0.7630 0.2888
vn 0.9500 0.0618 0.3061
vn 0.2809 -0.2198 0.9342
vn 0.1674 -0.7675 0.6188
vn -0.5737 -0.2470 0.7809
vn -0.3149 -0.7975 0.5147
vn -0.9402 -0.3398 0.0243
vn -0.5185 -0.8488 0.1028
vn 0.8772 -0.0351 -0.4788
vn 0.5384 -0.8214 -0.1883
vn -0.9304 0.3614 -0.0610
vn -0.5373 0.8369 -0.1043
vn -0.3374 0.7780 -0.5300
vn -0.5739 0.2664 -0.7744
vn -0.5639 0.4481 0.6937
vn -0.3178 0.8861 0.3373
vn 0.2848 0.4560 0.8432
vn 0.1900 0.8797 0.4359
vn 0.5996 0.7943 0.0981
vn 0.5658 0.7309 -0.3816
vn 0.1951 0.2356 -0.9521
vn 0.1456 0.7444 -0.6517
vn 0.0121 0.9922 -0.1239
vn -0.0120 -0.9923 0.1235
usemtl citybits_texture
s 1
f 10/1/1 2/2/2 4/3/3 11/4/4
f 11/5/5 4/6/6 8/7/7 13/8/8
f 13/9/9 8/10/10 6/11/11 15/12/12
f 15/13/13 6/14/14 2/15/15 10/16/16
f 5/17/17 16/18/18 9/19/19 1/20/17
f 16/18/18 15/13/13 10/16/16 9/19/19
f 7/21/20 14/22/21 16/23/22 5/24/20
f 14/22/21 13/9/9 15/12/12 16/23/22
f 3/25/23 12/26/24 14/27/25 7/28/23
f 12/26/24 11/5/5 13/8/8 14/27/25
f 1/29/26 9/30/27 12/31/28 3/32/26
f 9/30/27 10/1/1 11/4/4 12/31/28
f 6/11/11 8/10/10 19/33/29
f 18/34/30 21/35/31 20/36/32
f 18/37/33 17/38/33 19/39/33
f 17/40/34 6/14/14 19/41/35
f 8/7/7 18/34/30 19/42/36
f 17/43/37 18/44/37 20/45/37
f 2/46/15 17/40/34 20/47/38
f 21/48/39 2/49/2 20/50/40
f 4/3/3 2/49/2 21/48/39
f 17/40/34 2/15/15 6/14/14
f 8/7/7 4/3/6 21/35/31 18/34/30
f 37/51/41 50/52/42 39/53/43 31/54/44
f 33/55/45 42/56/46 44/57/47 34/58/48
f 34/58/48 44/57/47 46/59/49 35/60/50
f 35/60/50 46/59/49 48/61/51 36/62/52
f 36/62/52 48/61/51 50/52/42 37/51/41
f 31/54/44 39/53/43 40/63/53 32/64/54
f 32/64/54 40/63/53 42/56/46 33/55/45
f 49/65/55 29/66/56 30/67/57 51/68/58
f 47/69/59 28/70/60 29/66/56 49/65/55
f 45/71/61 27/72/62 28/70/60 47/69/59
f 43/73/63 26/74/64 27/72/62 45/71/61
f 41/75/65 24/76/66 26/74/64 43/73/63
f 38/77/67 25/78/68 24/76/66 41/75/65
f 23/79/69 24/76/66 25/78/68
f 23/79/69 26/74/64 24/76/66
f 23/79/69 27/72/62 26/74/64
f 23/79/69 28/70/60 27/72/62
f 23/79/69 29/66/56 28/70/60
f 23/79/69 30/67/57 29/66/56
f 23/79/69 25/78/68 30/67/57
f 22/80/70 31/54/44 32/64/54
f 22/80/70 32/64/54 33/55/45
f 22/80/70 33/55/45 34/58/48
f 22/80/70 34/58/48 35/60/50
f 22/80/70 35/60/50 36/62/52
f 22/80/70 36/62/52 37/51/41
f 22/80/70 37/51/41 31/54/44
f 51/68/58 38/77/67 39/53/43 50/52/42
f 49/65/55 51/68/58 50/52/42 48/61/51
f 47/69/59 49/65/55 48/61/51 46/59/49
f 45/71/61 47/69/59 46/59/49 44/57/47
f 43/73/63 45/71/61 44/57/47 42/56/46
f 41/75/65 43/73/63 42/56/46 40/63/53
f 38/77/67 41/75/65 40/63/53 39/53/43
f 51/68/58 30/67/57 25/78/68 38/77/67
f 52/81/71 59/82/72 53/83/73
f 52/81/71 53/83/73 54/84/74
f 52/81/71 54/84/74 55/85/75
f 52/81/71 55/85/75 56/86/76
f 52/81/71 56/86/76 57/87/77
f 52/81/71 57/87/77 58/88/78
f 52/81/71 58/88/78 59/82/72
f 112/89/79 60/90/80 66/91/81 113/92/82
f 115/93/83 61/94/84 60/90/80 112/89/79
f 113/92/82 66/91/81 65/95/85 123/96/86
f 58/88/78 114/97/87 112/98/79 59/82/72
f 117/99/88 62/100/89 61/94/84 115/93/83
f 56/86/76 118/101/90 116/102/91 57/87/77
f 119/103/92 63/104/93 62/100/89 117/99/88
f 55/85/75 120/105/94 118/101/90 56/86/76
f 121/106/95 64/107/96 63/104/93 119/103/92
f 54/84/74 122/108/97 120/105/94 55/85/75
f 123/96/86 65/95/85 64/107/96 121/106/95
f 75/109/98 124/110/99 126/111/100 69/112/101
f 57/87/77 116/102/91 114/97/87 58/88/78
f 53/83/73 113/113/82 122/108/97 54/84/74
f 67/114/102 65/95/85 66/91/81
f 67/114/102 64/107/96 65/95/85
f 67/114/102 66/91/81 60/90/80
f 67/114/102 63/104/93 64/107/96
f 67/114/102 62/100/89 63/104/93
f 67/114/102 61/94/84 62/100/89
f 67/114/102 60/90/80 61/94/84
f 68/115/103 75/109/98 69/112/101
f 68/115/103 69/112/101 70/116/104
f 68/115/103 70/116/104 71/117/105
f 68/115/103 71/117/105 72/118/106
f 68/115/103 72/118/106 73/119/107
f 68/115/103 73/119/107 74/120/108
f 68/115/103 74/120/108 75/109/98
f 124/121/99 76/122/109 82/123/110 125/124/111
f 127/125/112 77/126/113 76/122/109 124/121/99
f 125/124/111 82/123/110 81/127/114 134/128/115
f 74/120/108 127/129/112 124/110/99 75/109/98
f 128/130/116 78/131/117 77/126/113 127/125/112
f 72/118/106 129/132/118 128/133/116 73/119/107
f 130/134/119 79/135/120 78/131/117 128/130/116
f 71/117/105 131/136/121 129/132/118 72/118/106
f 132/137/122 80/138/123 79/135/120 130/134/119
f 70/116/104 133/139/124 131/136/121 71/117/105
f 134/128/115 81/127/114 80/138/123 132/137/122
f 73/119/107 128/133/116 127/129/112 74/120/108
f 69/112/101 126/111/100 133/139/124 70/116/104
f 83/140/125 81/127/114 82/123/110
f 83/140/125 80/138/123 81/127/114
f 83/140/125 82/123/110 76/122/109
f 83/140/125 79/135/120 80/138/123
f 83/140/125 78/131/117 79/135/120
f 83/140/125 77/126/113 78/131/117
f 83/140/125 76/122/109 77/126/113
f 99/141/126 110/142/127 101/143/128 93/144/129
f 95/145/130 103/146/131 104/147/132 96/148/133
f 96/148/133 104/147/132 106/149/134 97/150/135
f 97/150/135 106/149/134 108/151/136 98/152/137
f 98/152/137 108/151/136 110/142/127 99/141/126
f 93/144/129 101/143/128 102/153/138 94/154/139
f 94/154/139 102/153/138 103/146/131 95/145/130
f 109/155/140 91/156/141 92/157/142 111/158/143
f 107/159/144 90/160/145 91/156/141 109/155/140
f 105/161/146 89/162/147 90/160/145 107/159/144
f 103/163/131 88/164/148 89/162/147 105/161/146
f 102/165/138 86/166/149 88/164/148 103/163/131
f 100/167/150 87/168/151 86/166/149 102/165/138
f 85/169/152 86/166/149 87/168/151
f 85/169/152 88/164/148 86/166/149
f 85/169/152 89/162/147 88/164/148
f 85/169/152 90/160/145 89/162/147
f 85/169/152 91/156/141 90/160/145
f 85/169/152 92/157/142 91/156/141
f 85/169/152 87/168/151 92/157/142
f 84/170/153 93/144/129 94/154/139
f 84/170/153 94/154/139 95/145/130
f 84/170/153 95/145/130 96/148/133
f 84/170/153 96/148/133 97/150/135
f 84/170/153 97/150/135 98/152/137
f 84/170/153 98/152/137 99/141/126
f 84/170/153 99/141/126 93/144/129
f 111/158/143 100/167/150 101/143/128 110/142/127
f 109/155/140 111/158/143 110/142/127 108/151/136
f 107/159/144 109/155/140 108/151/136 106/149/134
f 105/161/146 107/159/144 106/149/134 104/147/132
f 103/163/131 105/161/146 104/147/132
f 100/167/150 102/153/138 101/143/128
f 111/158/143 92/157/142 87/168/151 100/167/150
f 115/93/83 112/98/79 114/97/87
f 117/99/88 115/93/83 114/97/87 116/102/91
f 119/103/92 117/99/88 116/102/91 118/101/90
f 121/106/95 119/103/92 118/101/90 120/105/94
f 123/96/86 121/106/95 120/105/94 122/108/97
f 113/92/82 123/96/86 122/108/97
f 124/121/99 125/124/111 126/111/100
f 130/134/119 128/133/116 129/132/118
f 132/137/122 130/134/119 129/132/118 131/136/121
f 134/128/115 132/137/122 131/136/121 133/139/124
f 125/124/111 134/128/115 133/139/124 126/111/100
f 59/82/72 112/98/79 113/113/82 53/83/73
