# Blender 4.2.0
# www.blender.org
mtllib van_headlight_R.mtl
o Headlight_R
v -0.814773 0.802985 2.438326
v -0.801119 0.802985 2.387176
v -0.814773 1.017058 2.438326
v -0.725454 0.802985 2.462169
v -0.725454 1.017058 2.462169
v -0.711800 0.802985 2.411019
v -0.711800 1.017058 2.411019
v -0.801119 1.017058 2.387176
vn -0.0000 -1.0000 -0.0000
vn -0.9662 -0.0000 -0.2579
vn -0.2579 -0.0000 0.9662
vn 0.2579 -0.0000 -0.9662
vn -0.0000 1.0000 -0.0000
vt 0.250000 0.500000
vt 0.250000 0.750000
vt 0.375000 0.750000
vt 0.375000 0.500000
vt 0.625000 0.750000
vt 0.625000 0.500000
vt 0.375000 0.875000
vt 0.625000 0.875000
vt 0.375000 0.375000
vt 0.625000 0.375000
vt 0.750000 0.750000
vt 0.750000 0.500000
s 0
f 6/1/1 4/2/1 1/3/1 2/4/1
f 2/4/2 1/3/2 3/5/2 8/6/2
f 1/3/3 4/7/3 5/8/3 3/5/3
f 6/9/4 2/4/4 8/6/4 7/10/4
f 8/6/5 3/5/5 5/11/5 7/12/5
