# Blender 4.2.0
# www.blender.org
mtllib van_backdoor_L.mtl
o BackDoorLeft
v 0.000000 1.210621 -2.349758
v 0.000000 1.020464 -2.357819
v 0.000000 0.650833 -2.363383
v 0.000000 1.653072 -2.324161
v 0.493243 1.233235 -2.348587
v 0.507111 1.020464 -2.357819
v 0.507111 0.650833 -2.363383
v 0.458061 1.649459 -2.324161
v 0.000000 2.027058 -2.299339
v 0.426691 2.012370 -2.299339
v 0.827822 1.255269 -2.347420
v 0.900422 1.020464 -2.357819
v 0.900422 0.650833 -2.363383
v 0.787998 1.643073 -2.324383
v 0.714387 1.960750 -2.302078
v 0.000000 0.349237 -2.360420
v 0.507111 0.349237 -2.360420
v 0.900422 0.349237 -2.360420
v 0.000000 0.815113 -2.360910
v 0.507111 0.815113 -2.360910
v 0.900422 0.815113 -2.360910
v 0.040000 1.653070 -2.324132
v 0.040000 1.250768 -2.347417
v 0.040000 1.985751 -2.302068
v 0.493358 1.213269 -2.349758
v 0.425943 1.992431 -2.300705
v 0.874437 1.215625 -2.349758
v 0.748471 1.999305 -2.299339
v 0.020000 1.653071 -2.324146
v 0.020000 1.230694 -2.348588
v 0.020000 2.006404 -2.300703
v 0.493128 1.253200 -2.347416
v 0.425195 1.972491 -2.302072
v 0.851129 1.235447 -2.348589
v 0.731429 1.980028 -2.300708
v 0.768252 1.639901 -2.324605
v 0.000000 0.349139 -2.370419
v 0.020005 1.653691 -2.334127
v 0.020001 1.231276 -2.358571
v 0.874437 1.216128 -2.359746
v 0.000000 1.211122 -2.359746
v 0.000000 1.020749 -2.367815
v 0.900421 1.020746 -2.367815
v 0.000000 0.815264 -2.370909
v 0.000000 0.650859 -2.373383
v 0.900422 0.650859 -2.373383
v 0.020014 2.007077 -2.310681
v 0.807752 1.646897 -2.334140
v 0.493356 1.213771 -2.359746
v 0.507110 1.020748 -2.367815
v 0.507111 0.650859 -2.373383
v 0.040006 1.653694 -2.334112
v 0.458069 1.650094 -2.334141
v 0.493126 1.253785 -2.357399
v 0.507111 0.349139 -2.370419
v 0.507111 0.815264 -2.370909
v 0.425216 1.973174 -2.312049
v 0.000000 2.027731 -2.309316
v 0.426718 2.013054 -2.309315
v 0.748494 2.000005 -2.309314
v 0.768259 1.640543 -2.334584
v 0.900422 0.349139 -2.370419
v 0.900422 0.815264 -2.370909
v 0.000000 1.653692 -2.334141
v 0.493239 1.233820 -2.358570
v 0.425969 1.993114 -2.310682
v 0.851132 1.236037 -2.358572
v 0.731445 1.980720 -2.310684
v 0.788005 1.643721 -2.334362
v 0.040001 1.251349 -2.357400
v 0.040014 1.986423 -2.312045
v 0.827824 1.255859 -2.357402
v 0.714403 1.961443 -2.312053
v 0.787998 1.643073 -2.324383
v 0.874437 1.215625 -2.349758
v 0.748471 1.999305 -2.299339
v 0.807744 1.646245 -2.324161
v 0.851129 1.235447 -2.348589
v 0.731429 1.980028 -2.300708
vn -0.0000 -0.0582 0.9983
vn -0.0000 0.0098 1.0000
vn -0.0000 -0.0151 0.9999
vn 0.0001 -0.0421 0.9991
vn -0.0014 -0.0673 0.9977
vn -0.0017 -0.0694 0.9976
vn -0.0000 -0.0589 0.9983
vn 0.0001 -0.0415 0.9991
vn -0.0006 -0.0578 0.9983
vn -0.0005 -0.0662 0.9978
vn 0.0003 -0.0586 0.9983
vn -0.0023 -0.0682 0.9977
vn 0.0004 -0.0585 0.9983
vn -0.0028 -0.0683 0.9977
vn 0.0003 -0.0585 0.9983
vn -0.0004 -0.0701 0.9975
vn -0.0010 -0.0594 0.9982
vn -0.0000 0.0582 -0.9983
vn -0.0000 -0.0098 -1.0000
vn -0.0000 0.0151 -0.9999
vn -0.0001 0.0420 -0.9991
vn 0.0014 0.0673 -0.9977
vn 0.0017 0.0694 -0.9976
vn -0.0000 0.0589 -0.9983
vn -0.0001 0.0415 -0.9991
vn -0.0000 0.0150 -0.9999
vn 0.0006 0.0578 -0.9983
vn 0.0005 0.0662 -0.9978
vn -0.0003 0.0585 -0.9983
vn 0.0023 0.0683 -0.9977
vn -0.0004 0.0585 -0.9983
vn 0.0028 0.0683 -0.9977
vn 0.0003 0.0702 -0.9975
vn 0.0010 0.0595 -0.9982
vn -0.0003 0.0586 -0.9983
vn 0.0023 0.0682 -0.9977
vn 0.0028 0.0684 -0.9977
vn 0.0004 0.0701 -0.9975
vn 0.0010 0.0594 -0.9982
vn -0.0003 -0.0702 0.9975
vn -0.0010 -0.0595 0.9982
vn -0.9883 -0.1525 -0.0099
vn -0.9863 -0.1647 -0.0122
vn -0.0405 -0.9968 -0.0688
vn -0.0343 -0.9971 -0.0678
vn 1.0000 -0.0001 0.0010
vn 1.0000 -0.0000 0.0004
vn -0.0054 0.9983 0.0584
vn -0.0062 0.9983 0.0587
vn -0.0000 1.0000 -0.0000
vn 0.9863 0.1647 0.0127
vn 0.9883 0.1525 0.0092
vn 0.9913 0.1317 0.0052
vn 1.0000 -0.0000 -0.0000
vn -0.0000 -1.0000 0.0098
vn -0.0404 -0.9968 -0.0693
vn 0.0343 0.9971 0.0679
vn -1.0000 -0.0000 -0.0000
vt 0.517572 0.380156
vt 0.517631 0.437950
vt 0.571531 0.437500
vt 0.571569 0.380459
vt 0.383213 0.375000
vt 0.383213 0.437500
vt 0.427357 0.437500
vt 0.427357 0.375000
vt 0.451403 0.375000
vt 0.451403 0.437500
vt 0.481460 0.437500
vt 0.481460 0.375000
vt 0.512201 0.437500
vt 0.512201 0.375000
vt 0.611099 0.436665
vt 0.611225 0.380758
vt 0.570610 0.486679
vt 0.610985 0.486209
vt 0.517683 0.487100
vt 0.383213 0.493092
vt 0.427357 0.493092
vt 0.451403 0.493092
vt 0.481460 0.493092
vt 0.512201 0.493092
vt 0.571550 0.377729
vt 0.571531 0.375000
vt 0.514885 0.377571
vt 0.613618 0.377889
vt 0.616005 0.375000
vt 0.514916 0.437725
vt 0.613552 0.437082
vt 0.616005 0.437500
vt 0.514943 0.490105
vt 0.613492 0.489638
vt 0.616005 0.493092
vt 0.571071 0.489885
vt 0.571531 0.493092
vt 0.000000 0.000000
s 0
usemtl Body
f 16/5/2 17/6/2 7/7/2 3/8/2
f 19/9/3 20/10/3 6/11/3 2/12/3
f 2/12/4 6/11/4 25/13/4 1/14/4
f 17/6/2 18/20/2 13/21/2 7/7/2
f 20/10/3 21/22/3 12/23/3 6/11/3
f 6/11/8 12/23/8 27/24/8 25/13/8
f 7/7/3 13/21/3 21/22/3 20/10/3
f 3/8/3 7/7/3 20/10/3 19/9/3
f 29/25/9 4/26/9 1/14/9 30/27/9
f 31/28/10 9/29/10 4/26/10 29/25/10
f 30/27/11 1/14/11 25/13/11 5/30/11
f 26/31/12 10/32/12 9/29/12 31/28/12
f 5/30/13 25/13/13 27/24/13 34/33/13
f 35/34/14 28/35/14 10/32/14 26/31/14
f 37/5/19 45/8/19 51/7/19 55/6/19
f 44/9/20 42/12/20 50/11/20 56/10/20
f 42/12/21 41/14/21 49/13/21 50/11/21
f 55/6/19 51/7/19 46/21/19 62/20/19
f 56/10/20 50/11/20 43/23/20 63/22/20
f 50/11/25 49/13/25 40/24/25 43/23/25
f 51/7/26 56/10/26 63/22/26 46/21/26
f 45/8/26 44/9/26 56/10/26 51/7/26
f 38/25/27 39/27/27 41/14/27 64/26/27
f 47/28/28 38/25/28 64/26/28 58/29/28
f 39/27/29 65/30/29 49/13/29 41/14/29
f 66/31/30 47/28/30 58/29/30 59/32/30
f 65/30/31 67/33/31 40/24/31 49/13/31
f 68/34/32 66/31/32 59/32/32 60/35/32
f 69/36/33 68/34/33 60/35/33 48/37/33
f 67/33/34 69/36/34 48/37/34 40/24/34
f 74/36/40 77/37/40 76/35/40 79/34/40
f 78/33/41 75/24/41 77/37/41 74/36/41
f 48/37/51 60/38/51 76/35/51 77/37/51
f 48/37/52 77/37/52 75/24/52 27/38/52 40/24/52
f 43/23/53 40/24/53 27/38/53 75/24/53 12/38/53
f 21/22/54 63/22/54 43/23/54 12/38/54
f 13/21/54 46/21/54 63/22/54 21/22/54
f 18/20/54 62/20/54 46/21/54 13/21/54
f 18/20/55 17/6/55 55/6/55 62/20/55
f 17/6/55 16/5/55 37/5/55 55/6/55
f 10/38/56 59/32/56 60/35/56 28/38/56 76/38/56
f 10/38/57 59/32/57 58/29/57 9/29/57
f 4/26/58 9/29/58 58/29/58 64/26/58
f 1/14/58 4/26/58 64/26/58 41/14/58
f 2/12/58 1/14/58 41/14/58 42/12/58
f 19/9/58 2/12/58 42/12/58 44/9/58
f 3/8/58 19/9/58 44/9/58 45/8/58
f 16/5/58 3/8/58 45/8/58 37/5/58
usemtl Glass
f 23/1/1 32/2/1 8/3/1 22/4/1
f 22/4/5 8/3/5 33/15/5 24/16/5
f 8/3/6 36/17/6 15/18/6 33/15/6
f 32/2/7 11/19/7 36/17/7 8/3/7
f 70/1/18 52/4/18 53/3/18 54/2/18
f 52/4/22 71/16/22 57/15/22 53/3/22
f 53/3/23 57/15/23 73/18/23 61/17/23
f 54/2/24 53/3/24 61/17/24 72/19/24
usemtl Rubber
f 22/4/9 29/25/9 30/27/9 23/1/9
f 24/16/10 31/28/10 29/25/10 22/4/10
f 23/1/15 30/27/15 5/30/15 32/2/15
f 33/15/12 26/31/12 31/28/12 24/16/12
f 32/2/13 5/30/13 34/33/13 11/19/13
f 15/18/14 35/34/14 26/31/14 33/15/14
f 36/17/16 14/36/16 35/34/16 15/18/16
f 11/19/17 34/33/17 14/36/17 36/17/17
f 52/4/27 70/1/27 39/27/27 38/25/27
f 71/16/28 52/4/28 38/25/28 47/28/28
f 70/1/35 54/2/35 65/30/35 39/27/35
f 57/15/36 71/16/36 47/28/36 66/31/36
f 54/2/31 72/19/31 67/33/31 65/30/31
f 73/18/37 57/15/37 66/31/37 68/34/37
f 61/17/38 73/18/38 68/34/38 69/36/38
f 72/19/39 61/17/39 69/36/39 67/33/39
f 36/38/42 61/38/42 72/38/42 11/38/42
f 15/38/43 73/38/43 61/38/43 36/38/43
f 33/38/44 57/38/44 73/38/44 15/38/44
f 24/38/45 71/38/45 57/38/45 33/38/45
f 71/38/46 24/38/46 22/38/46 52/38/46
f 52/38/47 22/38/47 23/38/47 70/38/47
f 70/38/48 23/38/48 32/38/48 54/38/48
f 54/38/49 32/38/49 11/38/49 72/38/49
f 28/38/50 60/38/50 76/38/50
