# Blender 4.2.0
# www.blender.org
mtllib van_brakelight_L.mtl
o Brakelight_L
v 0.809512 0.496985 -2.370291
v 0.809512 0.585924 -2.370291
v 0.809512 0.496985 -2.385093
v 0.809512 0.585924 -2.385093
v 0.562603 0.496985 -2.385093
v 0.562603 0.585924 -2.385093
v 0.562603 0.496985 -2.370291
v 0.562603 0.585924 -2.370291
vn -0.0000 -0.0000 -1.0000
vn 1.0000 -0.0000 -0.0000
vn -0.0000 -1.0000 -0.0000
vn -0.0000 -0.0000 1.0000
vn -0.0000 1.0000 -0.0000
vn -1.0000 -0.0000 -0.0000
vt 0.375000 0.375000
vt 0.625000 0.375000
vt 0.625000 0.500000
vt 0.375000 0.500000
vt 0.625000 0.750000
vt 0.375000 0.750000
vt 0.250000 0.500000
vt 0.250000 0.750000
vt 0.625000 0.875000
vt 0.375000 0.875000
vt 0.750000 0.500000
vt 0.750000 0.750000
s 0
usemtl Brakelight
f 5/1/1 6/2/1 4/3/1 3/4/1
f 3/4/2 4/3/2 2/5/2 1/6/2
f 5/7/3 3/4/3 1/6/3 7/8/3
f 1/6/4 2/5/4 8/9/4 7/10/4
f 4/3/5 6/11/5 8/12/5 2/5/5
f 7/8/6 8/12/6 6/2/6 5/7/6
