# Blender 4.2.0
# www.blender.org
mtllib van_frontdoor_R.mtl
o FrontDoorRight
v -0.897757 1.636906 1.448937
v -0.833360 1.978029 1.151488
v -0.967460 1.235555 1.534624
v -0.896099 1.645846 1.467684
v -0.899414 1.627965 1.430190
v -0.896594 1.643260 1.062980
v -0.837071 1.958376 1.142615
v -0.964048 1.255191 1.510971
v -0.909256 1.629736 1.430195
v -0.906433 1.645046 1.062979
v -0.846898 1.960230 1.142614
v -0.973901 1.256902 1.510977
v -0.907596 1.638689 1.448947
v -0.843187 1.979882 1.151485
v -0.902733 1.651039 1.473070
v -0.977313 1.237266 1.534635
v -0.977310 1.235961 1.098321
v -0.980652 1.217863 1.558980
v -0.980742 1.216138 1.100992
v -1.009953 1.021405 1.559321
v -0.970868 1.215918 1.558277
v -0.970868 1.214556 1.100998
v -1.000000 1.020464 1.559083
v -1.000000 1.012964 0.418289
v -1.000000 0.781193 1.560069
v -1.000000 0.778494 0.465983
v -1.000000 0.650820 1.383303
v -1.007699 0.775234 1.562352
v -1.010000 0.778514 0.465971
v -1.007723 0.646958 1.388347
v -1.010000 0.650756 0.491959
v -1.007428 0.349773 1.273976
v -1.010000 0.355619 0.554081
v -1.000000 0.351101 1.267414
v -1.000000 0.355617 0.554088
v -1.000000 0.650751 0.491967
v -1.009972 1.013711 0.418269
v -0.980743 1.214097 0.419246
v -0.905941 1.647616 0.419393
v -0.977304 1.233993 0.439270
v -0.980742 1.216054 1.072648
v -0.970868 1.212525 0.419266
v -0.896099 1.645846 0.419407
v -0.967450 1.232290 0.439272
v -0.970868 1.214471 1.072654
v -0.967456 1.234173 1.070923
v -0.967456 1.234254 1.098324
v -0.897021 1.640877 1.018054
v -0.964054 1.253814 1.048206
v -0.964040 1.252057 0.459278
v -0.897471 1.638371 0.998216
v -0.973908 1.255518 1.048205
v -0.973894 1.253759 0.459276
v -0.907312 1.640147 0.998215
v -0.977309 1.235879 1.070919
v -0.906861 1.642661 1.018052
v -0.906903 1.642432 1.043155
v -0.843187 1.979885 0.973919
v -0.843186 1.979885 0.997357
v -0.843186 1.979885 0.433653
v -0.839475 1.999537 0.973074
v -0.846898 1.960232 0.956326
v -0.846898 1.960232 0.453997
v -0.837072 1.958377 0.956328
v -0.837071 1.958376 0.453997
v -0.833360 1.978029 0.973920
v -0.833360 1.978029 0.997357
v -0.833360 1.978029 0.433653
v -0.829648 1.997682 0.973074
v -0.829648 1.997682 0.997357
v -0.829648 1.997682 0.413310
v -0.839476 1.999528 0.413297
v -0.829648 1.997682 1.160360
v -0.839475 1.999537 0.997357
v -0.835864 2.004196 1.164711
v -0.896071 1.646010 0.439407
v -0.896043 1.646175 0.459407
v -0.905883 1.647954 0.459406
v -0.905911 1.647789 0.439408
v -0.897062 1.640654 1.043156
v -0.837070 1.958376 1.020203
v -0.846897 1.960232 1.020201
v -0.964036 1.254012 1.115820
v -0.973889 1.255720 1.115819
vn 0.9827 -0.1850 0.0005
vn 0.9827 -0.1851 0.0005
vn 0.9852 -0.1715 -0.0025
vn 0.9851 -0.1718 -0.0027
vn 0.9826 -0.1856 -0.0001
vn 0.9853 -0.1707 0.0005
vn -0.1179 -0.6391 -0.7600
vn -0.0369 -0.2055 -0.9780
vn -0.9826 0.1856 0.0001
vn -0.9853 0.1707 -0.0005
vn -0.9827 0.1850 -0.0005
vn -0.9852 0.1715 0.0025
vn -0.9663 0.2466 0.0732
vn -0.9810 0.1854 0.0578
vn -0.9855 0.1698 -0.0005
vn -0.9853 0.1708 -0.0005
vn -0.9893 0.1459 -0.0007
vn 0.3899 0.1178 0.9133
vn 0.0470 -0.0041 0.9989
vn 0.9854 -0.1705 0.0005
vn 0.9893 -0.1459 0.0007
vn 1.0000 -0.0000 -0.0000
vn 0.1389 0.0088 0.9903
vn 0.6221 -0.6302 0.4646
vn -1.0000 -0.0045 0.0010
vn -1.0000 -0.0012 0.0023
vn -1.0000 -0.0008 0.0030
vn 0.6423 -0.2756 0.7152
vn 0.0731 -0.9973 -0.0073
vn 0.0007 -0.2060 -0.9786
vn 0.0008 -0.1993 -0.9799
vn -0.0061 -0.1990 -0.9800
vn 0.0025 0.0045 -1.0000
vn 0.0017 -0.0000 -1.0000
vn -0.9854 0.1700 0.0002
vn 0.9854 -0.1700 -0.0002
vn 0.9853 -0.1708 0.0005
vn 0.9853 -0.1706 0.0005
vn 0.9853 -0.1706 0.0003
vn 0.9854 -0.1703 0.0005
vn 0.9853 -0.1707 -0.0004
vn 0.9854 -0.1703 0.0003
vn 0.1703 0.9854 -0.0029
vn 0.0220 0.1251 0.9919
vn -0.9854 0.1703 -0.0003
vn -0.9854 0.1703 -0.0005
vn -0.9853 0.1707 0.0004
vn -0.9853 0.1706 -0.0005
vn -0.9853 0.1706 -0.0003
vn -0.9826 0.1855 -0.0000
vn -0.9827 0.1854 -0.0005
vn -0.9826 0.1856 -0.0000
vn -0.1855 -0.9826 -0.0000
vn 0.0230 0.1255 0.9918
vn 0.9826 -0.1855 -0.0000
vn 0.9826 -0.1856 -0.0000
vn 0.9827 -0.1854 0.0005
vn 0.1856 0.9826 -0.0000
vn 0.1851 0.9827 -0.0000
vn -0.0018 -0.0170 -0.9999
vn 0.9826 -0.1856 0.0001
vn -0.9826 0.1856 -0.0001
vn 0.4588 0.8884 -0.0175
vn -0.9704 0.2413 0.0074
vn 0.7474 0.3512 0.5640
vn 0.9854 -0.1700 -0.0000
vn 0.0030 0.0167 0.9999
vn -0.0002 -0.0003 1.0000
vn -0.9854 0.1700 -0.0000
vn 0.9826 -0.1855 0.0005
vn -0.1855 -0.9827 -0.0000
vn 0.0239 0.1300 0.9912
vn -0.9826 0.1855 -0.0005
vn 0.1709 0.9853 -0.0029
vn 0.0230 0.1306 0.9912
vt 0.569062 0.746112
vt 0.611032 0.746044
vt 0.613521 0.748033
vt 0.570297 0.748061
vt 0.616005 0.750000
vt 0.571531 0.750000
vt 0.517633 0.721408
vt 0.514917 0.721260
vt 0.512201 0.721107
vt 0.571142 0.720920
vt 0.611033 0.736585
vt 0.517623 0.699282
vt 0.000000 0.000000
vt 0.512201 0.695922
vt 0.514911 0.697016
vt 0.481460 0.647316
vt 0.481460 0.702508
vt 0.512201 0.694361
vt 0.512201 0.658376
vt 0.446438 0.647329
vt 0.446438 0.702526
vt 0.427357 0.647337
vt 0.427357 0.693378
vt 0.383213 0.647300
vt 0.383213 0.686362
vt 0.571531 0.677094
vt 0.571554 0.678471
vt 0.514901 0.660396
vt 0.514910 0.695494
vt 0.570845 0.717706
vt 0.570814 0.719408
vt 0.517602 0.662423
vt 0.517618 0.695403
vt 0.570501 0.716204
vt 0.571576 0.679844
vt 0.613521 0.736014
vt 0.613521 0.734187
vt 0.611034 0.731708
vt 0.616005 0.737200
vt 0.616005 0.735293
vt 0.613521 0.692060
vt 0.611036 0.692771
vt 0.616005 0.691337
s 0
usemtl Body
f 1/4/2 2/3/2 73/5/2 4/6/2
f 3/8/4 1/4/4 4/6/4 21/9/4
f 13/4/13 15/6/13 75/5/13 14/3/13
f 16/8/14 18/9/14 15/6/14 13/4/14
f 19/14/15 18/9/15 16/8/15 17/15/15
f 37/16/17 20/17/17 18/9/17 19/14/17 41/18/17 38/19/17
f 21/13/18 4/6/18 15/6/18 18/13/18
f 23/17/19 21/13/19 18/9/19 20/17/19
f 22/14/20 47/15/20 3/8/20 21/9/20
f 24/16/21 42/19/21 45/18/21 22/14/21 21/9/21 23/17/21
f 26/20/22 24/16/22 23/17/22 25/21/22
f 25/21/23 23/17/23 20/17/23 28/21/23
f 36/22/22 26/20/22 25/21/22 27/23/22
f 27/23/24 25/21/24 28/21/24 30/23/24
f 29/20/25 28/21/25 20/17/25 37/16/25
f 31/22/26 30/23/26 28/21/26 29/20/26
f 33/24/27 32/25/27 30/23/27 31/22/27
f 34/25/28 27/23/28 30/23/28 32/25/28
f 34/25/29 32/25/29 33/24/29 35/24/29
f 35/24/22 36/22/22 27/23/22 34/25/22
f 35/24/30 33/24/30 31/22/30 36/22/30
f 36/22/31 31/22/31 29/20/31 26/20/31
f 26/20/32 29/20/32 37/16/32 24/16/32
f 24/16/33 37/16/33 38/19/33 42/19/33
f 42/19/34 38/19/34 39/26/34 43/26/34
f 79/27/35 39/26/35 38/19/35 40/28/35
f 40/28/10 38/19/10 41/18/10 55/29/10
f 76/27/36 44/28/36 42/19/36 43/26/36
f 44/28/37 46/29/37 45/18/37 42/19/37
f 46/29/38 47/15/38 22/14/38 45/18/38
f 46/29/39 48/30/39 80/31/39 47/15/39
f 55/29/48 41/18/48 19/14/48 17/15/48
f 55/29/49 17/15/49 57/31/49 56/30/49
f 56/30/50 57/31/50 59/36/50 58/37/50
f 74/39/52 61/40/52 58/37/52 59/36/52
f 61/40/52 72/43/52 60/41/52 58/37/52
f 48/30/55 66/37/55 67/36/55 80/31/55
f 70/39/56 67/36/56 66/37/56 69/40/56
f 69/40/56 66/37/56 68/41/56 71/43/56
f 70/39/58 69/40/58 61/40/58 74/39/58
f 69/40/59 71/43/59 72/43/59 61/40/59
f 43/26/60 39/26/60 72/43/60 71/43/60
f 68/41/61 76/27/61 43/26/61 71/43/61
f 60/41/62 72/43/62 39/26/62 79/27/62
f 73/5/63 70/39/63 74/39/63 75/5/63
f 2/3/56 67/36/56 70/39/56 73/5/56
f 14/3/64 75/5/64 74/39/64 59/36/64
f 4/6/65 73/5/65 75/5/65 15/6/65
usemtl Glass
f 6/10/5 81/11/5 7/2/5 5/1/5
f 83/12/6 6/10/6 5/1/6 8/7/6
f 10/10/9 9/1/9 11/2/9 82/11/9
f 84/12/10 12/7/10 9/1/10 10/10/10
f 50/32/42 77/35/42 51/34/42 49/33/42
f 53/32/45 52/33/45 54/34/45 78/35/45
f 78/35/50 54/34/50 62/38/50 63/42/50
f 77/35/55 65/42/55 64/38/55 51/34/55
usemtl Rubber
f 5/1/1 7/2/1 2/3/1 1/4/1
f 8/7/3 5/1/3 1/4/3 3/8/3
f 11/2/7 7/2/7 5/1/7 9/1/7
f 5/13/8 8/13/8 12/13/8 9/13/8
f 9/1/11 13/4/11 14/3/11 11/2/11
f 12/7/12 16/8/12 13/4/12 9/1/12
f 84/12/16 17/15/16 16/8/16 12/7/16
f 50/32/40 49/33/40 46/29/40 44/28/40
f 49/33/41 51/34/41 48/30/41 46/29/41
f 53/13/43 52/13/43 49/13/43 50/13/43
f 54/13/44 52/13/44 49/13/44 51/13/44
f 53/32/46 40/28/46 55/29/46 52/33/46
f 52/33/47 55/29/47 56/30/47 54/34/47
f 54/34/51 56/30/51 58/37/51 62/38/51
f 62/38/52 58/37/52 60/41/52 63/42/52
f 65/13/53 64/13/53 62/13/53 63/13/53
f 62/13/54 54/13/54 51/13/54 64/13/54
f 64/38/56 65/42/56 68/41/56 66/37/56
f 51/34/57 64/38/57 66/37/57 48/30/57
f 65/42/61 77/35/61 76/27/61 68/41/61
f 77/35/66 50/32/66 44/28/66 76/27/66
f 63/13/67 78/13/67 77/13/67 65/13/67
f 78/13/68 53/13/68 50/13/68 77/13/68
f 63/42/62 60/41/62 79/27/62 78/35/62
f 78/35/69 79/27/69 40/28/69 53/32/69
f 7/2/55 81/11/55 67/36/55 2/3/55
f 81/11/70 6/10/70 80/31/70 67/36/70
f 81/13/71 7/13/71 11/13/71 82/13/71
f 82/13/72 10/13/72 6/13/72 81/13/72
f 11/2/50 14/3/50 59/36/50 82/11/50
f 82/11/73 59/36/73 57/31/73 10/10/73
f 6/10/41 83/12/41 47/15/41 80/31/41
f 10/10/47 57/31/47 17/15/47 84/12/47
f 83/12/37 8/7/37 3/8/37 47/15/37
f 84/13/74 12/13/74 8/13/74 83/13/74
f 10/13/75 84/13/75 83/13/75 6/13/75
l 51 56
